<svg width="254" height="110" viewBox="0 0 254 110" fill="none" xmlns="http://www.w3.org/2000/svg">
<rect x="4" y="18" width="245" height="68" rx="5" fill="#F5BF33"/>
<g filter="url(#filter0_d_210_584)">
<path d="M37.0178 65V38.8182H54.6598V43.3821H42.5533V49.6207H53.7521V54.1847H42.5533V60.4361H54.7109V65H37.0178ZM64.4045 53.6477V65H58.9585V45.3636H64.1488V48.8281H64.3789C64.8136 47.6861 65.5423 46.7827 66.565 46.1179C67.5877 45.4446 68.8278 45.108 70.2852 45.108C71.6488 45.108 72.8377 45.4062 73.8519 46.0028C74.8661 46.5994 75.6545 47.4517 76.217 48.5597C76.7795 49.6591 77.0607 50.9716 77.0607 52.4972V65H71.6147V53.4688C71.6232 52.267 71.3164 51.3295 70.6942 50.6562C70.0721 49.9744 69.2156 49.6335 68.1246 49.6335C67.3917 49.6335 66.744 49.7912 66.1815 50.1065C65.6275 50.4219 65.1928 50.8821 64.8775 51.4872C64.5707 52.0838 64.413 52.804 64.4045 53.6477ZM91.7976 45.3636V49.4545H79.9723V45.3636H91.7976ZM82.657 40.6591H88.103V58.9659C88.103 59.4687 88.1797 59.8608 88.3331 60.142C88.4865 60.4148 88.6996 60.6065 88.9723 60.7173C89.2536 60.8281 89.5774 60.8835 89.9439 60.8835C90.1996 60.8835 90.4553 60.8622 90.7109 60.8196C90.9666 60.7685 91.1626 60.7301 91.299 60.7045L92.1555 64.7571C91.8828 64.8423 91.4993 64.9403 91.005 65.0511C90.5107 65.1705 89.9098 65.2429 89.2024 65.2685C87.8899 65.3196 86.7393 65.1449 85.7507 64.7443C84.7706 64.3437 84.0078 63.7216 83.4624 62.8778C82.9169 62.0341 82.6484 60.9687 82.657 59.6818V40.6591ZM104.083 65.3835C102.063 65.3835 100.325 64.9744 98.8672 64.1562C97.4183 63.3295 96.3018 62.1619 95.5178 60.6534C94.7337 59.1364 94.3416 57.3423 94.3416 55.2713C94.3416 53.2514 94.7337 51.4787 95.5178 49.9531C96.3018 48.4276 97.4055 47.2386 98.8288 46.3864C100.261 45.5341 101.94 45.108 103.866 45.108C105.161 45.108 106.367 45.3168 107.484 45.7344C108.609 46.1435 109.589 46.7614 110.424 47.5881C111.268 48.4148 111.924 49.4545 112.393 50.7074C112.862 51.9517 113.096 53.4091 113.096 55.0795V56.5753H96.5149V53.2003H107.969C107.969 52.4162 107.799 51.7216 107.458 51.1165C107.117 50.5114 106.644 50.0384 106.039 49.6974C105.442 49.348 104.748 49.1733 103.955 49.1733C103.129 49.1733 102.396 49.3651 101.756 49.7486C101.126 50.1236 100.631 50.6307 100.273 51.2699C99.9155 51.9006 99.7322 52.6037 99.7237 53.3793V56.5881C99.7237 57.5597 99.9027 58.3991 100.261 59.1065C100.627 59.8139 101.143 60.3594 101.808 60.7429C102.472 61.1264 103.261 61.3182 104.173 61.3182C104.778 61.3182 105.332 61.233 105.835 61.0625C106.337 60.892 106.768 60.6364 107.126 60.2955C107.484 59.9545 107.756 59.5369 107.944 59.0426L112.981 59.375C112.725 60.5852 112.201 61.642 111.408 62.5455C110.624 63.4403 109.61 64.1392 108.366 64.642C107.13 65.1364 105.702 65.3835 104.083 65.3835ZM116.65 65V45.3636H121.93V48.7898H122.134C122.492 47.571 123.093 46.6506 123.937 46.0284C124.781 45.3977 125.752 45.0824 126.852 45.0824C127.124 45.0824 127.418 45.0994 127.734 45.1335C128.049 45.1676 128.326 45.2145 128.565 45.2741V50.1065C128.309 50.0298 127.955 49.9616 127.504 49.902C127.052 49.8423 126.638 49.8125 126.263 49.8125C125.462 49.8125 124.746 49.9872 124.116 50.3366C123.494 50.6776 122.999 51.1548 122.633 51.7685C122.275 52.3821 122.096 53.0895 122.096 53.8906V65H116.65ZM131.38 72.3636V45.3636H136.75V48.6619H136.993C137.231 48.1335 137.576 47.5966 138.028 47.0511C138.488 46.4972 139.085 46.0369 139.818 45.6705C140.559 45.2955 141.48 45.108 142.579 45.108C144.011 45.108 145.332 45.483 146.542 46.233C147.752 46.9744 148.72 48.0952 149.444 49.5952C150.169 51.0866 150.531 52.9574 150.531 55.2074C150.531 57.3977 150.177 59.2472 149.47 60.7557C148.771 62.2557 147.816 63.3935 146.606 64.169C145.404 64.9361 144.058 65.3196 142.566 65.3196C141.51 65.3196 140.61 65.1449 139.869 64.7955C139.136 64.446 138.535 64.0071 138.066 63.4787C137.598 62.9418 137.24 62.4006 136.993 61.8551H136.826V72.3636H131.38ZM136.711 55.1818C136.711 56.3494 136.873 57.3679 137.197 58.2372C137.521 59.1065 137.99 59.7841 138.603 60.2699C139.217 60.7472 139.963 60.9858 140.841 60.9858C141.727 60.9858 142.477 60.7429 143.091 60.2571C143.704 59.7628 144.169 59.081 144.484 58.2116C144.808 57.3338 144.97 56.3239 144.97 55.1818C144.97 54.0483 144.812 53.0511 144.497 52.1903C144.181 51.3295 143.717 50.6562 143.103 50.1705C142.49 49.6847 141.735 49.4418 140.841 49.4418C139.954 49.4418 139.204 49.6761 138.591 50.1449C137.985 50.6136 137.521 51.2784 137.197 52.1392C136.873 53 136.711 54.0142 136.711 55.1818ZM154.162 65V45.3636H159.441V48.7898H159.646C160.004 47.571 160.605 46.6506 161.449 46.0284C162.292 45.3977 163.264 45.0824 164.363 45.0824C164.636 45.0824 164.93 45.0994 165.245 45.1335C165.561 45.1676 165.838 45.2145 166.076 45.2741V50.1065C165.821 50.0298 165.467 49.9616 165.015 49.902C164.564 49.8423 164.15 49.8125 163.775 49.8125C162.974 49.8125 162.258 49.9872 161.627 50.3366C161.005 50.6776 160.511 51.1548 160.145 51.7685C159.787 52.3821 159.608 53.0895 159.608 53.8906V65H154.162ZM168.892 65V45.3636H174.338V65H168.892ZM171.628 42.8324C170.818 42.8324 170.124 42.5639 169.544 42.027C168.973 41.4815 168.688 40.8295 168.688 40.071C168.688 39.321 168.973 38.6776 169.544 38.1406C170.124 37.5952 170.818 37.3224 171.628 37.3224C172.438 37.3224 173.128 37.5952 173.699 38.1406C174.278 38.6776 174.568 39.321 174.568 40.071C174.568 40.8295 174.278 41.4815 173.699 42.027C173.128 42.5639 172.438 42.8324 171.628 42.8324ZM195.039 50.9631L190.053 51.2699C189.968 50.8437 189.784 50.4602 189.503 50.1193C189.222 49.7699 188.851 49.4929 188.391 49.2884C187.939 49.0753 187.398 48.9688 186.767 48.9688C185.924 48.9688 185.212 49.1477 184.632 49.5057C184.053 49.8551 183.763 50.3239 183.763 50.9119C183.763 51.3807 183.951 51.777 184.326 52.1009C184.701 52.4247 185.344 52.6847 186.256 52.8807L189.81 53.5966C191.719 53.9886 193.142 54.6193 194.08 55.4886C195.017 56.358 195.486 57.5 195.486 58.9148C195.486 60.2017 195.107 61.331 194.348 62.3026C193.598 63.2741 192.567 64.0327 191.255 64.5781C189.951 65.1151 188.446 65.3835 186.742 65.3835C184.142 65.3835 182.071 64.8423 180.529 63.7599C178.995 62.669 178.096 61.1861 177.831 59.3111L183.188 59.0298C183.35 59.8224 183.742 60.4276 184.364 60.8452C184.986 61.2543 185.783 61.4588 186.755 61.4588C187.709 61.4588 188.476 61.2756 189.056 60.9091C189.644 60.5341 189.942 60.0526 189.951 59.4645C189.942 58.9702 189.733 58.5653 189.324 58.25C188.915 57.9261 188.284 57.679 187.432 57.5085L184.032 56.831C182.114 56.4474 180.686 55.7827 179.749 54.8366C178.82 53.8906 178.355 52.6847 178.355 51.2188C178.355 49.9574 178.696 48.8707 179.378 47.9588C180.069 47.0469 181.036 46.3438 182.28 45.8494C183.533 45.3551 184.999 45.108 186.678 45.108C189.158 45.108 191.11 45.6321 192.533 46.6804C193.965 47.7287 194.8 49.1562 195.039 50.9631ZM207.864 65.3835C205.844 65.3835 204.106 64.9744 202.648 64.1562C201.2 63.3295 200.083 62.1619 199.299 60.6534C198.515 59.1364 198.123 57.3423 198.123 55.2713C198.123 53.2514 198.515 51.4787 199.299 49.9531C200.083 48.4276 201.187 47.2386 202.61 46.3864C204.042 45.5341 205.721 45.108 207.647 45.108C208.942 45.108 210.148 45.3168 211.265 45.7344C212.39 46.1435 213.37 46.7614 214.205 47.5881C215.049 48.4148 215.705 49.4545 216.174 50.7074C216.643 51.9517 216.877 53.4091 216.877 55.0795V56.5753H200.296V53.2003H211.751C211.751 52.4162 211.58 51.7216 211.239 51.1165C210.898 50.5114 210.425 50.0384 209.82 49.6974C209.224 49.348 208.529 49.1733 207.737 49.1733C206.91 49.1733 206.177 49.3651 205.538 49.7486C204.907 50.1236 204.413 50.6307 204.055 51.2699C203.697 51.9006 203.513 52.6037 203.505 53.3793V56.5881C203.505 57.5597 203.684 58.3991 204.042 59.1065C204.408 59.8139 204.924 60.3594 205.589 60.7429C206.254 61.1264 207.042 61.3182 207.954 61.3182C208.559 61.3182 209.113 61.233 209.616 61.0625C210.119 60.892 210.549 60.6364 210.907 60.2955C211.265 59.9545 211.538 59.5369 211.725 59.0426L216.762 59.375C216.506 60.5852 215.982 61.642 215.19 62.5455C214.406 63.4403 213.391 64.1392 212.147 64.642C210.911 65.1364 209.484 65.3835 207.864 65.3835Z" fill="black"/>
</g>
<defs>
<filter id="filter0_d_210_584" x="0.0177002" y="0.32251" width="253.859" height="109.041" filterUnits="userSpaceOnUse" color-interpolation-filters="sRGB">
<feFlood flood-opacity="0" result="BackgroundImageFix"/>
<feColorMatrix in="SourceAlpha" type="matrix" values="0 0 0 0 0 0 0 0 0 0 0 0 0 0 0 0 0 0 127 0" result="hardAlpha"/>
<feOffset/>
<feGaussianBlur stdDeviation="18.5"/>
<feComposite in2="hardAlpha" operator="out"/>
<feColorMatrix type="matrix" values="0 0 0 0 1 0 0 0 0 1 0 0 0 0 1 0 0 0 1 0"/>
<feBlend mode="normal" in2="BackgroundImageFix" result="effect1_dropShadow_210_584"/>
<feBlend mode="normal" in="SourceGraphic" in2="effect1_dropShadow_210_584" result="shape"/>
</filter>
</defs>
</svg>
