<svg width="245" height="102" viewBox="0 0 245 102" fill="none" xmlns="http://www.w3.org/2000/svg">
<rect y="15" width="245" height="68" rx="5" fill="#F5BF33"/>
<g filter="url(#filter0_d_210_584)">
<path d="M52.9027 59V38.6364H66.6243V42.1861H57.2081V47.0384H65.9183V50.5881H57.2081V55.4503H66.6641V59H52.9027ZM74.2035 50.1705V59H69.9677V43.7273H74.0046V46.4219H74.1836C74.5217 45.5336 75.0884 44.831 75.8839 44.3139C76.6793 43.7902 77.6438 43.5284 78.7773 43.5284C79.8379 43.5284 80.7627 43.7604 81.5515 44.2244C82.3403 44.6884 82.9535 45.3513 83.391 46.2131C83.8285 47.0682 84.0472 48.089 84.0472 49.2756V59H79.8114V50.0312C79.8181 49.0966 79.5794 48.3674 79.0955 47.8438C78.6116 47.3134 77.9454 47.0483 77.0969 47.0483C76.5269 47.0483 76.0231 47.1709 75.5856 47.4162C75.1547 47.6615 74.8166 48.0194 74.5714 48.4901C74.3327 48.9541 74.2101 49.5142 74.2035 50.1705ZM95.5092 43.7273V46.9091H86.3118V43.7273H95.5092ZM88.3999 40.0682H92.6357V54.3068C92.6357 54.6979 92.6953 55.0028 92.8146 55.2216C92.9339 55.4337 93.0997 55.5829 93.3118 55.669C93.5305 55.7552 93.7824 55.7983 94.0675 55.7983C94.2663 55.7983 94.4652 55.7817 94.6641 55.7486C94.8629 55.7088 95.0154 55.679 95.1214 55.6591L95.7876 58.8111C95.5755 58.8774 95.2772 58.9536 94.8928 59.0398C94.5083 59.1326 94.041 59.1889 93.4908 59.2088C92.4699 59.2486 91.575 59.1127 90.8061 58.8011C90.0438 58.4896 89.4505 58.0057 89.0263 57.3494C88.602 56.6932 88.3932 55.8646 88.3999 54.8636V40.0682ZM105.065 59.2983C103.494 59.2983 102.141 58.9801 101.008 58.3438C99.8809 57.7008 99.0125 56.7926 98.4027 55.6193C97.7929 54.4394 97.4879 53.044 97.4879 51.4332C97.4879 49.8622 97.7929 48.4834 98.4027 47.2969C99.0125 46.1103 99.871 45.1856 100.978 44.5227C102.092 43.8598 103.397 43.5284 104.896 43.5284C105.903 43.5284 106.841 43.6908 107.71 44.0156C108.585 44.3338 109.347 44.8144 109.996 45.4574C110.653 46.1004 111.163 46.9091 111.528 47.8835C111.892 48.8513 112.075 49.9848 112.075 51.2841V52.4474H99.1783V49.8224H108.087C108.087 49.2126 107.955 48.6723 107.69 48.2017C107.424 47.7311 107.057 47.3632 106.586 47.098C106.122 46.8262 105.582 46.6903 104.965 46.6903C104.322 46.6903 103.752 46.8395 103.255 47.1378C102.764 47.4295 102.38 47.8239 102.102 48.321C101.823 48.8116 101.681 49.3584 101.674 49.9616V52.4574C101.674 53.2131 101.813 53.866 102.092 54.4162C102.377 54.9664 102.778 55.3906 103.295 55.6889C103.812 55.9872 104.425 56.1364 105.134 56.1364C105.605 56.1364 106.036 56.0701 106.427 55.9375C106.818 55.8049 107.153 55.6061 107.431 55.3409C107.71 55.0758 107.922 54.7509 108.067 54.3665L111.985 54.625C111.786 55.5663 111.379 56.3883 110.762 57.0909C110.152 57.7869 109.363 58.3305 108.396 58.7216C107.434 59.1061 106.324 59.2983 105.065 59.2983ZM114.839 59V43.7273H118.945V46.392H119.104C119.383 45.4441 119.85 44.7282 120.506 44.2443C121.163 43.7538 121.918 43.5085 122.773 43.5085C122.986 43.5085 123.214 43.5218 123.46 43.5483C123.705 43.5748 123.92 43.6113 124.106 43.6577V47.4162C123.907 47.3565 123.632 47.3035 123.281 47.2571C122.929 47.2107 122.608 47.1875 122.316 47.1875C121.693 47.1875 121.136 47.3234 120.646 47.5952C120.162 47.8603 119.777 48.2315 119.492 48.7088C119.214 49.1861 119.075 49.7363 119.075 50.3594V59H114.839ZM126.296 64.7273V43.7273H130.472V46.2926H130.661C130.846 45.8816 131.115 45.464 131.466 45.0398C131.824 44.6089 132.288 44.2509 132.858 43.9659C133.435 43.6742 134.151 43.5284 135.006 43.5284C136.12 43.5284 137.147 43.8201 138.088 44.4034C139.03 44.9801 139.782 45.8518 140.346 47.0185C140.909 48.1785 141.191 49.6335 141.191 51.3835C141.191 53.0871 140.916 54.5256 140.365 55.6989C139.822 56.8655 139.079 57.7505 138.138 58.3537C137.203 58.9503 136.156 59.2486 134.996 59.2486C134.174 59.2486 133.475 59.1127 132.898 58.8409C132.328 58.5691 131.861 58.2277 131.496 57.8168C131.132 57.3991 130.853 56.9782 130.661 56.554H130.532V64.7273H126.296ZM130.442 51.3636C130.442 52.2718 130.568 53.0639 130.82 53.7401C131.072 54.4162 131.436 54.9432 131.914 55.321C132.391 55.6922 132.971 55.8778 133.654 55.8778C134.343 55.8778 134.926 55.6889 135.404 55.3111C135.881 54.9266 136.242 54.3963 136.488 53.7202C136.739 53.0374 136.865 52.2519 136.865 51.3636C136.865 50.482 136.743 49.7064 136.498 49.0369C136.252 48.3674 135.891 47.8437 135.414 47.4659C134.936 47.0881 134.35 46.8991 133.654 46.8991C132.964 46.8991 132.381 47.0814 131.904 47.446C131.433 47.8106 131.072 48.3277 130.82 48.9972C130.568 49.6667 130.442 50.4555 130.442 51.3636ZM144.015 59V43.7273H148.121V46.392H148.28C148.559 45.4441 149.026 44.7282 149.682 44.2443C150.338 43.7538 151.094 43.5085 151.949 43.5085C152.161 43.5085 152.39 43.5218 152.635 43.5483C152.881 43.5748 153.096 43.6113 153.282 43.6577V47.4162C153.083 47.3565 152.808 47.3035 152.456 47.2571C152.105 47.2107 151.783 47.1875 151.492 47.1875C150.869 47.1875 150.312 47.3234 149.821 47.5952C149.337 47.8603 148.953 48.2315 148.668 48.7088C148.39 49.1861 148.25 49.7363 148.25 50.3594V59H144.015ZM155.472 59V43.7273H159.707V59H155.472ZM157.599 41.7585C156.97 41.7585 156.429 41.5497 155.979 41.1321C155.535 40.7079 155.312 40.2008 155.312 39.6108C155.312 39.0275 155.535 38.527 155.979 38.1094C156.429 37.6851 156.97 37.473 157.599 37.473C158.229 37.473 158.766 37.6851 159.21 38.1094C159.661 38.527 159.886 39.0275 159.886 39.6108C159.886 40.2008 159.661 40.7079 159.21 41.1321C158.766 41.5497 158.229 41.7585 157.599 41.7585ZM175.808 48.0824L171.93 48.321C171.864 47.9896 171.721 47.6913 171.502 47.4261C171.284 47.1544 170.995 46.9389 170.637 46.7798C170.286 46.6141 169.865 46.5312 169.375 46.5312C168.718 46.5312 168.165 46.6705 167.714 46.9489C167.263 47.2206 167.038 47.5852 167.038 48.0426C167.038 48.4072 167.184 48.7154 167.475 48.9673C167.767 49.2192 168.268 49.4214 168.977 49.5739L171.741 50.1307C173.226 50.4356 174.333 50.9261 175.062 51.6023C175.791 52.2784 176.156 53.1667 176.156 54.267C176.156 55.268 175.861 56.1463 175.271 56.902C174.688 57.6577 173.886 58.2476 172.865 58.6719C171.85 59.0895 170.681 59.2983 169.355 59.2983C167.333 59.2983 165.722 58.8774 164.522 58.0355C163.329 57.187 162.63 56.0336 162.424 54.5753L166.591 54.3565C166.717 54.973 167.021 55.4437 167.505 55.7685C167.989 56.0866 168.609 56.2457 169.365 56.2457C170.107 56.2457 170.704 56.1032 171.154 55.8182C171.612 55.5265 171.844 55.152 171.85 54.6946C171.844 54.3101 171.681 53.9953 171.363 53.75C171.045 53.4981 170.555 53.3059 169.892 53.1733L167.247 52.6463C165.755 52.348 164.645 51.831 163.916 51.0952C163.193 50.3594 162.832 49.4214 162.832 48.2812C162.832 47.3002 163.097 46.455 163.627 45.7457C164.164 45.0365 164.917 44.4896 165.885 44.1051C166.859 43.7206 167.999 43.5284 169.305 43.5284C171.234 43.5284 172.752 43.9361 173.859 44.7514C174.973 45.5668 175.622 46.6771 175.808 48.0824ZM185.783 59.2983C184.212 59.2983 182.86 58.9801 181.727 58.3438C180.6 57.7008 179.731 56.7926 179.121 55.6193C178.512 54.4394 178.207 53.044 178.207 51.4332C178.207 49.8622 178.512 48.4834 179.121 47.2969C179.731 46.1103 180.59 45.1856 181.697 44.5227C182.81 43.8598 184.116 43.5284 185.614 43.5284C186.622 43.5284 187.56 43.6908 188.428 44.0156C189.303 44.3338 190.066 44.8144 190.715 45.4574C191.371 46.1004 191.882 46.9091 192.246 47.8835C192.611 48.8513 192.793 49.9848 192.793 51.2841V52.4474H179.897V49.8224H188.806C188.806 49.2126 188.674 48.6723 188.408 48.2017C188.143 47.7311 187.775 47.3632 187.305 47.098C186.841 46.8262 186.3 46.6903 185.684 46.6903C185.041 46.6903 184.471 46.8395 183.974 47.1378C183.483 47.4295 183.099 47.8239 182.82 48.321C182.542 48.8116 182.399 49.3584 182.393 49.9616V52.4574C182.393 53.2131 182.532 53.866 182.81 54.4162C183.095 54.9664 183.496 55.3906 184.013 55.6889C184.531 55.9872 185.144 56.1364 185.853 56.1364C186.324 56.1364 186.754 56.0701 187.146 55.9375C187.537 55.8049 187.871 55.6061 188.15 55.3409C188.428 55.0758 188.64 54.7509 188.786 54.3665L192.704 54.625C192.505 55.5663 192.097 56.3883 191.481 57.0909C190.871 57.7869 190.082 58.3305 189.114 58.7216C188.153 59.1061 187.043 59.2983 185.783 59.2983Z" fill="black"/>
</g>
<defs>
<filter id="filter0_d_210_584" x="15.9027" y="0.4729" width="213.891" height="101.254" filterUnits="userSpaceOnUse" color-interpolation-filters="sRGB">
<feFlood flood-opacity="0" result="BackgroundImageFix"/>
<feColorMatrix in="SourceAlpha" type="matrix" values="0 0 0 0 0 0 0 0 0 0 0 0 0 0 0 0 0 0 127 0" result="hardAlpha"/>
<feOffset/>
<feGaussianBlur stdDeviation="18.5"/>
<feComposite in2="hardAlpha" operator="out"/>
<feColorMatrix type="matrix" values="0 0 0 0 1 0 0 0 0 1 0 0 0 0 1 0 0 0 1 0"/>
<feBlend mode="normal" in2="BackgroundImageFix" result="effect1_dropShadow_210_584"/>
<feBlend mode="normal" in="SourceGraphic" in2="effect1_dropShadow_210_584" result="shape"/>
</filter>
</defs>
</svg>
