<svg width="245" height="102" viewBox="0 0 245 102" fill="none" xmlns="http://www.w3.org/2000/svg">
<rect y="17" width="245" height="68" rx="5" fill="#F5BF33"/>
<g filter="url(#filter0_d_210_581)">
<path d="M40.9279 64V37.8182H58.57V42.3821H46.4634V48.6207H57.6623V53.1847H46.4634V59.4361H58.6211V64H40.9279ZM67.4197 44.3636L71.0249 51.2287L74.7195 44.3636H80.3061L74.6172 54.1818L80.4595 64H74.8984L71.0249 57.2116L67.2152 64H61.5902L67.4197 54.1818L61.7947 44.3636H67.4197ZM93.9851 44.3636V48.4545H82.1598V44.3636H93.9851ZM84.8445 39.6591H90.2905V57.9659C90.2905 58.4687 90.3672 58.8608 90.5206 59.142C90.674 59.4148 90.8871 59.6065 91.1598 59.7173C91.4411 59.8281 91.7649 59.8835 92.1314 59.8835C92.3871 59.8835 92.6428 59.8622 92.8984 59.8196C93.1541 59.7685 93.3501 59.7301 93.4865 59.7045L94.343 63.7571C94.0703 63.8423 93.6868 63.9403 93.1925 64.0511C92.6982 64.1705 92.0973 64.2429 91.3899 64.2685C90.0774 64.3196 88.9268 64.1449 87.9382 63.7443C86.9581 63.3437 86.1953 62.7216 85.6499 61.8778C85.1044 61.0341 84.8359 59.9687 84.8445 58.6818V39.6591ZM106.271 64.3835C104.251 64.3835 102.512 63.9744 101.055 63.1562C99.6058 62.3295 98.4893 61.1619 97.7053 59.6534C96.9212 58.1364 96.5291 56.3423 96.5291 54.2713C96.5291 52.2514 96.9212 50.4787 97.7053 48.9531C98.4893 47.4276 99.593 46.2386 101.016 45.3864C102.448 44.5341 104.127 44.108 106.053 44.108C107.349 44.108 108.555 44.3168 109.671 44.7344C110.796 45.1435 111.776 45.7614 112.612 46.5881C113.455 47.4148 114.112 48.4545 114.58 49.7074C115.049 50.9517 115.283 52.4091 115.283 54.0795V55.5753H98.7024V52.2003H110.157C110.157 51.4162 109.987 50.7216 109.646 50.1165C109.305 49.5114 108.832 49.0384 108.227 48.6974C107.63 48.348 106.935 48.1733 106.143 48.1733C105.316 48.1733 104.583 48.3651 103.944 48.7486C103.313 49.1236 102.819 49.6307 102.461 50.2699C102.103 50.9006 101.92 51.6037 101.911 52.3793V55.5881C101.911 56.5597 102.09 57.3991 102.448 58.1065C102.815 58.8139 103.33 59.3594 103.995 59.7429C104.66 60.1264 105.448 60.3182 106.36 60.3182C106.965 60.3182 107.519 60.233 108.022 60.0625C108.525 59.892 108.955 59.6364 109.313 59.2955C109.671 58.9545 109.944 58.5369 110.131 58.0426L115.168 58.375C114.913 59.5852 114.388 60.642 113.596 61.5455C112.812 62.4403 111.798 63.1392 110.553 63.642C109.317 64.1364 107.89 64.3835 106.271 64.3835ZM124.283 52.6477V64H118.837V44.3636H124.028V47.8281H124.258C124.692 46.6861 125.421 45.7827 126.444 45.1179C127.467 44.4446 128.707 44.108 130.164 44.108C131.528 44.108 132.717 44.4062 133.731 45.0028C134.745 45.5994 135.533 46.4517 136.096 47.5597C136.658 48.6591 136.94 49.9716 136.94 51.4972V64H131.494V52.4688C131.502 51.267 131.195 50.3295 130.573 49.6562C129.951 48.9744 129.094 48.6335 128.004 48.6335C127.271 48.6335 126.623 48.7912 126.06 49.1065C125.506 49.4219 125.072 49.8821 124.756 50.4872C124.45 51.0838 124.292 51.804 124.283 52.6477ZM148.468 64.3196C146.976 64.3196 145.625 63.9361 144.415 63.169C143.213 62.3935 142.259 61.2557 141.551 59.7557C140.853 58.2472 140.503 56.3977 140.503 54.2074C140.503 51.9574 140.865 50.0866 141.59 48.5952C142.314 47.0952 143.277 45.9744 144.479 45.233C145.689 44.483 147.015 44.108 148.455 44.108C149.554 44.108 150.471 44.2955 151.203 44.6705C151.945 45.0369 152.542 45.4972 152.993 46.0511C153.453 46.5966 153.803 47.1335 154.042 47.6619H154.208V37.8182H159.641V64H154.272V60.8551H154.042C153.786 61.4006 153.424 61.9418 152.955 62.4787C152.495 63.0071 151.894 63.446 151.152 63.7955C150.419 64.1449 149.525 64.3196 148.468 64.3196ZM150.194 59.9858C151.071 59.9858 151.813 59.7472 152.418 59.2699C153.032 58.7841 153.5 58.1065 153.824 57.2372C154.157 56.3679 154.323 55.3494 154.323 54.1818C154.323 53.0142 154.161 52 153.837 51.1392C153.513 50.2784 153.044 49.6136 152.431 49.1449C151.817 48.6761 151.071 48.4418 150.194 48.4418C149.299 48.4418 148.544 48.6847 147.931 49.1705C147.317 49.6562 146.853 50.3295 146.537 51.1903C146.222 52.0511 146.064 53.0483 146.064 54.1818C146.064 55.3239 146.222 56.3338 146.537 57.2116C146.861 58.081 147.326 58.7628 147.931 59.2571C148.544 59.7429 149.299 59.9858 150.194 59.9858ZM173.067 64.3835C171.048 64.3835 169.309 63.9744 167.852 63.1562C166.403 62.3295 165.286 61.1619 164.502 59.6534C163.718 58.1364 163.326 56.3423 163.326 54.2713C163.326 52.2514 163.718 50.4787 164.502 48.9531C165.286 47.4276 166.39 46.2386 167.813 45.3864C169.245 44.5341 170.924 44.108 172.85 44.108C174.146 44.108 175.352 44.3168 176.468 44.7344C177.593 45.1435 178.573 45.7614 179.408 46.5881C180.252 47.4148 180.908 48.4545 181.377 49.7074C181.846 50.9517 182.08 52.4091 182.08 54.0795V55.5753H165.499V52.2003H176.954C176.954 51.4162 176.783 50.7216 176.442 50.1165C176.102 49.5114 175.629 49.0384 175.023 48.6974C174.427 48.348 173.732 48.1733 172.94 48.1733C172.113 48.1733 171.38 48.3651 170.741 48.7486C170.11 49.1236 169.616 49.6307 169.258 50.2699C168.9 50.9006 168.717 51.6037 168.708 52.3793V55.5881C168.708 56.5597 168.887 57.3991 169.245 58.1065C169.612 58.8139 170.127 59.3594 170.792 59.7429C171.457 60.1264 172.245 60.3182 173.157 60.3182C173.762 60.3182 174.316 60.233 174.819 60.0625C175.322 59.892 175.752 59.6364 176.11 59.2955C176.468 58.9545 176.741 58.5369 176.928 58.0426L181.965 58.375C181.71 59.5852 181.185 60.642 180.393 61.5455C179.609 62.4403 178.594 63.1392 177.35 63.642C176.114 64.1364 174.687 64.3835 173.067 64.3835ZM192.87 64.3196C191.379 64.3196 190.028 63.9361 188.817 63.169C187.616 62.3935 186.661 61.2557 185.954 59.7557C185.255 58.2472 184.906 56.3977 184.906 54.2074C184.906 51.9574 185.268 50.0866 185.992 48.5952C186.717 47.0952 187.68 45.9744 188.881 45.233C190.092 44.483 191.417 44.108 192.857 44.108C193.957 44.108 194.873 44.2955 195.606 44.6705C196.347 45.0369 196.944 45.4972 197.396 46.0511C197.856 46.5966 198.205 47.1335 198.444 47.6619H198.61V37.8182H204.043V64H198.674V60.8551H198.444C198.188 61.4006 197.826 61.9418 197.357 62.4787C196.897 63.0071 196.296 63.446 195.555 63.7955C194.822 64.1449 193.927 64.3196 192.87 64.3196ZM194.596 59.9858C195.474 59.9858 196.215 59.7472 196.82 59.2699C197.434 58.7841 197.903 58.1065 198.227 57.2372C198.559 56.3679 198.725 55.3494 198.725 54.1818C198.725 53.0142 198.563 52 198.239 51.1392C197.915 50.2784 197.447 49.6136 196.833 49.1449C196.219 48.6761 195.474 48.4418 194.596 48.4418C193.701 48.4418 192.947 48.6847 192.333 49.1705C191.719 49.6562 191.255 50.3295 190.94 51.1903C190.624 52.0511 190.467 53.0483 190.467 54.1818C190.467 55.3239 190.624 56.3338 190.94 57.2116C191.263 58.081 191.728 58.7628 192.333 59.2571C192.947 59.7429 193.701 59.9858 194.596 59.9858Z" fill="black"/>
</g>
<defs>
<filter id="filter0_d_210_581" x="3.92792" y="0.818115" width="237.115" height="100.565" filterUnits="userSpaceOnUse" color-interpolation-filters="sRGB">
<feFlood flood-opacity="0" result="BackgroundImageFix"/>
<feColorMatrix in="SourceAlpha" type="matrix" values="0 0 0 0 0 0 0 0 0 0 0 0 0 0 0 0 0 0 127 0" result="hardAlpha"/>
<feOffset/>
<feGaussianBlur stdDeviation="18.5"/>
<feComposite in2="hardAlpha" operator="out"/>
<feColorMatrix type="matrix" values="0 0 0 0 1 0 0 0 0 1 0 0 0 0 1 0 0 0 1 0"/>
<feBlend mode="normal" in2="BackgroundImageFix" result="effect1_dropShadow_210_581"/>
<feBlend mode="normal" in="SourceGraphic" in2="effect1_dropShadow_210_581" result="shape"/>
</filter>
</defs>
</svg>
