<svg width="245" height="102" viewBox="0 0 245 102" fill="none" xmlns="http://www.w3.org/2000/svg">
<rect y="17" width="245" height="68" rx="5" fill="#F5BF33"/>
<g filter="url(#filter0_d_210_580)">
<path d="M105.636 46.9844H100.037C99.9345 46.2599 99.7257 45.6165 99.4103 45.054C99.095 44.483 98.6902 43.9972 98.1958 43.5966C97.7015 43.196 97.1305 42.8892 96.4828 42.6761C95.8436 42.4631 95.149 42.3565 94.399 42.3565C93.0439 42.3565 91.8635 42.6932 90.8578 43.3665C89.8521 44.0312 89.0723 45.0028 88.5183 46.2812C87.9643 47.5511 87.6873 49.0937 87.6873 50.9091C87.6873 52.7756 87.9643 54.3437 88.5183 55.6136C89.0808 56.8835 89.8649 57.8423 90.8706 58.4901C91.8762 59.1378 93.0396 59.4616 94.3606 59.4616C95.1021 59.4616 95.7882 59.3636 96.4189 59.1676C97.0581 58.9716 97.6248 58.6861 98.1191 58.3111C98.6135 57.9276 99.0226 57.4631 99.3464 56.9176C99.6788 56.3722 99.9089 55.75 100.037 55.0511L105.636 55.0767C105.491 56.2784 105.129 57.4375 104.55 58.554C103.979 59.6619 103.207 60.6548 102.236 61.5327C101.273 62.402 100.122 63.0923 98.7839 63.6037C97.4544 64.1065 95.9501 64.358 94.2711 64.358C91.9359 64.358 89.8478 63.8295 88.0069 62.7727C86.1745 61.7159 84.7257 60.1861 83.6603 58.1832C82.6035 56.1804 82.0751 53.7557 82.0751 50.9091C82.0751 48.054 82.612 45.625 83.6859 43.6222C84.7598 41.6193 86.2172 40.0937 88.0581 39.0455C89.899 37.9886 91.97 37.4602 94.2711 37.4602C95.7882 37.4602 97.1944 37.6733 98.4899 38.0994C99.7939 38.5256 100.949 39.1477 101.954 39.9659C102.96 40.7756 103.778 41.7685 104.409 42.9446C105.048 44.1207 105.457 45.4673 105.636 46.9844ZM118.376 64.3835C116.39 64.3835 114.672 63.9616 113.224 63.1179C111.783 62.2656 110.671 61.081 109.887 59.5639C109.103 58.0384 108.711 56.2699 108.711 54.2585C108.711 52.2301 109.103 50.4574 109.887 48.9403C110.671 47.4148 111.783 46.2301 113.224 45.3864C114.672 44.5341 116.39 44.108 118.376 44.108C120.361 44.108 122.074 44.5341 123.515 45.3864C124.964 46.2301 126.08 47.4148 126.864 48.9403C127.648 50.4574 128.04 52.2301 128.04 54.2585C128.04 56.2699 127.648 58.0384 126.864 59.5639C126.08 61.081 124.964 62.2656 123.515 63.1179C122.074 63.9616 120.361 64.3835 118.376 64.3835ZM118.401 60.1648C119.305 60.1648 120.059 59.9091 120.664 59.3977C121.269 58.8778 121.725 58.1705 122.032 57.2756C122.347 56.3807 122.505 55.3622 122.505 54.2202C122.505 53.0781 122.347 52.0597 122.032 51.1648C121.725 50.2699 121.269 49.5625 120.664 49.0426C120.059 48.5227 119.305 48.2628 118.401 48.2628C117.489 48.2628 116.722 48.5227 116.1 49.0426C115.486 49.5625 115.022 50.2699 114.706 51.1648C114.4 52.0597 114.246 53.0781 114.246 54.2202C114.246 55.3622 114.4 56.3807 114.706 57.2756C115.022 58.1705 115.486 58.8778 116.1 59.3977C116.722 59.9091 117.489 60.1648 118.401 60.1648ZM131.581 64V44.3636H136.861V47.7898H137.066C137.424 46.571 138.025 45.6506 138.868 45.0284C139.712 44.3977 140.684 44.0824 141.783 44.0824C142.056 44.0824 142.35 44.0994 142.665 44.1335C142.981 44.1676 143.258 44.2145 143.496 44.2741V49.1065C143.241 49.0298 142.887 48.9616 142.435 48.902C141.983 48.8423 141.57 48.8125 141.195 48.8125C140.394 48.8125 139.678 48.9872 139.047 49.3366C138.425 49.6776 137.931 50.1548 137.564 50.7685C137.206 51.3821 137.028 52.0895 137.028 52.8906V64H131.581ZM154.347 64.3835C152.327 64.3835 150.588 63.9744 149.131 63.1562C147.682 62.3295 146.566 61.1619 145.781 59.6534C144.997 58.1364 144.605 56.3423 144.605 54.2713C144.605 52.2514 144.997 50.4787 145.781 48.9531C146.566 47.4276 147.669 46.2386 149.093 45.3864C150.524 44.5341 152.203 44.108 154.129 44.108C155.425 44.108 156.631 44.3168 157.747 44.7344C158.872 45.1435 159.852 45.7614 160.688 46.5881C161.531 47.4148 162.188 48.4545 162.656 49.7074C163.125 50.9517 163.36 52.4091 163.36 54.0795V55.5753H146.779V52.2003H158.233C158.233 51.4162 158.063 50.7216 157.722 50.1165C157.381 49.5114 156.908 49.0384 156.303 48.6974C155.706 48.348 155.012 48.1733 154.219 48.1733C153.392 48.1733 152.659 48.3651 152.02 48.7486C151.389 49.1236 150.895 49.6307 150.537 50.2699C150.179 50.9006 149.996 51.6037 149.987 52.3793V55.5881C149.987 56.5597 150.166 57.3991 150.524 58.1065C150.891 58.8139 151.406 59.3594 152.071 59.7429C152.736 60.1264 153.524 60.3182 154.436 60.3182C155.041 60.3182 155.595 60.233 156.098 60.0625C156.601 59.892 157.031 59.6364 157.389 59.2955C157.747 58.9545 158.02 58.5369 158.208 58.0426L163.244 58.375C162.989 59.5852 162.465 60.642 161.672 61.5455C160.888 62.4403 159.874 63.1392 158.629 63.642C157.394 64.1364 155.966 64.3835 154.347 64.3835Z" fill="black"/>
</g>
<defs>
<filter id="filter0_d_210_580" x="45.0751" y="0.460205" width="155.284" height="100.923" filterUnits="userSpaceOnUse" color-interpolation-filters="sRGB">
<feFlood flood-opacity="0" result="BackgroundImageFix"/>
<feColorMatrix in="SourceAlpha" type="matrix" values="0 0 0 0 0 0 0 0 0 0 0 0 0 0 0 0 0 0 127 0" result="hardAlpha"/>
<feOffset/>
<feGaussianBlur stdDeviation="18.5"/>
<feComposite in2="hardAlpha" operator="out"/>
<feColorMatrix type="matrix" values="0 0 0 0 1 0 0 0 0 1 0 0 0 0 1 0 0 0 1 0"/>
<feBlend mode="normal" in2="BackgroundImageFix" result="effect1_dropShadow_210_580"/>
<feBlend mode="normal" in="SourceGraphic" in2="effect1_dropShadow_210_580" result="shape"/>
</filter>
</defs>
</svg>
