<svg width="245" height="96" viewBox="0 0 245 96" fill="none" xmlns="http://www.w3.org/2000/svg">
<rect y="14" width="245" height="68" rx="5" fill="#F5BF33"/>
<g filter="url(#filter0_d_210_581)">
<path d="M59.055 58V37.6364H72.7766V41.1861H63.3604V46.0384H72.0707V49.5881H63.3604V54.4503H72.8164V58H59.055ZM79.6598 42.7273L82.4638 48.0668L85.3374 42.7273H89.6825L85.2578 50.3636L89.8018 58H85.4766L82.4638 52.7202L79.5007 58H75.1257L79.6598 50.3636L75.2848 42.7273H79.6598ZM100.322 42.7273V45.9091H91.1243V42.7273H100.322ZM93.2124 39.0682H97.4482V53.3068C97.4482 53.6979 97.5078 54.0028 97.6271 54.2216C97.7464 54.4337 97.9122 54.5829 98.1243 54.669C98.343 54.7552 98.5949 54.7983 98.88 54.7983C99.0788 54.7983 99.2777 54.7817 99.4766 54.7486C99.6754 54.7088 99.8279 54.679 99.9339 54.6591L100.6 57.8111C100.388 57.8774 100.09 57.9536 99.7053 58.0398C99.3208 58.1326 98.8535 58.1889 98.3033 58.2088C97.2824 58.2486 96.3875 58.1127 95.6186 57.8011C94.8563 57.4896 94.263 57.0057 93.8388 56.3494C93.4145 55.6932 93.2057 54.8646 93.2124 53.8636V39.0682ZM109.877 58.2983C108.306 58.2983 106.954 57.9801 105.82 57.3438C104.693 56.7008 103.825 55.7926 103.215 54.6193C102.605 53.4394 102.3 52.044 102.3 50.4332C102.3 48.8622 102.605 47.4834 103.215 46.2969C103.825 45.1103 104.683 44.1856 105.79 43.5227C106.904 42.8598 108.21 42.5284 109.708 42.5284C110.716 42.5284 111.654 42.6908 112.522 43.0156C113.397 43.3338 114.159 43.8144 114.809 44.4574C115.465 45.1004 115.976 45.9091 116.34 46.8835C116.705 47.8513 116.887 48.9848 116.887 50.2841V51.4474H103.991V48.8224H112.9C112.9 48.2126 112.767 47.6723 112.502 47.2017C112.237 46.7311 111.869 46.3632 111.398 46.098C110.934 45.8262 110.394 45.6903 109.778 45.6903C109.135 45.6903 108.565 45.8395 108.067 46.1378C107.577 46.4295 107.192 46.8239 106.914 47.321C106.636 47.8116 106.493 48.3584 106.487 48.9616V51.4574C106.487 52.2131 106.626 52.866 106.904 53.4162C107.189 53.9664 107.59 54.3906 108.107 54.6889C108.624 54.9872 109.237 55.1364 109.947 55.1364C110.417 55.1364 110.848 55.0701 111.239 54.9375C111.63 54.8049 111.965 54.6061 112.244 54.3409C112.522 54.0758 112.734 53.7509 112.88 53.3665L116.798 53.625C116.599 54.5663 116.191 55.3883 115.575 56.0909C114.965 56.7869 114.176 57.3305 113.208 57.7216C112.247 58.1061 111.137 58.2983 109.877 58.2983ZM123.887 49.1705V58H119.651V42.7273H123.688V45.4219H123.867C124.205 44.5336 124.772 43.831 125.567 43.3139C126.363 42.7902 127.327 42.5284 128.461 42.5284C129.522 42.5284 130.446 42.7604 131.235 43.2244C132.024 43.6884 132.637 44.3513 133.075 45.2131C133.512 46.0682 133.731 47.089 133.731 48.2756V58H129.495V49.0312C129.502 48.0966 129.263 47.3674 128.779 46.8438C128.295 46.3134 127.629 46.0483 126.781 46.0483C126.21 46.0483 125.707 46.1709 125.269 46.4162C124.838 46.6615 124.5 47.0194 124.255 47.4901C124.016 47.9541 123.894 48.5142 123.887 49.1705ZM142.697 58.2486C141.537 58.2486 140.486 57.9503 139.545 57.3537C138.61 56.7505 137.868 55.8655 137.318 54.6989C136.774 53.5256 136.502 52.0871 136.502 50.3835C136.502 48.6335 136.784 47.1785 137.348 46.0185C137.911 44.8518 138.66 43.9801 139.595 43.4034C140.536 42.8201 141.567 42.5284 142.687 42.5284C143.542 42.5284 144.255 42.6742 144.825 42.9659C145.402 43.2509 145.866 43.6089 146.217 44.0398C146.575 44.464 146.847 44.8816 147.032 45.2926H147.162V37.6364H151.387V58H147.211V55.554H147.032C146.833 55.9782 146.552 56.3991 146.187 56.8168C145.829 57.2277 145.362 57.5691 144.785 57.8409C144.215 58.1127 143.519 58.2486 142.697 58.2486ZM144.039 54.8778C144.722 54.8778 145.299 54.6922 145.77 54.321C146.247 53.9432 146.611 53.4162 146.863 52.7401C147.122 52.0639 147.251 51.2718 147.251 50.3636C147.251 49.4555 147.125 48.6667 146.873 47.9972C146.621 47.3277 146.257 46.8106 145.779 46.446C145.302 46.0814 144.722 45.8991 144.039 45.8991C143.343 45.8991 142.757 46.0881 142.279 46.4659C141.802 46.8437 141.441 47.3674 141.196 48.0369C140.95 48.7064 140.828 49.482 140.828 50.3636C140.828 51.2519 140.95 52.0374 141.196 52.7202C141.448 53.3963 141.809 53.9266 142.279 54.3111C142.757 54.6889 143.343 54.8778 144.039 54.8778ZM161.83 58.2983C160.259 58.2983 158.907 57.9801 157.773 57.3438C156.647 56.7008 155.778 55.7926 155.168 54.6193C154.558 53.4394 154.254 52.044 154.254 50.4332C154.254 48.8622 154.558 47.4834 155.168 46.2969C155.778 45.1103 156.637 44.1856 157.744 43.5227C158.857 42.8598 160.163 42.5284 161.661 42.5284C162.669 42.5284 163.607 42.6908 164.475 43.0156C165.35 43.3338 166.112 43.8144 166.762 44.4574C167.418 45.1004 167.929 45.9091 168.293 46.8835C168.658 47.8513 168.84 48.9848 168.84 50.2841V51.4474H155.944V48.8224H164.853C164.853 48.2126 164.72 47.6723 164.455 47.2017C164.19 46.7311 163.822 46.3632 163.352 46.098C162.888 45.8262 162.347 45.6903 161.731 45.6903C161.088 45.6903 160.518 45.8395 160.021 46.1378C159.53 46.4295 159.146 46.8239 158.867 47.321C158.589 47.8116 158.446 48.3584 158.44 48.9616V51.4574C158.44 52.2131 158.579 52.866 158.857 53.4162C159.142 53.9664 159.543 54.3906 160.06 54.6889C160.577 54.9872 161.191 55.1364 161.9 55.1364C162.371 55.1364 162.801 55.0701 163.192 54.9375C163.584 54.8049 163.918 54.6061 164.197 54.3409C164.475 54.0758 164.687 53.7509 164.833 53.3665L168.751 53.625C168.552 54.5663 168.144 55.3883 167.528 56.0909C166.918 56.7869 166.129 57.3305 165.161 57.7216C164.2 58.1061 163.09 58.2983 161.83 58.2983ZM177.232 58.2486C176.072 58.2486 175.022 57.9503 174.08 57.3537C173.146 56.7505 172.403 55.8655 171.853 54.6989C171.309 53.5256 171.038 52.0871 171.038 50.3835C171.038 48.6335 171.319 47.1785 171.883 46.0185C172.446 44.8518 173.195 43.9801 174.13 43.4034C175.071 42.8201 176.102 42.5284 177.222 42.5284C178.077 42.5284 178.79 42.6742 179.36 42.9659C179.937 43.2509 180.401 43.6089 180.752 44.0398C181.11 44.464 181.382 44.8816 181.567 45.2926H181.697V37.6364H185.923V58H181.746V55.554H181.567C181.369 55.9782 181.087 56.3991 180.722 56.8168C180.364 57.2277 179.897 57.5691 179.32 57.8409C178.75 58.1127 178.054 58.2486 177.232 58.2486ZM178.575 54.8778C179.257 54.8778 179.834 54.6922 180.305 54.321C180.782 53.9432 181.147 53.4162 181.398 52.7401C181.657 52.0639 181.786 51.2718 181.786 50.3636C181.786 49.4555 181.66 48.6667 181.408 47.9972C181.156 47.3277 180.792 46.8106 180.315 46.446C179.837 46.0814 179.257 45.8991 178.575 45.8991C177.879 45.8991 177.292 46.0881 176.815 46.4659C176.337 46.8437 175.976 47.3674 175.731 48.0369C175.486 48.7064 175.363 49.482 175.363 50.3636C175.363 51.2519 175.486 52.0374 175.731 52.7202C175.983 53.3963 176.344 53.9266 176.815 54.3111C177.292 54.6889 177.879 54.8778 178.575 54.8778Z" fill="black"/>
</g>
<defs>
<filter id="filter0_d_210_581" x="22.0551" y="0.636475" width="200.868" height="94.6619" filterUnits="userSpaceOnUse" color-interpolation-filters="sRGB">
<feFlood flood-opacity="0" result="BackgroundImageFix"/>
<feColorMatrix in="SourceAlpha" type="matrix" values="0 0 0 0 0 0 0 0 0 0 0 0 0 0 0 0 0 0 127 0" result="hardAlpha"/>
<feOffset/>
<feGaussianBlur stdDeviation="18.5"/>
<feComposite in2="hardAlpha" operator="out"/>
<feColorMatrix type="matrix" values="0 0 0 0 1 0 0 0 0 1 0 0 0 0 1 0 0 0 1 0"/>
<feBlend mode="normal" in2="BackgroundImageFix" result="effect1_dropShadow_210_581"/>
<feBlend mode="normal" in="SourceGraphic" in2="effect1_dropShadow_210_581" result="shape"/>
</filter>
</defs>
</svg>
