<svg width="245" height="96" viewBox="0 0 245 96" fill="none" xmlns="http://www.w3.org/2000/svg">
<rect y="14" width="245" height="68" rx="5" fill="#F5BF33"/>
<g filter="url(#filter0_d_210_580)">
<path d="M109.384 44.7656H105.029C104.949 44.2022 104.787 43.7017 104.541 43.2642C104.296 42.8201 103.981 42.4422 103.597 42.1307C103.212 41.8191 102.768 41.5805 102.264 41.4148C101.767 41.2491 101.227 41.1662 100.644 41.1662C99.5897 41.1662 98.6716 41.428 97.8894 41.9517C97.1072 42.4687 96.5007 43.2244 96.0698 44.2188C95.6389 45.2064 95.4235 46.4062 95.4235 47.8182C95.4235 49.2699 95.6389 50.4896 96.0698 51.4773C96.5073 52.465 97.1171 53.2107 97.8993 53.7145C98.6815 54.2183 99.5864 54.4702 100.614 54.4702C101.191 54.4702 101.724 54.3939 102.215 54.2415C102.712 54.089 103.153 53.867 103.537 53.5753C103.922 53.277 104.24 52.9157 104.492 52.4915C104.75 52.0672 104.929 51.5833 105.029 51.0398L109.384 51.0597C109.271 51.9943 108.989 52.8958 108.539 53.7642C108.094 54.6259 107.494 55.3982 106.739 56.081C105.99 56.7571 105.095 57.294 104.054 57.6918C103.02 58.0829 101.85 58.2784 100.544 58.2784C98.7279 58.2784 97.1039 57.8674 95.6721 57.0455C94.2469 56.2235 93.12 55.0336 92.2914 53.4759C91.4694 51.9181 91.0584 50.0322 91.0584 47.8182C91.0584 45.5975 91.476 43.7083 92.3113 42.1506C93.1465 40.5928 94.28 39.4062 95.7118 38.5909C97.1436 37.7689 98.7544 37.358 100.544 37.358C101.724 37.358 102.818 37.5237 103.825 37.8551C104.84 38.1866 105.738 38.6705 106.52 39.3068C107.302 39.9366 107.939 40.7088 108.429 41.6236C108.926 42.5384 109.244 43.5857 109.384 44.7656ZM119.292 58.2983C117.748 58.2983 116.412 57.9702 115.285 57.3139C114.165 56.651 113.3 55.7296 112.69 54.5497C112.08 53.3632 111.775 51.9877 111.775 50.4233C111.775 48.8456 112.08 47.4669 112.69 46.2869C113.3 45.1004 114.165 44.179 115.285 43.5227C116.412 42.8598 117.748 42.5284 119.292 42.5284C120.837 42.5284 122.169 42.8598 123.289 43.5227C124.416 44.179 125.285 45.1004 125.894 46.2869C126.504 47.4669 126.809 48.8456 126.809 50.4233C126.809 51.9877 126.504 53.3632 125.894 54.5497C125.285 55.7296 124.416 56.651 123.289 57.3139C122.169 57.9702 120.837 58.2983 119.292 58.2983ZM119.312 55.017C120.015 55.017 120.601 54.8182 121.072 54.4205C121.543 54.0161 121.897 53.4659 122.136 52.7699C122.381 52.0739 122.504 51.2817 122.504 50.3935C122.504 49.5052 122.381 48.7131 122.136 48.017C121.897 47.321 121.543 46.7708 121.072 46.3665C120.601 45.9621 120.015 45.7599 119.312 45.7599C118.603 45.7599 118.006 45.9621 117.522 46.3665C117.045 46.7708 116.684 47.321 116.438 48.017C116.2 48.7131 116.08 49.5052 116.08 50.3935C116.08 51.2817 116.2 52.0739 116.438 52.7699C116.684 53.4659 117.045 54.0161 117.522 54.4205C118.006 54.8182 118.603 55.017 119.312 55.017ZM129.563 58V42.7273H133.67V45.392H133.829C134.107 44.4441 134.575 43.7282 135.231 43.2443C135.887 42.7538 136.643 42.5085 137.498 42.5085C137.71 42.5085 137.939 42.5218 138.184 42.5483C138.429 42.5748 138.645 42.6113 138.83 42.6577V46.4162C138.632 46.3565 138.356 46.3035 138.005 46.2571C137.654 46.2107 137.332 46.1875 137.041 46.1875C136.418 46.1875 135.861 46.3234 135.37 46.5952C134.886 46.8603 134.502 47.2315 134.217 47.7088C133.938 48.1861 133.799 48.7363 133.799 49.3594V58H129.563ZM147.27 58.2983C145.699 58.2983 144.346 57.9801 143.213 57.3438C142.086 56.7008 141.218 55.7926 140.608 54.6193C139.998 53.4394 139.693 52.044 139.693 50.4332C139.693 48.8622 139.998 47.4834 140.608 46.2969C141.218 45.1103 142.076 44.1856 143.183 43.5227C144.297 42.8598 145.603 42.5284 147.101 42.5284C148.108 42.5284 149.046 42.6908 149.915 43.0156C150.79 43.3338 151.552 43.8144 152.202 44.4574C152.858 45.1004 153.368 45.9091 153.733 46.8835C154.097 47.8513 154.28 48.9848 154.28 50.2841V51.4474H141.383V48.8224H150.292C150.292 48.2126 150.16 47.6723 149.895 47.2017C149.63 46.7311 149.262 46.3632 148.791 46.098C148.327 45.8262 147.787 45.6903 147.17 45.6903C146.527 45.6903 145.957 45.8395 145.46 46.1378C144.97 46.4295 144.585 46.8239 144.307 47.321C144.028 47.8116 143.886 48.3584 143.879 48.9616V51.4574C143.879 52.2131 144.018 52.866 144.297 53.4162C144.582 53.9664 144.983 54.3906 145.5 54.6889C146.017 54.9872 146.63 55.1364 147.339 55.1364C147.81 55.1364 148.241 55.0701 148.632 54.9375C149.023 54.8049 149.358 54.6061 149.636 54.3409C149.915 54.0758 150.127 53.7509 150.273 53.3665L154.19 53.625C153.991 54.5663 153.584 55.3883 152.967 56.0909C152.357 56.7869 151.568 57.3305 150.601 57.7216C149.64 58.1061 148.529 58.2983 147.27 58.2983Z" fill="black"/>
</g>
<defs>
<filter id="filter0_d_210_580" x="54.0584" y="0.35791" width="137.221" height="94.9404" filterUnits="userSpaceOnUse" color-interpolation-filters="sRGB">
<feFlood flood-opacity="0" result="BackgroundImageFix"/>
<feColorMatrix in="SourceAlpha" type="matrix" values="0 0 0 0 0 0 0 0 0 0 0 0 0 0 0 0 0 0 127 0" result="hardAlpha"/>
<feOffset/>
<feGaussianBlur stdDeviation="18.5"/>
<feComposite in2="hardAlpha" operator="out"/>
<feColorMatrix type="matrix" values="0 0 0 0 1 0 0 0 0 1 0 0 0 0 1 0 0 0 1 0"/>
<feBlend mode="normal" in2="BackgroundImageFix" result="effect1_dropShadow_210_580"/>
<feBlend mode="normal" in="SourceGraphic" in2="effect1_dropShadow_210_580" result="shape"/>
</filter>
</defs>
</svg>
