<svg width="1131" height="312" viewBox="0 0 1131 312" fill="none" xmlns="http://www.w3.org/2000/svg">
<rect width="1131" height="291" transform="translate(0 11)" fill="white"/>
<g opacity="0.25">
<path d="M276 231L266 226.226L266 237.774L276 233L276 231ZM1096 232L1086 226.227L1086 237.774L1096 232ZM275 233L1087 233L1087 231L275 231L275 233Z" fill="black"/>
<g opacity="0.5">
<line x1="266.5" y1="29.5745" x2="266.5" y2="246.947" stroke="black" stroke-dasharray="2 2"/>
</g>
<g filter="url(#filter0_d_128_657)">
<path d="M272.56 265.215C272.987 265.175 273.407 265.189 273.82 265.255C274.727 265.389 275.453 265.722 276 266.255C276.28 266.549 276.493 266.855 276.64 267.175C276.973 267.829 277.16 268.689 277.2 269.755C277.24 271.515 276.84 272.815 276 273.655C275.48 274.175 274.733 274.509 273.76 274.655C273.333 274.709 272.847 274.709 272.3 274.655C272.273 274.655 272.247 274.655 272.22 274.655C271.247 274.509 270.5 274.175 269.98 273.655C269.14 272.815 268.74 271.515 268.78 269.755C268.793 269.155 268.853 268.655 268.96 268.255C269.093 267.669 269.313 267.149 269.62 266.695C269.82 266.389 270.093 266.115 270.44 265.875C271.027 265.489 271.733 265.269 272.56 265.215ZM273.38 266.155C272.473 266.049 271.793 266.235 271.34 266.715C271.127 266.929 271 267.335 270.96 267.935C270.947 267.975 270.94 268.022 270.94 268.075C270.9 268.555 270.893 269.575 270.92 271.135C270.92 271.375 270.927 271.535 270.94 271.615C270.98 272.269 271.053 272.689 271.16 272.875C271.387 273.315 271.813 273.595 272.44 273.715C272.733 273.769 273.1 273.769 273.54 273.715C274.167 273.595 274.593 273.315 274.82 272.875C274.927 272.689 275 272.269 275.04 271.615C275.08 271.082 275.087 270.055 275.06 268.535C275.06 268.309 275.053 268.155 275.04 268.075C274.987 267.395 274.853 266.942 274.64 266.715C274.36 266.409 273.94 266.222 273.38 266.155Z" fill="black"/>
</g>
<path d="M263.45 252.633C263.75 252.553 264.03 252.573 264.29 252.693C264.59 252.793 264.79 252.983 264.89 253.263C264.97 253.503 264.91 254.003 264.71 254.763C264.65 255.023 264.54 255.473 264.38 256.113C264.02 257.613 263.83 258.373 263.81 258.393C263.81 258.433 264.29 258.453 265.25 258.453H266.69L266.78 258.543C266.9 258.623 266.9 258.883 266.78 259.323C266.72 259.623 266.66 259.833 266.6 259.953C266.54 260.053 266.34 260.113 266 260.133C265.84 260.133 265.47 260.133 264.89 260.133H263.39L263.36 260.253C263.36 260.313 263.01 261.703 262.31 264.423C261.67 266.983 261.32 268.443 261.26 268.803C261.18 269.243 261.19 269.603 261.29 269.883C261.43 270.223 261.76 270.353 262.28 270.273C263.14 270.093 263.91 269.483 264.59 268.443C264.93 267.923 265.15 267.503 265.25 267.183C265.35 266.963 265.46 266.843 265.58 266.823C265.66 266.803 265.83 266.793 266.09 266.793C266.47 266.793 266.69 266.813 266.75 266.853C266.87 266.973 266.84 267.213 266.66 267.573C266.16 268.653 265.54 269.553 264.8 270.273C264.38 270.693 263.96 271.003 263.54 271.203C263.22 271.383 262.87 271.523 262.49 271.623C262.31 271.663 262.03 271.683 261.65 271.683C261.27 271.683 260.97 271.653 260.75 271.593C260.03 271.413 259.47 271.073 259.07 270.573C258.81 270.213 258.65 269.843 258.59 269.463C258.55 269.303 258.53 269.073 258.53 268.773L258.56 268.353L259.58 264.273C260.26 261.593 260.6 260.223 260.6 260.163C260.6 260.143 260.12 260.133 259.16 260.133C258.16 260.133 257.62 260.063 257.54 259.923C257.5 259.863 257.52 259.643 257.6 259.263C257.72 258.863 257.79 258.653 257.81 258.633C257.87 258.533 258.07 258.473 258.41 258.453C258.57 258.453 258.94 258.453 259.52 258.453H261.05L261.62 256.083C262.04 254.383 262.32 253.453 262.46 253.293C262.5 253.253 262.56 253.193 262.64 253.113C262.86 252.893 263.13 252.733 263.45 252.633Z" fill="black"/>
<g opacity="0.5">
<line x1="662.5" y1="29.5745" x2="662.5" y2="246.947" stroke="black" stroke-dasharray="2 2"/>
</g>
<g filter="url(#filter1_d_128_657)">
<path d="M668.56 265.215C668.987 265.175 669.407 265.189 669.82 265.255C670.727 265.389 671.453 265.722 672 266.255C672.28 266.549 672.493 266.855 672.64 267.175C672.973 267.829 673.16 268.689 673.2 269.755C673.24 271.515 672.84 272.815 672 273.655C671.48 274.175 670.733 274.509 669.76 274.655C669.333 274.709 668.847 274.709 668.3 274.655C668.273 274.655 668.247 274.655 668.22 274.655C667.247 274.509 666.5 274.175 665.98 273.655C665.14 272.815 664.74 271.515 664.78 269.755C664.793 269.155 664.853 268.655 664.96 268.255C665.093 267.669 665.313 267.149 665.62 266.695C665.82 266.389 666.093 266.115 666.44 265.875C667.027 265.489 667.733 265.269 668.56 265.215ZM669.38 266.155C668.473 266.049 667.793 266.235 667.34 266.715C667.127 266.929 667 267.335 666.96 267.935C666.947 267.975 666.94 268.022 666.94 268.075C666.9 268.555 666.893 269.575 666.92 271.135C666.92 271.375 666.927 271.535 666.94 271.615C666.98 272.269 667.053 272.689 667.16 272.875C667.387 273.315 667.813 273.595 668.44 273.715C668.733 273.769 669.1 273.769 669.54 273.715C670.167 273.595 670.593 273.315 670.82 272.875C670.927 272.689 671 272.269 671.04 271.615C671.08 271.082 671.087 270.055 671.06 268.535C671.06 268.309 671.053 268.155 671.04 268.075C670.987 267.395 670.853 266.942 670.64 266.715C670.36 266.409 669.94 266.222 669.38 266.155Z" fill="black"/>
</g>
<path d="M659.45 252.633C659.75 252.553 660.03 252.573 660.29 252.693C660.59 252.793 660.79 252.983 660.89 253.263C660.97 253.503 660.91 254.003 660.71 254.763C660.65 255.023 660.54 255.473 660.38 256.113C660.02 257.613 659.83 258.373 659.81 258.393C659.81 258.433 660.29 258.453 661.25 258.453H662.69L662.78 258.543C662.9 258.623 662.9 258.883 662.78 259.323C662.72 259.623 662.66 259.833 662.6 259.953C662.54 260.053 662.34 260.113 662 260.133C661.84 260.133 661.47 260.133 660.89 260.133H659.39L659.36 260.253C659.36 260.313 659.01 261.703 658.31 264.423C657.67 266.983 657.32 268.443 657.26 268.803C657.18 269.243 657.19 269.603 657.29 269.883C657.43 270.223 657.76 270.353 658.28 270.273C659.14 270.093 659.91 269.483 660.59 268.443C660.93 267.923 661.15 267.503 661.25 267.183C661.35 266.963 661.46 266.843 661.58 266.823C661.66 266.803 661.83 266.793 662.09 266.793C662.47 266.793 662.69 266.813 662.75 266.853C662.87 266.973 662.84 267.213 662.66 267.573C662.16 268.653 661.54 269.553 660.8 270.273C660.38 270.693 659.96 271.003 659.54 271.203C659.22 271.383 658.87 271.523 658.49 271.623C658.31 271.663 658.03 271.683 657.65 271.683C657.27 271.683 656.97 271.653 656.75 271.593C656.03 271.413 655.47 271.073 655.07 270.573C654.81 270.213 654.65 269.843 654.59 269.463C654.55 269.303 654.53 269.073 654.53 268.773L654.56 268.353L655.58 264.273C656.26 261.593 656.6 260.223 656.6 260.163C656.6 260.143 656.12 260.133 655.16 260.133C654.16 260.133 653.62 260.063 653.54 259.923C653.5 259.863 653.52 259.643 653.6 259.263C653.72 258.863 653.79 258.653 653.81 258.633C653.87 258.533 654.07 258.473 654.41 258.453C654.57 258.453 654.94 258.453 655.52 258.453H657.05L657.62 256.083C658.04 254.383 658.32 253.453 658.46 253.293C658.5 253.253 658.56 253.193 658.64 253.113C658.86 252.893 659.13 252.733 659.45 252.633Z" fill="black"/>
<g filter="url(#filter2_d_128_657)">
<path d="M679.888 267.377V263.537H683.704V262.553H679.888V258.737H678.88V262.553H675.064V263.537H678.88V267.377H679.888ZM690.999 257.753C691.447 257.721 692.023 257.729 692.727 257.777C694.775 258.049 696.063 258.865 696.591 260.225C696.687 260.449 696.751 260.681 696.783 260.921C696.831 261.305 696.815 261.657 696.735 261.977C696.639 262.313 696.487 262.617 696.279 262.889C695.895 263.353 695.055 263.865 693.759 264.425C693.231 264.649 692.431 265.065 691.359 265.673L690.159 266.369H692.487C694.151 266.337 694.991 266.321 695.007 266.321L695.199 266.297L695.271 266.177C695.367 266.017 695.455 265.729 695.535 265.313C695.599 265.025 695.671 264.865 695.751 264.833C695.815 264.817 695.967 264.809 696.207 264.809H696.639L696.711 264.881C696.727 264.897 696.759 264.945 696.807 265.025L696.471 266.753C696.231 267.857 696.111 268.417 696.111 268.433C696.111 268.481 696.079 268.521 696.015 268.553L695.967 268.601H691.623C688.695 268.601 687.199 268.553 687.135 268.457C687.055 268.361 687.039 268.049 687.087 267.521C687.087 267.441 687.095 267.393 687.111 267.377C687.127 267.329 687.791 266.873 689.103 266.009L691.623 264.377C692.423 263.849 692.983 263.425 693.303 263.105C693.831 262.577 694.095 262.001 694.095 261.377C694.095 260.961 693.975 260.585 693.735 260.249C693.159 259.481 692.135 259.097 690.663 259.097C690.327 259.097 690.103 259.113 689.991 259.145C689.703 259.225 689.503 259.305 689.391 259.385L689.247 259.457L689.391 259.601C689.791 259.953 689.895 260.393 689.703 260.921C689.687 260.969 689.663 261.025 689.631 261.089C689.551 261.281 689.383 261.441 689.127 261.569C688.759 261.761 688.383 261.761 687.999 261.569C687.679 261.409 687.471 261.145 687.375 260.777C687.311 260.553 687.327 260.265 687.423 259.913C687.519 259.577 687.647 259.321 687.807 259.145C688.383 258.377 689.447 257.913 690.999 257.753Z" fill="black"/>
</g>
<g opacity="0.5">
<line x1="1058.5" y1="29.5745" x2="1058.5" y2="246.947" stroke="black" stroke-dasharray="2 2"/>
</g>
<g filter="url(#filter3_d_128_657)">
<path d="M1064.56 265.215C1064.99 265.175 1065.41 265.189 1065.82 265.255C1066.73 265.389 1067.45 265.722 1068 266.255C1068.28 266.549 1068.49 266.855 1068.64 267.175C1068.97 267.829 1069.16 268.689 1069.2 269.755C1069.24 271.515 1068.84 272.815 1068 273.655C1067.48 274.175 1066.73 274.509 1065.76 274.655C1065.33 274.709 1064.85 274.709 1064.3 274.655C1064.27 274.655 1064.25 274.655 1064.22 274.655C1063.25 274.509 1062.5 274.175 1061.98 273.655C1061.14 272.815 1060.74 271.515 1060.78 269.755C1060.79 269.155 1060.85 268.655 1060.96 268.255C1061.09 267.669 1061.31 267.149 1061.62 266.695C1061.82 266.389 1062.09 266.115 1062.44 265.875C1063.03 265.489 1063.73 265.269 1064.56 265.215ZM1065.38 266.155C1064.47 266.049 1063.79 266.235 1063.34 266.715C1063.13 266.929 1063 267.335 1062.96 267.935C1062.95 267.975 1062.94 268.022 1062.94 268.075C1062.9 268.555 1062.89 269.575 1062.92 271.135C1062.92 271.375 1062.93 271.535 1062.94 271.615C1062.98 272.269 1063.05 272.689 1063.16 272.875C1063.39 273.315 1063.81 273.595 1064.44 273.715C1064.73 273.769 1065.1 273.769 1065.54 273.715C1066.17 273.595 1066.59 273.315 1066.82 272.875C1066.93 272.689 1067 272.269 1067.04 271.615C1067.08 271.082 1067.09 270.055 1067.06 268.535C1067.06 268.309 1067.05 268.155 1067.04 268.075C1066.99 267.395 1066.85 266.942 1066.64 266.715C1066.36 266.409 1065.94 266.222 1065.38 266.155Z" fill="black"/>
</g>
<path d="M1055.45 252.633C1055.75 252.553 1056.03 252.573 1056.29 252.693C1056.59 252.793 1056.79 252.983 1056.89 253.263C1056.97 253.503 1056.91 254.003 1056.71 254.763C1056.65 255.023 1056.54 255.473 1056.38 256.113C1056.02 257.613 1055.83 258.373 1055.81 258.393C1055.81 258.433 1056.29 258.453 1057.25 258.453H1058.69L1058.78 258.543C1058.9 258.623 1058.9 258.883 1058.78 259.323C1058.72 259.623 1058.66 259.833 1058.6 259.953C1058.54 260.053 1058.34 260.113 1058 260.133C1057.84 260.133 1057.47 260.133 1056.89 260.133H1055.39L1055.36 260.253C1055.36 260.313 1055.01 261.703 1054.31 264.423C1053.67 266.983 1053.32 268.443 1053.26 268.803C1053.18 269.243 1053.19 269.603 1053.29 269.883C1053.43 270.223 1053.76 270.353 1054.28 270.273C1055.14 270.093 1055.91 269.483 1056.59 268.443C1056.93 267.923 1057.15 267.503 1057.25 267.183C1057.35 266.963 1057.46 266.843 1057.58 266.823C1057.66 266.803 1057.83 266.793 1058.09 266.793C1058.47 266.793 1058.69 266.813 1058.75 266.853C1058.87 266.973 1058.84 267.213 1058.66 267.573C1058.16 268.653 1057.54 269.553 1056.8 270.273C1056.38 270.693 1055.96 271.003 1055.54 271.203C1055.22 271.383 1054.87 271.523 1054.49 271.623C1054.31 271.663 1054.03 271.683 1053.65 271.683C1053.27 271.683 1052.97 271.653 1052.75 271.593C1052.03 271.413 1051.47 271.073 1051.07 270.573C1050.81 270.213 1050.65 269.843 1050.59 269.463C1050.55 269.303 1050.53 269.073 1050.53 268.773L1050.56 268.353L1051.58 264.273C1052.26 261.593 1052.6 260.223 1052.6 260.163C1052.6 260.143 1052.12 260.133 1051.16 260.133C1050.16 260.133 1049.62 260.063 1049.54 259.923C1049.5 259.863 1049.52 259.643 1049.6 259.263C1049.72 258.863 1049.79 258.653 1049.81 258.633C1049.87 258.533 1050.07 258.473 1050.41 258.453C1050.57 258.453 1050.94 258.453 1051.52 258.453H1053.05L1053.62 256.083C1054.04 254.383 1054.32 253.453 1054.46 253.293C1054.5 253.253 1054.56 253.193 1054.64 253.113C1054.86 252.893 1055.13 252.733 1055.45 252.633Z" fill="black"/>
<g filter="url(#filter4_d_128_657)">
<path d="M1075.89 267.377V263.537H1079.7V262.553H1075.89V258.737H1074.88V262.553H1071.06V263.537H1074.88V267.377H1075.89ZM1089.78 257.513C1089.83 257.481 1090.06 257.465 1090.46 257.465H1091.06L1091.13 257.537L1091.2 257.609V262.433V267.257H1092.18H1093.17L1093.24 267.329L1093.34 267.401V267.929V268.457L1093.24 268.529L1093.17 268.601H1092.18H1091.2V270.161C1091.2 271.201 1091.21 271.729 1091.22 271.745C1091.26 271.841 1091.66 271.897 1092.45 271.913H1093.19L1093.26 272.009L1093.34 272.081V272.585V273.089L1093.24 273.185L1093.17 273.257H1092.9L1091.32 273.209C1090.44 273.193 1089.54 273.193 1088.63 273.209L1086.98 273.257H1086.69L1086.62 273.185L1086.54 273.113V272.585V272.057L1086.62 271.985L1086.69 271.913H1087.19C1087.96 271.913 1088.44 271.889 1088.63 271.841C1088.73 271.809 1088.78 271.777 1088.8 271.745C1088.83 271.713 1088.85 271.177 1088.85 270.137V268.601H1085.87C1083.86 268.601 1082.82 268.553 1082.75 268.457C1082.72 268.425 1082.7 268.217 1082.7 267.833V267.257L1082.87 267.017C1082.78 267.161 1083.94 265.537 1086.38 262.145C1088.6 259.089 1089.74 257.545 1089.78 257.513ZM1088.99 267.257V263.897V260.537L1086.57 263.897L1084.14 267.233L1086.57 267.257H1088.99Z" fill="black"/>
</g>
<g opacity="0.5">
<line x1="464.5" y1="29.5745" x2="464.5" y2="246.947" stroke="black" stroke-dasharray="2 2"/>
</g>
<g filter="url(#filter5_d_128_657)">
<path d="M470.56 265.215C470.987 265.175 471.407 265.189 471.82 265.255C472.727 265.389 473.453 265.722 474 266.255C474.28 266.549 474.493 266.855 474.64 267.175C474.973 267.829 475.16 268.689 475.2 269.755C475.24 271.515 474.84 272.815 474 273.655C473.48 274.175 472.733 274.509 471.76 274.655C471.333 274.709 470.847 274.709 470.3 274.655C470.273 274.655 470.247 274.655 470.22 274.655C469.247 274.509 468.5 274.175 467.98 273.655C467.14 272.815 466.74 271.515 466.78 269.755C466.793 269.155 466.853 268.655 466.96 268.255C467.093 267.669 467.313 267.149 467.62 266.695C467.82 266.389 468.093 266.115 468.44 265.875C469.027 265.489 469.733 265.269 470.56 265.215ZM471.38 266.155C470.473 266.049 469.793 266.235 469.34 266.715C469.127 266.929 469 267.335 468.96 267.935C468.947 267.975 468.94 268.022 468.94 268.075C468.9 268.555 468.893 269.575 468.92 271.135C468.92 271.375 468.927 271.535 468.94 271.615C468.98 272.269 469.053 272.689 469.16 272.875C469.387 273.315 469.813 273.595 470.44 273.715C470.733 273.769 471.1 273.769 471.54 273.715C472.167 273.595 472.593 273.315 472.82 272.875C472.927 272.689 473 272.269 473.04 271.615C473.08 271.082 473.087 270.055 473.06 268.535C473.06 268.309 473.053 268.155 473.04 268.075C472.987 267.395 472.853 266.942 472.64 266.715C472.36 266.409 471.94 266.222 471.38 266.155Z" fill="black"/>
</g>
<path d="M461.45 252.633C461.75 252.553 462.03 252.573 462.29 252.693C462.59 252.793 462.79 252.983 462.89 253.263C462.97 253.503 462.91 254.003 462.71 254.763C462.65 255.023 462.54 255.473 462.38 256.113C462.02 257.613 461.83 258.373 461.81 258.393C461.81 258.433 462.29 258.453 463.25 258.453H464.69L464.78 258.543C464.9 258.623 464.9 258.883 464.78 259.323C464.72 259.623 464.66 259.833 464.6 259.953C464.54 260.053 464.34 260.113 464 260.133C463.84 260.133 463.47 260.133 462.89 260.133H461.39L461.36 260.253C461.36 260.313 461.01 261.703 460.31 264.423C459.67 266.983 459.32 268.443 459.26 268.803C459.18 269.243 459.19 269.603 459.29 269.883C459.43 270.223 459.76 270.353 460.28 270.273C461.14 270.093 461.91 269.483 462.59 268.443C462.93 267.923 463.15 267.503 463.25 267.183C463.35 266.963 463.46 266.843 463.58 266.823C463.66 266.803 463.83 266.793 464.09 266.793C464.47 266.793 464.69 266.813 464.75 266.853C464.87 266.973 464.84 267.213 464.66 267.573C464.16 268.653 463.54 269.553 462.8 270.273C462.38 270.693 461.96 271.003 461.54 271.203C461.22 271.383 460.87 271.523 460.49 271.623C460.31 271.663 460.03 271.683 459.65 271.683C459.27 271.683 458.97 271.653 458.75 271.593C458.03 271.413 457.47 271.073 457.07 270.573C456.81 270.213 456.65 269.843 456.59 269.463C456.55 269.303 456.53 269.073 456.53 268.773L456.56 268.353L457.58 264.273C458.26 261.593 458.6 260.223 458.6 260.163C458.6 260.143 458.12 260.133 457.16 260.133C456.16 260.133 455.62 260.063 455.54 259.923C455.5 259.863 455.52 259.643 455.6 259.263C455.72 258.863 455.79 258.653 455.81 258.633C455.87 258.533 456.07 258.473 456.41 258.453C456.57 258.453 456.94 258.453 457.52 258.453H459.05L459.62 256.083C460.04 254.383 460.32 253.453 460.46 253.293C460.5 253.253 460.56 253.193 460.64 253.113C460.86 252.893 461.13 252.733 461.45 252.633Z" fill="black"/>
<g filter="url(#filter6_d_128_657)">
<path d="M481.888 267.377V263.537H485.704V262.553H481.888V258.737H480.88V262.553H477.064V263.537H480.88V267.377H481.888ZM494.751 257.801C494.847 257.753 494.943 257.729 495.039 257.729C495.151 257.729 495.231 257.753 495.279 257.801L495.375 257.873V262.457C495.375 265.513 495.391 267.049 495.423 267.065C495.503 267.177 496.095 267.241 497.199 267.257C497.887 267.257 498.263 267.313 498.327 267.425C498.375 267.537 498.383 267.825 498.351 268.289C498.351 268.369 498.343 268.417 498.327 268.433C498.279 268.529 498.135 268.577 497.895 268.577C497.783 268.577 497.567 268.577 497.247 268.577C495.871 268.513 494.039 268.505 491.751 268.553C491.527 268.569 491.343 268.577 491.199 268.577C490.559 268.593 490.207 268.553 490.143 268.457C490.063 268.361 490.047 268.065 490.095 267.569C490.111 267.473 490.127 267.417 490.143 267.401C490.175 267.305 490.327 267.257 490.599 267.257C490.711 267.257 490.935 267.257 491.271 267.257C492.343 267.241 492.935 267.177 493.047 267.065C493.079 267.049 493.095 265.841 493.095 263.441V259.865H493.023C492.239 260.009 491.495 260.089 490.791 260.105H490.143L490.071 260.033L489.975 259.937V259.433V258.929L490.047 258.857L490.119 258.761H490.743C492.519 258.713 493.855 258.393 494.751 257.801Z" fill="black"/>
</g>
<g opacity="0.5">
<line x1="860.5" y1="29.5745" x2="860.5" y2="246.947" stroke="black" stroke-dasharray="2 2"/>
</g>
<g filter="url(#filter7_d_128_657)">
<path d="M866.56 265.215C866.987 265.175 867.407 265.189 867.82 265.255C868.727 265.389 869.453 265.722 870 266.255C870.28 266.549 870.493 266.855 870.64 267.175C870.973 267.829 871.16 268.689 871.2 269.755C871.24 271.515 870.84 272.815 870 273.655C869.48 274.175 868.733 274.509 867.76 274.655C867.333 274.709 866.847 274.709 866.3 274.655C866.273 274.655 866.247 274.655 866.22 274.655C865.247 274.509 864.5 274.175 863.98 273.655C863.14 272.815 862.74 271.515 862.78 269.755C862.793 269.155 862.853 268.655 862.96 268.255C863.093 267.669 863.313 267.149 863.62 266.695C863.82 266.389 864.093 266.115 864.44 265.875C865.027 265.489 865.733 265.269 866.56 265.215ZM867.38 266.155C866.473 266.049 865.793 266.235 865.34 266.715C865.127 266.929 865 267.335 864.96 267.935C864.947 267.975 864.94 268.022 864.94 268.075C864.9 268.555 864.893 269.575 864.92 271.135C864.92 271.375 864.927 271.535 864.94 271.615C864.98 272.269 865.053 272.689 865.16 272.875C865.387 273.315 865.813 273.595 866.44 273.715C866.733 273.769 867.1 273.769 867.54 273.715C868.167 273.595 868.593 273.315 868.82 272.875C868.927 272.689 869 272.269 869.04 271.615C869.08 271.082 869.087 270.055 869.06 268.535C869.06 268.309 869.053 268.155 869.04 268.075C868.987 267.395 868.853 266.942 868.64 266.715C868.36 266.409 867.94 266.222 867.38 266.155Z" fill="black"/>
</g>
<path d="M857.45 252.633C857.75 252.553 858.03 252.573 858.29 252.693C858.59 252.793 858.79 252.983 858.89 253.263C858.97 253.503 858.91 254.003 858.71 254.763C858.65 255.023 858.54 255.473 858.38 256.113C858.02 257.613 857.83 258.373 857.81 258.393C857.81 258.433 858.29 258.453 859.25 258.453H860.69L860.78 258.543C860.9 258.623 860.9 258.883 860.78 259.323C860.72 259.623 860.66 259.833 860.6 259.953C860.54 260.053 860.34 260.113 860 260.133C859.84 260.133 859.47 260.133 858.89 260.133H857.39L857.36 260.253C857.36 260.313 857.01 261.703 856.31 264.423C855.67 266.983 855.32 268.443 855.26 268.803C855.18 269.243 855.19 269.603 855.29 269.883C855.43 270.223 855.76 270.353 856.28 270.273C857.14 270.093 857.91 269.483 858.59 268.443C858.93 267.923 859.15 267.503 859.25 267.183C859.35 266.963 859.46 266.843 859.58 266.823C859.66 266.803 859.83 266.793 860.09 266.793C860.47 266.793 860.69 266.813 860.75 266.853C860.87 266.973 860.84 267.213 860.66 267.573C860.16 268.653 859.54 269.553 858.8 270.273C858.38 270.693 857.96 271.003 857.54 271.203C857.22 271.383 856.87 271.523 856.49 271.623C856.31 271.663 856.03 271.683 855.65 271.683C855.27 271.683 854.97 271.653 854.75 271.593C854.03 271.413 853.47 271.073 853.07 270.573C852.81 270.213 852.65 269.843 852.59 269.463C852.55 269.303 852.53 269.073 852.53 268.773L852.56 268.353L853.58 264.273C854.26 261.593 854.6 260.223 854.6 260.163C854.6 260.143 854.12 260.133 853.16 260.133C852.16 260.133 851.62 260.063 851.54 259.923C851.5 259.863 851.52 259.643 851.6 259.263C851.72 258.863 851.79 258.653 851.81 258.633C851.87 258.533 852.07 258.473 852.41 258.453C852.57 258.453 852.94 258.453 853.52 258.453H855.05L855.62 256.083C856.04 254.383 856.32 253.453 856.46 253.293C856.5 253.253 856.56 253.193 856.64 253.113C856.86 252.893 857.13 252.733 857.45 252.633Z" fill="black"/>
<g filter="url(#filter8_d_128_657)">
<path d="M877.888 267.377V263.537H881.704V262.553H877.888V258.737H876.88V262.553H873.064V263.537H876.88V267.377H877.888ZM889.263 257.753C889.599 257.721 890.063 257.729 890.655 257.777C891.807 257.953 892.751 258.409 893.487 259.145C894.079 259.785 894.367 260.521 894.351 261.353C894.303 262.217 893.983 263.009 893.391 263.729C892.943 264.273 892.375 264.705 891.687 265.025C891.527 265.121 891.439 265.169 891.423 265.169C891.423 265.185 891.447 265.201 891.495 265.217C891.847 265.265 892.287 265.441 892.815 265.745C893.999 266.417 894.711 267.337 894.951 268.505C895.015 268.873 895.015 269.305 894.951 269.801C894.759 270.793 894.311 271.617 893.607 272.273C893.239 272.641 892.815 272.945 892.335 273.185C891.711 273.505 891.031 273.697 890.295 273.761C889.831 273.825 889.359 273.809 888.879 273.713C887.807 273.569 886.903 273.193 886.167 272.585C885.463 271.977 885.087 271.225 885.039 270.329C885.039 269.977 885.095 269.681 885.207 269.441C885.415 269.057 885.751 268.801 886.215 268.673C886.423 268.609 886.687 268.609 887.007 268.673C887.631 268.849 888.007 269.241 888.135 269.849C888.151 269.961 888.159 270.073 888.159 270.185C888.159 270.857 887.887 271.321 887.343 271.577C887.215 271.625 887.151 271.665 887.151 271.697C887.199 271.793 887.399 271.921 887.751 272.081C888.295 272.353 888.951 272.489 889.719 272.489C890.007 272.489 890.215 272.473 890.343 272.441C891.271 272.137 891.815 271.449 891.975 270.377C892.119 269.529 892.119 268.681 891.975 267.833C891.799 266.905 891.359 266.273 890.655 265.937C890.399 265.809 890.023 265.737 889.527 265.721C889.447 265.721 889.311 265.721 889.119 265.721L888.135 265.697L888.063 265.649C888.031 265.601 888.015 265.441 888.015 265.169C888.015 264.833 888.055 264.649 888.135 264.617L888.855 264.545C889.399 264.513 889.751 264.465 889.911 264.401C890.743 264.113 891.279 263.385 891.519 262.217C891.599 261.865 891.639 261.497 891.639 261.113C891.639 260.569 891.559 260.137 891.399 259.817C891.351 259.689 891.263 259.561 891.135 259.433C890.703 259.017 890.119 258.857 889.383 258.953C888.711 259.017 888.143 259.249 887.679 259.649C887.519 259.761 887.487 259.817 887.583 259.817C887.727 259.817 887.935 259.937 888.207 260.177C888.607 260.577 888.719 261.073 888.543 261.665C888.511 261.761 888.471 261.857 888.423 261.953C888.199 262.433 887.775 262.673 887.151 262.673C886.895 262.673 886.655 262.617 886.431 262.505C886.159 262.361 885.967 262.169 885.855 261.929C885.743 261.705 885.687 261.417 885.687 261.065C885.735 260.457 885.919 259.921 886.239 259.457C886.479 259.089 886.799 258.769 887.199 258.497C887.791 258.097 888.479 257.849 889.263 257.753Z" fill="black"/>
</g>
</g>
<rect x="26" y="103" width="241" height="73" rx="5" fill="white"/>
<rect x="26.5" y="103.5" width="240" height="72" rx="4.5" stroke="black" stroke-opacity="0.15" stroke-dasharray="12 12"/>
<path d="M44.6903 148V132.424H39.8903V130.456H51.6503V132.424H46.8503V148H44.6903ZM55.6249 148V134.8H57.7369V137.32H58.2409L57.5449 138.88C57.5449 137.456 57.8489 136.384 58.4569 135.664C59.0809 134.928 60.0009 134.56 61.2169 134.56C62.6089 134.56 63.7129 135 64.5289 135.88C65.3609 136.744 65.7769 137.92 65.7769 139.408V140.2H63.6169V139.6C63.6169 138.56 63.3609 137.768 62.8489 137.224C62.3529 136.664 61.6409 136.384 60.7129 136.384C59.8009 136.384 59.0809 136.664 58.5529 137.224C58.0409 137.784 57.7849 138.576 57.7849 139.6V148H55.6249ZM73.3996 148.24C72.0076 148.24 70.9116 147.888 70.1116 147.184C69.3116 146.464 68.9116 145.496 68.9116 144.28C68.9116 143.048 69.3116 142.08 70.1116 141.376C70.9116 140.672 71.9916 140.32 73.3516 140.32H77.4316V139C77.4316 138.184 77.1836 137.56 76.6876 137.128C76.2076 136.68 75.5196 136.456 74.6236 136.456C73.8396 136.456 73.1836 136.624 72.6556 136.96C72.1276 137.28 71.8236 137.72 71.7436 138.28H69.5836C69.7276 137.144 70.2636 136.24 71.1916 135.568C72.1196 134.896 73.2796 134.56 74.6716 134.56C76.1916 134.56 77.3916 134.952 78.2716 135.736C79.1516 136.52 79.5916 137.584 79.5916 138.928V148H77.4796V145.48H77.1196L77.4796 145.12C77.4796 146.08 77.1036 146.84 76.3516 147.4C75.6156 147.96 74.6316 148.24 73.3996 148.24ZM73.9276 146.536C74.9516 146.536 75.7916 146.28 76.4476 145.768C77.1036 145.256 77.4316 144.6 77.4316 143.8V141.928H73.3996C72.6796 141.928 72.1116 142.128 71.6956 142.528C71.2796 142.928 71.0716 143.472 71.0716 144.16C71.0716 144.896 71.3196 145.48 71.8156 145.912C72.3276 146.328 73.0316 146.536 73.9276 146.536ZM83.7822 148V146.032H88.4622V136.768H84.3822V134.8H90.6222V146.032H95.0622V148H83.7822ZM89.3022 132.424C88.7742 132.424 88.3582 132.288 88.0542 132.016C87.7502 131.744 87.5982 131.376 87.5982 130.912C87.5982 130.432 87.7502 130.056 88.0542 129.784C88.3582 129.496 88.7742 129.352 89.3022 129.352C89.8302 129.352 90.2462 129.496 90.5502 129.784C90.8542 130.056 91.0062 130.432 91.0062 130.912C91.0062 131.376 90.8542 131.744 90.5502 132.016C90.2462 132.288 89.8302 132.424 89.3022 132.424ZM98.3408 148V134.8H100.501V137.32H100.957L100.501 137.824C100.501 136.784 100.813 135.984 101.437 135.424C102.061 134.848 102.925 134.56 104.029 134.56C105.357 134.56 106.413 134.968 107.197 135.784C107.981 136.6 108.373 137.712 108.373 139.12V148H106.213V139.36C106.213 138.416 105.957 137.696 105.445 137.2C104.949 136.688 104.269 136.432 103.405 136.432C102.509 136.432 101.797 136.704 101.269 137.248C100.757 137.792 100.501 138.576 100.501 139.6V148H98.3408ZM112.563 148V146.032H117.243V136.768H113.163V134.8H119.403V146.032H123.843V148H112.563ZM118.083 132.424C117.555 132.424 117.139 132.288 116.835 132.016C116.531 131.744 116.379 131.376 116.379 130.912C116.379 130.432 116.531 130.056 116.835 129.784C117.139 129.496 117.555 129.352 118.083 129.352C118.611 129.352 119.027 129.496 119.331 129.784C119.635 130.056 119.787 130.432 119.787 130.912C119.787 131.376 119.635 131.744 119.331 132.016C119.027 132.288 118.611 132.424 118.083 132.424ZM127.122 148V134.8H129.282V137.32H129.738L129.282 137.824C129.282 136.784 129.594 135.984 130.218 135.424C130.842 134.848 131.706 134.56 132.81 134.56C134.138 134.56 135.194 134.968 135.978 135.784C136.762 136.6 137.154 137.712 137.154 139.12V148H134.994V139.36C134.994 138.416 134.738 137.696 134.226 137.2C133.73 136.688 133.05 136.432 132.186 136.432C131.29 136.432 130.578 136.704 130.05 137.248C129.538 137.792 129.282 138.576 129.282 139.6V148H127.122ZM143.169 152.32V150.352H147.369C148.041 150.352 148.529 150.2 148.833 149.896C149.153 149.592 149.313 149.12 149.313 148.48V146.8L149.361 144.4H148.929L149.337 144.04C149.337 145 149.017 145.76 148.377 146.32C147.737 146.88 146.881 147.16 145.809 147.16C144.449 147.16 143.377 146.72 142.593 145.84C141.809 144.944 141.417 143.744 141.417 142.24V139.456C141.417 137.952 141.809 136.76 142.593 135.88C143.377 135 144.449 134.56 145.809 134.56C146.881 134.56 147.737 134.84 148.377 135.4C149.017 135.96 149.337 136.72 149.337 137.68L148.929 137.32H149.337V134.8H151.473V148.48C151.473 149.664 151.105 150.6 150.369 151.288C149.649 151.976 148.641 152.32 147.345 152.32H143.169ZM146.457 145.288C147.353 145.288 148.057 145.008 148.569 144.448C149.081 143.888 149.337 143.112 149.337 142.12V139.6C149.337 138.608 149.081 137.832 148.569 137.272C148.057 136.712 147.353 136.432 146.457 136.432C145.545 136.432 144.833 136.704 144.321 137.248C143.825 137.792 143.577 138.576 143.577 139.6V142.12C143.577 143.144 143.825 143.928 144.321 144.472C144.833 145.016 145.545 145.288 146.457 145.288ZM170.294 152.32V134.8H172.454V137.32H172.886L172.454 137.824C172.454 136.816 172.782 136.024 173.438 135.448C174.11 134.856 174.99 134.56 176.078 134.56C177.406 134.56 178.462 135 179.246 135.88C180.046 136.744 180.446 137.936 180.446 139.456V143.32C180.446 144.328 180.262 145.2 179.894 145.936C179.542 146.672 179.038 147.24 178.382 147.64C177.742 148.04 176.974 148.24 176.078 148.24C175.006 148.24 174.134 147.944 173.462 147.352C172.79 146.76 172.454 145.968 172.454 144.976L172.886 145.48H172.406L172.454 148.48V152.32H170.294ZM175.358 146.368C176.27 146.368 176.982 146.096 177.494 145.552C178.022 145.008 178.286 144.224 178.286 143.2V139.6C178.286 138.576 178.022 137.792 177.494 137.248C176.982 136.704 176.27 136.432 175.358 136.432C174.478 136.432 173.774 136.712 173.246 137.272C172.718 137.832 172.454 138.608 172.454 139.6V143.2C172.454 144.192 172.718 144.968 173.246 145.528C173.774 146.088 174.478 146.368 175.358 146.368ZM189.677 148.24C188.637 148.24 187.725 148.032 186.941 147.616C186.173 147.2 185.573 146.616 185.141 145.864C184.725 145.096 184.517 144.208 184.517 143.2V139.6C184.517 138.576 184.725 137.688 185.141 136.936C185.573 136.184 186.173 135.6 186.941 135.184C187.725 134.768 188.637 134.56 189.677 134.56C190.717 134.56 191.621 134.768 192.389 135.184C193.173 135.6 193.773 136.184 194.189 136.936C194.621 137.688 194.837 138.576 194.837 139.6V141.928H186.629V143.2C186.629 144.24 186.893 145.04 187.421 145.6C187.949 146.144 188.701 146.416 189.677 146.416C190.509 146.416 191.181 146.272 191.693 145.984C192.205 145.68 192.517 145.232 192.629 144.64H194.789C194.645 145.744 194.101 146.624 193.157 147.28C192.229 147.92 191.069 148.24 189.677 148.24ZM192.725 140.488V139.6C192.725 138.56 192.461 137.76 191.933 137.2C191.421 136.64 190.669 136.36 189.677 136.36C188.701 136.36 187.949 136.64 187.421 137.2C186.893 137.76 186.629 138.56 186.629 139.6V140.296H192.893L192.725 140.488ZM199.531 148V134.8H201.643V137.32H202.147L201.451 138.88C201.451 137.456 201.755 136.384 202.363 135.664C202.987 134.928 203.907 134.56 205.123 134.56C206.515 134.56 207.619 135 208.435 135.88C209.267 136.744 209.683 137.92 209.683 139.408V140.2H207.523V139.6C207.523 138.56 207.267 137.768 206.755 137.224C206.259 136.664 205.547 136.384 204.619 136.384C203.707 136.384 202.987 136.664 202.459 137.224C201.947 137.784 201.691 138.576 201.691 139.6V148H199.531ZM213.298 148V146.032H217.978V136.768H213.898V134.8H220.138V146.032H224.578V148H213.298ZM218.818 132.424C218.29 132.424 217.874 132.288 217.57 132.016C217.266 131.744 217.114 131.376 217.114 130.912C217.114 130.432 217.266 130.056 217.57 129.784C217.874 129.496 218.29 129.352 218.818 129.352C219.346 129.352 219.762 129.496 220.066 129.784C220.37 130.056 220.522 130.432 220.522 130.912C220.522 131.376 220.37 131.744 220.066 132.016C219.762 132.288 219.346 132.424 218.818 132.424ZM232.848 148.192C231.792 148.192 230.88 147.992 230.112 147.592C229.344 147.192 228.744 146.616 228.312 145.864C227.896 145.096 227.688 144.192 227.688 143.152V139.648C227.688 138.592 227.896 137.688 228.312 136.936C228.744 136.184 229.344 135.608 230.112 135.208C230.88 134.808 231.792 134.608 232.848 134.608C233.904 134.608 234.816 134.808 235.584 135.208C236.352 135.608 236.944 136.184 237.36 136.936C237.792 137.688 238.008 138.584 238.008 139.624V143.152C238.008 144.192 237.792 145.096 237.36 145.864C236.944 146.616 236.352 147.192 235.584 147.592C234.816 147.992 233.904 148.192 232.848 148.192ZM232.848 146.272C233.792 146.272 234.528 146.008 235.056 145.48C235.584 144.952 235.848 144.176 235.848 143.152V139.648C235.848 138.624 235.584 137.848 235.056 137.32C234.528 136.792 233.792 136.528 232.848 136.528C231.92 136.528 231.184 136.792 230.64 137.32C230.112 137.848 229.848 138.624 229.848 139.648V143.152C229.848 144.176 230.112 144.952 230.64 145.48C231.184 146.008 231.92 146.272 232.848 146.272ZM246.471 148.24C245.159 148.24 244.095 147.8 243.279 146.92C242.479 146.04 242.079 144.848 242.079 143.344V139.48C242.079 137.96 242.479 136.76 243.279 135.88C244.079 135 245.143 134.56 246.471 134.56C247.559 134.56 248.431 134.856 249.087 135.448C249.743 136.04 250.071 136.832 250.071 137.824L249.639 137.32H250.119L250.071 134.32V130.48H252.231V148H250.071V145.48H249.639L250.071 144.976C250.071 145.984 249.743 146.784 249.087 147.376C248.431 147.952 247.559 148.24 246.471 148.24ZM247.191 146.368C248.087 146.368 248.791 146.088 249.303 145.528C249.815 144.968 250.071 144.192 250.071 143.2V139.6C250.071 138.608 249.815 137.832 249.303 137.272C248.791 136.712 248.087 136.432 247.191 136.432C246.279 136.432 245.559 136.704 245.031 137.248C244.503 137.792 244.239 138.576 244.239 139.6V143.2C244.239 144.224 244.503 145.008 245.031 145.552C245.559 146.096 246.279 146.368 247.191 146.368Z" fill="black"/>
<rect x="265" y="103" width="199" height="73" rx="5" fill="#FFB800"/>
<rect x="266.5" y="104.5" width="196" height="70" rx="3.5" stroke="black" stroke-opacity="0.15" stroke-width="3"/>
<path d="M324.367 147V132.4H329.067C329.974 132.4 330.761 132.58 331.427 132.94C332.094 133.287 332.607 133.78 332.967 134.42C333.341 135.06 333.527 135.82 333.527 136.7C333.527 137.567 333.341 138.327 332.967 138.98C332.607 139.62 332.094 140.12 331.427 140.48C330.761 140.827 329.974 141 329.067 141H326.167V147H324.367ZM326.167 139.38H329.067C329.854 139.38 330.481 139.14 330.947 138.66C331.427 138.167 331.667 137.513 331.667 136.7C331.667 135.873 331.427 135.22 330.947 134.74C330.481 134.26 329.854 134.02 329.067 134.02H326.167V139.38ZM336.74 147V136H338.5V138.1H338.92L338.34 139.4C338.34 138.213 338.593 137.32 339.1 136.72C339.62 136.107 340.386 135.8 341.4 135.8C342.56 135.8 343.48 136.167 344.16 136.9C344.853 137.62 345.2 138.6 345.2 139.84V140.5H343.4V140C343.4 139.133 343.186 138.473 342.76 138.02C342.346 137.553 341.753 137.32 340.98 137.32C340.22 137.32 339.62 137.553 339.18 138.02C338.753 138.487 338.54 139.147 338.54 140V147H336.74ZM352.512 147.2C351.645 147.2 350.885 147.027 350.232 146.68C349.592 146.333 349.092 145.847 348.732 145.22C348.385 144.58 348.212 143.84 348.212 143V140C348.212 139.147 348.385 138.407 348.732 137.78C349.092 137.153 349.592 136.667 350.232 136.32C350.885 135.973 351.645 135.8 352.512 135.8C353.378 135.8 354.132 135.973 354.772 136.32C355.425 136.667 355.925 137.153 356.272 137.78C356.632 138.407 356.812 139.147 356.812 140V141.94H349.972V143C349.972 143.867 350.192 144.533 350.632 145C351.072 145.453 351.698 145.68 352.512 145.68C353.205 145.68 353.765 145.56 354.192 145.32C354.618 145.067 354.878 144.693 354.972 144.2H356.772C356.652 145.12 356.198 145.853 355.412 146.4C354.638 146.933 353.672 147.2 352.512 147.2ZM355.052 140.74V140C355.052 139.133 354.832 138.467 354.392 138C353.965 137.533 353.338 137.3 352.512 137.3C351.698 137.3 351.072 137.533 350.632 138C350.192 138.467 349.972 139.133 349.972 140V140.58H355.192L355.052 140.74ZM363.864 147.2C362.771 147.2 361.884 146.833 361.204 146.1C360.537 145.367 360.204 144.373 360.204 143.12V139.9C360.204 138.633 360.537 137.633 361.204 136.9C361.871 136.167 362.757 135.8 363.864 135.8C364.771 135.8 365.497 136.047 366.044 136.54C366.591 137.033 366.864 137.693 366.864 138.52L366.504 138.1H366.904L366.864 135.6V132.4H368.664V147H366.864V144.9H366.504L366.864 144.48C366.864 145.32 366.591 145.987 366.044 146.48C365.497 146.96 364.771 147.2 363.864 147.2ZM364.464 145.64C365.211 145.64 365.797 145.407 366.224 144.94C366.651 144.473 366.864 143.827 366.864 143V140C366.864 139.173 366.651 138.527 366.224 138.06C365.797 137.593 365.211 137.36 364.464 137.36C363.704 137.36 363.104 137.587 362.664 138.04C362.224 138.493 362.004 139.147 362.004 140V143C362.004 143.853 362.224 144.507 362.664 144.96C363.104 145.413 363.704 145.64 364.464 145.64ZM372.196 147V145.36H376.096V137.64H372.696V136H377.896V145.36H381.596V147H372.196ZM376.796 134.02C376.356 134.02 376.009 133.907 375.756 133.68C375.503 133.453 375.376 133.147 375.376 132.76C375.376 132.36 375.503 132.047 375.756 131.82C376.009 131.58 376.356 131.46 376.796 131.46C377.236 131.46 377.583 131.58 377.836 131.82C378.089 132.047 378.216 132.36 378.216 132.76C378.216 133.147 378.089 133.453 377.836 133.68C377.583 133.907 377.236 134.02 376.796 134.02ZM388.568 147.2C387.688 147.2 386.915 147.033 386.248 146.7C385.595 146.367 385.088 145.887 384.728 145.26C384.368 144.62 384.188 143.867 384.188 143V140C384.188 139.12 384.368 138.367 384.728 137.74C385.088 137.113 385.595 136.633 386.248 136.3C386.915 135.967 387.688 135.8 388.568 135.8C389.835 135.8 390.855 136.14 391.628 136.82C392.402 137.5 392.808 138.427 392.848 139.6H391.048C391.008 138.893 390.768 138.353 390.328 137.98C389.902 137.593 389.315 137.4 388.568 137.4C387.782 137.4 387.155 137.627 386.688 138.08C386.222 138.52 385.988 139.153 385.988 139.98V143C385.988 143.827 386.222 144.467 386.688 144.92C387.155 145.373 387.782 145.6 388.568 145.6C389.315 145.6 389.902 145.407 390.328 145.02C390.768 144.633 391.008 144.093 391.048 143.4H392.848C392.808 144.573 392.402 145.5 391.628 146.18C390.855 146.86 389.835 147.2 388.568 147.2ZM401.68 147C400.734 147 399.994 146.747 399.46 146.24C398.94 145.733 398.68 145.02 398.68 144.1V137.64H395.58V136H398.68V132.9H400.48V136H404.88V137.64H400.48V144.1C400.48 144.94 400.88 145.36 401.68 145.36H404.68V147H401.68Z" fill="black"/>
<rect x="562" y="103" width="102" height="73" rx="5" fill="#FFB800"/>
<rect x="563.5" y="104.5" width="99" height="70" rx="3.5" stroke="black" stroke-opacity="0.15" stroke-width="3"/>
<path d="M572.867 147V132.4H577.567C578.474 132.4 579.261 132.58 579.927 132.94C580.594 133.287 581.107 133.78 581.467 134.42C581.841 135.06 582.027 135.82 582.027 136.7C582.027 137.567 581.841 138.327 581.467 138.98C581.107 139.62 580.594 140.12 579.927 140.48C579.261 140.827 578.474 141 577.567 141H574.667V147H572.867ZM574.667 139.38H577.567C578.354 139.38 578.981 139.14 579.447 138.66C579.927 138.167 580.167 137.513 580.167 136.7C580.167 135.873 579.927 135.22 579.447 134.74C578.981 134.26 578.354 134.02 577.567 134.02H574.667V139.38ZM585.24 147V136H587V138.1H587.42L586.84 139.4C586.84 138.213 587.093 137.32 587.6 136.72C588.12 136.107 588.886 135.8 589.9 135.8C591.06 135.8 591.98 136.167 592.66 136.9C593.353 137.62 593.7 138.6 593.7 139.84V140.5H591.9V140C591.9 139.133 591.686 138.473 591.26 138.02C590.846 137.553 590.253 137.32 589.48 137.32C588.72 137.32 588.12 137.553 587.68 138.02C587.253 138.487 587.04 139.147 587.04 140V147H585.24ZM601.012 147.2C600.145 147.2 599.385 147.027 598.732 146.68C598.092 146.333 597.592 145.847 597.232 145.22C596.885 144.58 596.712 143.84 596.712 143V140C596.712 139.147 596.885 138.407 597.232 137.78C597.592 137.153 598.092 136.667 598.732 136.32C599.385 135.973 600.145 135.8 601.012 135.8C601.878 135.8 602.632 135.973 603.272 136.32C603.925 136.667 604.425 137.153 604.772 137.78C605.132 138.407 605.312 139.147 605.312 140V141.94H598.472V143C598.472 143.867 598.692 144.533 599.132 145C599.572 145.453 600.198 145.68 601.012 145.68C601.705 145.68 602.265 145.56 602.692 145.32C603.118 145.067 603.378 144.693 603.472 144.2H605.272C605.152 145.12 604.698 145.853 603.912 146.4C603.138 146.933 602.172 147.2 601.012 147.2ZM603.552 140.74V140C603.552 139.133 603.332 138.467 602.892 138C602.465 137.533 601.838 137.3 601.012 137.3C600.198 137.3 599.572 137.533 599.132 138C598.692 138.467 598.472 139.133 598.472 140V140.58H603.692L603.552 140.74ZM612.364 147.2C611.271 147.2 610.384 146.833 609.704 146.1C609.037 145.367 608.704 144.373 608.704 143.12V139.9C608.704 138.633 609.037 137.633 609.704 136.9C610.371 136.167 611.257 135.8 612.364 135.8C613.271 135.8 613.997 136.047 614.544 136.54C615.091 137.033 615.364 137.693 615.364 138.52L615.004 138.1H615.404L615.364 135.6V132.4H617.164V147H615.364V144.9H615.004L615.364 144.48C615.364 145.32 615.091 145.987 614.544 146.48C613.997 146.96 613.271 147.2 612.364 147.2ZM612.964 145.64C613.711 145.64 614.297 145.407 614.724 144.94C615.151 144.473 615.364 143.827 615.364 143V140C615.364 139.173 615.151 138.527 614.724 138.06C614.297 137.593 613.711 137.36 612.964 137.36C612.204 137.36 611.604 137.587 611.164 138.04C610.724 138.493 610.504 139.147 610.504 140V143C610.504 143.853 610.724 144.507 611.164 144.96C611.604 145.413 612.204 145.64 612.964 145.64ZM620.696 147V145.36H624.596V137.64H621.196V136H626.396V145.36H630.096V147H620.696ZM625.296 134.02C624.856 134.02 624.509 133.907 624.256 133.68C624.003 133.453 623.876 133.147 623.876 132.76C623.876 132.36 624.003 132.047 624.256 131.82C624.509 131.58 624.856 131.46 625.296 131.46C625.736 131.46 626.083 131.58 626.336 131.82C626.589 132.047 626.716 132.36 626.716 132.76C626.716 133.147 626.589 133.453 626.336 133.68C626.083 133.907 625.736 134.02 625.296 134.02ZM637.068 147.2C636.188 147.2 635.415 147.033 634.748 146.7C634.095 146.367 633.588 145.887 633.228 145.26C632.868 144.62 632.688 143.867 632.688 143V140C632.688 139.12 632.868 138.367 633.228 137.74C633.588 137.113 634.095 136.633 634.748 136.3C635.415 135.967 636.188 135.8 637.068 135.8C638.335 135.8 639.355 136.14 640.128 136.82C640.902 137.5 641.308 138.427 641.348 139.6H639.548C639.508 138.893 639.268 138.353 638.828 137.98C638.402 137.593 637.815 137.4 637.068 137.4C636.282 137.4 635.655 137.627 635.188 138.08C634.722 138.52 634.488 139.153 634.488 139.98V143C634.488 143.827 634.722 144.467 635.188 144.92C635.655 145.373 636.282 145.6 637.068 145.6C637.815 145.6 638.402 145.407 638.828 145.02C639.268 144.633 639.508 144.093 639.548 143.4H641.348C641.308 144.573 640.902 145.5 640.128 146.18C639.355 146.86 638.335 147.2 637.068 147.2ZM650.18 147C649.234 147 648.494 146.747 647.96 146.24C647.44 145.733 647.18 145.02 647.18 144.1V137.64H644.08V136H647.18V132.9H648.98V136H653.38V137.64H648.98V144.1C648.98 144.94 649.38 145.36 650.18 145.36H653.18V147H650.18Z" fill="black"/>
<rect x="760" y="103" width="102" height="73" rx="5" fill="#FFB800"/>
<rect x="761.5" y="104.5" width="99" height="70" rx="3.5" stroke="black" stroke-opacity="0.15" stroke-width="3"/>
<path d="M770.867 147V132.4H775.567C776.474 132.4 777.261 132.58 777.927 132.94C778.594 133.287 779.107 133.78 779.467 134.42C779.841 135.06 780.027 135.82 780.027 136.7C780.027 137.567 779.841 138.327 779.467 138.98C779.107 139.62 778.594 140.12 777.927 140.48C777.261 140.827 776.474 141 775.567 141H772.667V147H770.867ZM772.667 139.38H775.567C776.354 139.38 776.981 139.14 777.447 138.66C777.927 138.167 778.167 137.513 778.167 136.7C778.167 135.873 777.927 135.22 777.447 134.74C776.981 134.26 776.354 134.02 775.567 134.02H772.667V139.38ZM783.24 147V136H785V138.1H785.42L784.84 139.4C784.84 138.213 785.093 137.32 785.6 136.72C786.12 136.107 786.886 135.8 787.9 135.8C789.06 135.8 789.98 136.167 790.66 136.9C791.353 137.62 791.7 138.6 791.7 139.84V140.5H789.9V140C789.9 139.133 789.686 138.473 789.26 138.02C788.846 137.553 788.253 137.32 787.48 137.32C786.72 137.32 786.12 137.553 785.68 138.02C785.253 138.487 785.04 139.147 785.04 140V147H783.24ZM799.012 147.2C798.145 147.2 797.385 147.027 796.732 146.68C796.092 146.333 795.592 145.847 795.232 145.22C794.885 144.58 794.712 143.84 794.712 143V140C794.712 139.147 794.885 138.407 795.232 137.78C795.592 137.153 796.092 136.667 796.732 136.32C797.385 135.973 798.145 135.8 799.012 135.8C799.878 135.8 800.632 135.973 801.272 136.32C801.925 136.667 802.425 137.153 802.772 137.78C803.132 138.407 803.312 139.147 803.312 140V141.94H796.472V143C796.472 143.867 796.692 144.533 797.132 145C797.572 145.453 798.198 145.68 799.012 145.68C799.705 145.68 800.265 145.56 800.692 145.32C801.118 145.067 801.378 144.693 801.472 144.2H803.272C803.152 145.12 802.698 145.853 801.912 146.4C801.138 146.933 800.172 147.2 799.012 147.2ZM801.552 140.74V140C801.552 139.133 801.332 138.467 800.892 138C800.465 137.533 799.838 137.3 799.012 137.3C798.198 137.3 797.572 137.533 797.132 138C796.692 138.467 796.472 139.133 796.472 140V140.58H801.692L801.552 140.74ZM810.364 147.2C809.271 147.2 808.384 146.833 807.704 146.1C807.037 145.367 806.704 144.373 806.704 143.12V139.9C806.704 138.633 807.037 137.633 807.704 136.9C808.371 136.167 809.257 135.8 810.364 135.8C811.271 135.8 811.997 136.047 812.544 136.54C813.091 137.033 813.364 137.693 813.364 138.52L813.004 138.1H813.404L813.364 135.6V132.4H815.164V147H813.364V144.9H813.004L813.364 144.48C813.364 145.32 813.091 145.987 812.544 146.48C811.997 146.96 811.271 147.2 810.364 147.2ZM810.964 145.64C811.711 145.64 812.297 145.407 812.724 144.94C813.151 144.473 813.364 143.827 813.364 143V140C813.364 139.173 813.151 138.527 812.724 138.06C812.297 137.593 811.711 137.36 810.964 137.36C810.204 137.36 809.604 137.587 809.164 138.04C808.724 138.493 808.504 139.147 808.504 140V143C808.504 143.853 808.724 144.507 809.164 144.96C809.604 145.413 810.204 145.64 810.964 145.64ZM818.696 147V145.36H822.596V137.64H819.196V136H824.396V145.36H828.096V147H818.696ZM823.296 134.02C822.856 134.02 822.509 133.907 822.256 133.68C822.003 133.453 821.876 133.147 821.876 132.76C821.876 132.36 822.003 132.047 822.256 131.82C822.509 131.58 822.856 131.46 823.296 131.46C823.736 131.46 824.083 131.58 824.336 131.82C824.589 132.047 824.716 132.36 824.716 132.76C824.716 133.147 824.589 133.453 824.336 133.68C824.083 133.907 823.736 134.02 823.296 134.02ZM835.068 147.2C834.188 147.2 833.415 147.033 832.748 146.7C832.095 146.367 831.588 145.887 831.228 145.26C830.868 144.62 830.688 143.867 830.688 143V140C830.688 139.12 830.868 138.367 831.228 137.74C831.588 137.113 832.095 136.633 832.748 136.3C833.415 135.967 834.188 135.8 835.068 135.8C836.335 135.8 837.355 136.14 838.128 136.82C838.902 137.5 839.308 138.427 839.348 139.6H837.548C837.508 138.893 837.268 138.353 836.828 137.98C836.402 137.593 835.815 137.4 835.068 137.4C834.282 137.4 833.655 137.627 833.188 138.08C832.722 138.52 832.488 139.153 832.488 139.98V143C832.488 143.827 832.722 144.467 833.188 144.92C833.655 145.373 834.282 145.6 835.068 145.6C835.815 145.6 836.402 145.407 836.828 145.02C837.268 144.633 837.508 144.093 837.548 143.4H839.348C839.308 144.573 838.902 145.5 838.128 146.18C837.355 146.86 836.335 147.2 835.068 147.2ZM848.18 147C847.234 147 846.494 146.747 845.96 146.24C845.44 145.733 845.18 145.02 845.18 144.1V137.64H842.08V136H845.18V132.9H846.98V136H851.38V137.64H846.98V144.1C846.98 144.94 847.38 145.36 848.18 145.36H851.18V147H848.18Z" fill="black"/>
<rect x="960" y="103" width="102" height="73" rx="5" fill="#FFB800"/>
<rect x="961.5" y="104.5" width="99" height="70" rx="3.5" stroke="black" stroke-opacity="0.15" stroke-width="3"/>
<path d="M970.867 147V132.4H975.567C976.474 132.4 977.261 132.58 977.927 132.94C978.594 133.287 979.107 133.78 979.467 134.42C979.841 135.06 980.027 135.82 980.027 136.7C980.027 137.567 979.841 138.327 979.467 138.98C979.107 139.62 978.594 140.12 977.927 140.48C977.261 140.827 976.474 141 975.567 141H972.667V147H970.867ZM972.667 139.38H975.567C976.354 139.38 976.981 139.14 977.447 138.66C977.927 138.167 978.167 137.513 978.167 136.7C978.167 135.873 977.927 135.22 977.447 134.74C976.981 134.26 976.354 134.02 975.567 134.02H972.667V139.38ZM983.24 147V136H985V138.1H985.42L984.84 139.4C984.84 138.213 985.093 137.32 985.6 136.72C986.12 136.107 986.886 135.8 987.9 135.8C989.06 135.8 989.98 136.167 990.66 136.9C991.353 137.62 991.7 138.6 991.7 139.84V140.5H989.9V140C989.9 139.133 989.686 138.473 989.26 138.02C988.846 137.553 988.253 137.32 987.48 137.32C986.72 137.32 986.12 137.553 985.68 138.02C985.253 138.487 985.04 139.147 985.04 140V147H983.24ZM999.012 147.2C998.145 147.2 997.385 147.027 996.732 146.68C996.092 146.333 995.592 145.847 995.232 145.22C994.885 144.58 994.712 143.84 994.712 143V140C994.712 139.147 994.885 138.407 995.232 137.78C995.592 137.153 996.092 136.667 996.732 136.32C997.385 135.973 998.145 135.8 999.012 135.8C999.878 135.8 1000.63 135.973 1001.27 136.32C1001.93 136.667 1002.43 137.153 1002.77 137.78C1003.13 138.407 1003.31 139.147 1003.31 140V141.94H996.472V143C996.472 143.867 996.692 144.533 997.132 145C997.572 145.453 998.198 145.68 999.012 145.68C999.705 145.68 1000.27 145.56 1000.69 145.32C1001.12 145.067 1001.38 144.693 1001.47 144.2H1003.27C1003.15 145.12 1002.7 145.853 1001.91 146.4C1001.14 146.933 1000.17 147.2 999.012 147.2ZM1001.55 140.74V140C1001.55 139.133 1001.33 138.467 1000.89 138C1000.47 137.533 999.838 137.3 999.012 137.3C998.198 137.3 997.572 137.533 997.132 138C996.692 138.467 996.472 139.133 996.472 140V140.58H1001.69L1001.55 140.74ZM1010.36 147.2C1009.27 147.2 1008.38 146.833 1007.7 146.1C1007.04 145.367 1006.7 144.373 1006.7 143.12V139.9C1006.7 138.633 1007.04 137.633 1007.7 136.9C1008.37 136.167 1009.26 135.8 1010.36 135.8C1011.27 135.8 1012 136.047 1012.54 136.54C1013.09 137.033 1013.36 137.693 1013.36 138.52L1013 138.1H1013.4L1013.36 135.6V132.4H1015.16V147H1013.36V144.9H1013L1013.36 144.48C1013.36 145.32 1013.09 145.987 1012.54 146.48C1012 146.96 1011.27 147.2 1010.36 147.2ZM1010.96 145.64C1011.71 145.64 1012.3 145.407 1012.72 144.94C1013.15 144.473 1013.36 143.827 1013.36 143V140C1013.36 139.173 1013.15 138.527 1012.72 138.06C1012.3 137.593 1011.71 137.36 1010.96 137.36C1010.2 137.36 1009.6 137.587 1009.16 138.04C1008.72 138.493 1008.5 139.147 1008.5 140V143C1008.5 143.853 1008.72 144.507 1009.16 144.96C1009.6 145.413 1010.2 145.64 1010.96 145.64ZM1018.7 147V145.36H1022.6V137.64H1019.2V136H1024.4V145.36H1028.1V147H1018.7ZM1023.3 134.02C1022.86 134.02 1022.51 133.907 1022.26 133.68C1022 133.453 1021.88 133.147 1021.88 132.76C1021.88 132.36 1022 132.047 1022.26 131.82C1022.51 131.58 1022.86 131.46 1023.3 131.46C1023.74 131.46 1024.08 131.58 1024.34 131.82C1024.59 132.047 1024.72 132.36 1024.72 132.76C1024.72 133.147 1024.59 133.453 1024.34 133.68C1024.08 133.907 1023.74 134.02 1023.3 134.02ZM1035.07 147.2C1034.19 147.2 1033.41 147.033 1032.75 146.7C1032.09 146.367 1031.59 145.887 1031.23 145.26C1030.87 144.62 1030.69 143.867 1030.69 143V140C1030.69 139.12 1030.87 138.367 1031.23 137.74C1031.59 137.113 1032.09 136.633 1032.75 136.3C1033.41 135.967 1034.19 135.8 1035.07 135.8C1036.33 135.8 1037.35 136.14 1038.13 136.82C1038.9 137.5 1039.31 138.427 1039.35 139.6H1037.55C1037.51 138.893 1037.27 138.353 1036.83 137.98C1036.4 137.593 1035.81 137.4 1035.07 137.4C1034.28 137.4 1033.65 137.627 1033.19 138.08C1032.72 138.52 1032.49 139.153 1032.49 139.98V143C1032.49 143.827 1032.72 144.467 1033.19 144.92C1033.65 145.373 1034.28 145.6 1035.07 145.6C1035.81 145.6 1036.4 145.407 1036.83 145.02C1037.27 144.633 1037.51 144.093 1037.55 143.4H1039.35C1039.31 144.573 1038.9 145.5 1038.13 146.18C1037.35 146.86 1036.33 147.2 1035.07 147.2ZM1048.18 147C1047.23 147 1046.49 146.747 1045.96 146.24C1045.44 145.733 1045.18 145.02 1045.18 144.1V137.64H1042.08V136H1045.18V132.9H1046.98V136H1051.38V137.64H1046.98V144.1C1046.98 144.94 1047.38 145.36 1048.18 145.36H1051.18V147H1048.18Z" fill="black"/>
<rect x="463.5" y="104.5" width="101" height="70" rx="3.5" stroke="#D99C00" stroke-width="3"/>
<path d="M484.023 147.2C482.663 147.2 481.623 146.827 480.903 146.08C480.183 145.32 479.823 144.293 479.823 143V132.4H481.623V143C481.623 143.8 481.817 144.433 482.203 144.9C482.603 145.367 483.21 145.6 484.023 145.6C484.823 145.6 485.423 145.367 485.823 144.9C486.223 144.433 486.423 143.8 486.423 143V132.4H488.223V143C488.223 144.307 487.863 145.333 487.143 146.08C486.437 146.827 485.397 147.2 484.023 147.2ZM491.856 150.6V136H493.656V138.1H494.016L493.656 138.52C493.656 137.68 493.929 137.02 494.476 136.54C495.036 136.047 495.769 135.8 496.676 135.8C497.782 135.8 498.662 136.167 499.316 136.9C499.982 137.62 500.316 138.613 500.316 139.88V143.1C500.316 143.94 500.162 144.667 499.856 145.28C499.562 145.893 499.142 146.367 498.596 146.7C498.062 147.033 497.422 147.2 496.676 147.2C495.782 147.2 495.056 146.953 494.496 146.46C493.936 145.967 493.656 145.307 493.656 144.48L494.016 144.9H493.616L493.656 147.4V150.6H491.856ZM496.076 145.64C496.836 145.64 497.429 145.413 497.856 144.96C498.296 144.507 498.516 143.853 498.516 143V140C498.516 139.147 498.296 138.493 497.856 138.04C497.429 137.587 496.836 137.36 496.076 137.36C495.342 137.36 494.756 137.593 494.316 138.06C493.876 138.527 493.656 139.173 493.656 140V143C493.656 143.827 493.876 144.473 494.316 144.94C494.756 145.407 495.342 145.64 496.076 145.64ZM507.368 147.2C506.274 147.2 505.388 146.833 504.708 146.1C504.041 145.367 503.708 144.373 503.708 143.12V139.9C503.708 138.633 504.041 137.633 504.708 136.9C505.374 136.167 506.261 135.8 507.368 135.8C508.274 135.8 509.001 136.047 509.548 136.54C510.094 137.033 510.368 137.693 510.368 138.52L510.008 138.1H510.408L510.368 135.6V132.4H512.168V147H510.368V144.9H510.008L510.368 144.48C510.368 145.32 510.094 145.987 509.548 146.48C509.001 146.96 508.274 147.2 507.368 147.2ZM507.968 145.64C508.714 145.64 509.301 145.407 509.728 144.94C510.154 144.473 510.368 143.827 510.368 143V140C510.368 139.173 510.154 138.527 509.728 138.06C509.301 137.593 508.714 137.36 507.968 137.36C507.208 137.36 506.608 137.587 506.168 138.04C505.728 138.493 505.508 139.147 505.508 140V143C505.508 143.853 505.728 144.507 506.168 144.96C506.608 145.413 507.208 145.64 507.968 145.64ZM519.04 147.2C517.88 147.2 516.967 146.907 516.3 146.32C515.633 145.72 515.3 144.913 515.3 143.9C515.3 142.873 515.633 142.067 516.3 141.48C516.967 140.893 517.867 140.6 519 140.6H522.4V139.5C522.4 138.82 522.193 138.3 521.78 137.94C521.38 137.567 520.807 137.38 520.06 137.38C519.407 137.38 518.86 137.52 518.42 137.8C517.98 138.067 517.727 138.433 517.66 138.9H515.86C515.98 137.953 516.427 137.2 517.2 136.64C517.973 136.08 518.94 135.8 520.1 135.8C521.367 135.8 522.367 136.127 523.1 136.78C523.833 137.433 524.2 138.32 524.2 139.44V147H522.44V144.9H522.14L522.44 144.6C522.44 145.4 522.127 146.033 521.5 146.5C520.887 146.967 520.067 147.2 519.04 147.2ZM519.48 145.78C520.333 145.78 521.033 145.567 521.58 145.14C522.127 144.713 522.4 144.167 522.4 143.5V141.94H519.04C518.44 141.94 517.967 142.107 517.62 142.44C517.273 142.773 517.1 143.227 517.1 143.8C517.1 144.413 517.307 144.9 517.72 145.26C518.147 145.607 518.733 145.78 519.48 145.78ZM533.192 147C532.246 147 531.506 146.747 530.972 146.24C530.452 145.733 530.192 145.02 530.192 144.1V137.64H527.092V136H530.192V132.9H531.992V136H536.392V137.64H531.992V144.1C531.992 144.94 532.392 145.36 533.192 145.36H536.192V147H533.192ZM543.984 147.2C543.118 147.2 542.358 147.027 541.704 146.68C541.064 146.333 540.564 145.847 540.204 145.22C539.858 144.58 539.684 143.84 539.684 143V140C539.684 139.147 539.858 138.407 540.204 137.78C540.564 137.153 541.064 136.667 541.704 136.32C542.358 135.973 543.118 135.8 543.984 135.8C544.851 135.8 545.604 135.973 546.244 136.32C546.898 136.667 547.398 137.153 547.744 137.78C548.104 138.407 548.284 139.147 548.284 140V141.94H541.444V143C541.444 143.867 541.664 144.533 542.104 145C542.544 145.453 543.171 145.68 543.984 145.68C544.678 145.68 545.238 145.56 545.664 145.32C546.091 145.067 546.351 144.693 546.444 144.2H548.244C548.124 145.12 547.671 145.853 546.884 146.4C546.111 146.933 545.144 147.2 543.984 147.2ZM546.524 140.74V140C546.524 139.133 546.304 138.467 545.864 138C545.438 137.533 544.811 137.3 543.984 137.3C543.171 137.3 542.544 137.533 542.104 138C541.664 138.467 541.444 139.133 541.444 140V140.58H546.664L546.524 140.74Z" fill="black"/>
<rect x="661.5" y="104.5" width="101" height="70" rx="3.5" stroke="#D99C00" stroke-width="3"/>
<path d="M682.023 147.2C680.663 147.2 679.623 146.827 678.903 146.08C678.183 145.32 677.823 144.293 677.823 143V132.4H679.623V143C679.623 143.8 679.817 144.433 680.203 144.9C680.603 145.367 681.21 145.6 682.023 145.6C682.823 145.6 683.423 145.367 683.823 144.9C684.223 144.433 684.423 143.8 684.423 143V132.4H686.223V143C686.223 144.307 685.863 145.333 685.143 146.08C684.437 146.827 683.397 147.2 682.023 147.2ZM689.856 150.6V136H691.656V138.1H692.016L691.656 138.52C691.656 137.68 691.929 137.02 692.476 136.54C693.036 136.047 693.769 135.8 694.676 135.8C695.782 135.8 696.662 136.167 697.316 136.9C697.982 137.62 698.316 138.613 698.316 139.88V143.1C698.316 143.94 698.162 144.667 697.856 145.28C697.562 145.893 697.142 146.367 696.596 146.7C696.062 147.033 695.422 147.2 694.676 147.2C693.782 147.2 693.056 146.953 692.496 146.46C691.936 145.967 691.656 145.307 691.656 144.48L692.016 144.9H691.616L691.656 147.4V150.6H689.856ZM694.076 145.64C694.836 145.64 695.429 145.413 695.856 144.96C696.296 144.507 696.516 143.853 696.516 143V140C696.516 139.147 696.296 138.493 695.856 138.04C695.429 137.587 694.836 137.36 694.076 137.36C693.342 137.36 692.756 137.593 692.316 138.06C691.876 138.527 691.656 139.173 691.656 140V143C691.656 143.827 691.876 144.473 692.316 144.94C692.756 145.407 693.342 145.64 694.076 145.64ZM705.368 147.2C704.274 147.2 703.388 146.833 702.708 146.1C702.041 145.367 701.708 144.373 701.708 143.12V139.9C701.708 138.633 702.041 137.633 702.708 136.9C703.374 136.167 704.261 135.8 705.368 135.8C706.274 135.8 707.001 136.047 707.548 136.54C708.094 137.033 708.368 137.693 708.368 138.52L708.008 138.1H708.408L708.368 135.6V132.4H710.168V147H708.368V144.9H708.008L708.368 144.48C708.368 145.32 708.094 145.987 707.548 146.48C707.001 146.96 706.274 147.2 705.368 147.2ZM705.968 145.64C706.714 145.64 707.301 145.407 707.728 144.94C708.154 144.473 708.368 143.827 708.368 143V140C708.368 139.173 708.154 138.527 707.728 138.06C707.301 137.593 706.714 137.36 705.968 137.36C705.208 137.36 704.608 137.587 704.168 138.04C703.728 138.493 703.508 139.147 703.508 140V143C703.508 143.853 703.728 144.507 704.168 144.96C704.608 145.413 705.208 145.64 705.968 145.64ZM717.04 147.2C715.88 147.2 714.967 146.907 714.3 146.32C713.633 145.72 713.3 144.913 713.3 143.9C713.3 142.873 713.633 142.067 714.3 141.48C714.967 140.893 715.867 140.6 717 140.6H720.4V139.5C720.4 138.82 720.193 138.3 719.78 137.94C719.38 137.567 718.807 137.38 718.06 137.38C717.407 137.38 716.86 137.52 716.42 137.8C715.98 138.067 715.727 138.433 715.66 138.9H713.86C713.98 137.953 714.427 137.2 715.2 136.64C715.973 136.08 716.94 135.8 718.1 135.8C719.367 135.8 720.367 136.127 721.1 136.78C721.833 137.433 722.2 138.32 722.2 139.44V147H720.44V144.9H720.14L720.44 144.6C720.44 145.4 720.127 146.033 719.5 146.5C718.887 146.967 718.067 147.2 717.04 147.2ZM717.48 145.78C718.333 145.78 719.033 145.567 719.58 145.14C720.127 144.713 720.4 144.167 720.4 143.5V141.94H717.04C716.44 141.94 715.967 142.107 715.62 142.44C715.273 142.773 715.1 143.227 715.1 143.8C715.1 144.413 715.307 144.9 715.72 145.26C716.147 145.607 716.733 145.78 717.48 145.78ZM731.192 147C730.246 147 729.506 146.747 728.972 146.24C728.452 145.733 728.192 145.02 728.192 144.1V137.64H725.092V136H728.192V132.9H729.992V136H734.392V137.64H729.992V144.1C729.992 144.94 730.392 145.36 731.192 145.36H734.192V147H731.192ZM741.984 147.2C741.118 147.2 740.358 147.027 739.704 146.68C739.064 146.333 738.564 145.847 738.204 145.22C737.858 144.58 737.684 143.84 737.684 143V140C737.684 139.147 737.858 138.407 738.204 137.78C738.564 137.153 739.064 136.667 739.704 136.32C740.358 135.973 741.118 135.8 741.984 135.8C742.851 135.8 743.604 135.973 744.244 136.32C744.898 136.667 745.398 137.153 745.744 137.78C746.104 138.407 746.284 139.147 746.284 140V141.94H739.444V143C739.444 143.867 739.664 144.533 740.104 145C740.544 145.453 741.171 145.68 741.984 145.68C742.678 145.68 743.238 145.56 743.664 145.32C744.091 145.067 744.351 144.693 744.444 144.2H746.244C746.124 145.12 745.671 145.853 744.884 146.4C744.111 146.933 743.144 147.2 741.984 147.2ZM744.524 140.74V140C744.524 139.133 744.304 138.467 743.864 138C743.438 137.533 742.811 137.3 741.984 137.3C741.171 137.3 740.544 137.533 740.104 138C739.664 138.467 739.444 139.133 739.444 140V140.58H744.664L744.524 140.74Z" fill="black"/>
<rect x="861.5" y="104.5" width="101" height="70" rx="3.5" stroke="#D99C00" stroke-width="3"/>
<path d="M882.023 147.2C880.663 147.2 879.623 146.827 878.903 146.08C878.183 145.32 877.823 144.293 877.823 143V132.4H879.623V143C879.623 143.8 879.817 144.433 880.203 144.9C880.603 145.367 881.21 145.6 882.023 145.6C882.823 145.6 883.423 145.367 883.823 144.9C884.223 144.433 884.423 143.8 884.423 143V132.4H886.223V143C886.223 144.307 885.863 145.333 885.143 146.08C884.437 146.827 883.397 147.2 882.023 147.2ZM889.856 150.6V136H891.656V138.1H892.016L891.656 138.52C891.656 137.68 891.929 137.02 892.476 136.54C893.036 136.047 893.769 135.8 894.676 135.8C895.782 135.8 896.662 136.167 897.316 136.9C897.982 137.62 898.316 138.613 898.316 139.88V143.1C898.316 143.94 898.162 144.667 897.856 145.28C897.562 145.893 897.142 146.367 896.596 146.7C896.062 147.033 895.422 147.2 894.676 147.2C893.782 147.2 893.056 146.953 892.496 146.46C891.936 145.967 891.656 145.307 891.656 144.48L892.016 144.9H891.616L891.656 147.4V150.6H889.856ZM894.076 145.64C894.836 145.64 895.429 145.413 895.856 144.96C896.296 144.507 896.516 143.853 896.516 143V140C896.516 139.147 896.296 138.493 895.856 138.04C895.429 137.587 894.836 137.36 894.076 137.36C893.342 137.36 892.756 137.593 892.316 138.06C891.876 138.527 891.656 139.173 891.656 140V143C891.656 143.827 891.876 144.473 892.316 144.94C892.756 145.407 893.342 145.64 894.076 145.64ZM905.368 147.2C904.274 147.2 903.388 146.833 902.708 146.1C902.041 145.367 901.708 144.373 901.708 143.12V139.9C901.708 138.633 902.041 137.633 902.708 136.9C903.374 136.167 904.261 135.8 905.368 135.8C906.274 135.8 907.001 136.047 907.548 136.54C908.094 137.033 908.368 137.693 908.368 138.52L908.008 138.1H908.408L908.368 135.6V132.4H910.168V147H908.368V144.9H908.008L908.368 144.48C908.368 145.32 908.094 145.987 907.548 146.48C907.001 146.96 906.274 147.2 905.368 147.2ZM905.968 145.64C906.714 145.64 907.301 145.407 907.728 144.94C908.154 144.473 908.368 143.827 908.368 143V140C908.368 139.173 908.154 138.527 907.728 138.06C907.301 137.593 906.714 137.36 905.968 137.36C905.208 137.36 904.608 137.587 904.168 138.04C903.728 138.493 903.508 139.147 903.508 140V143C903.508 143.853 903.728 144.507 904.168 144.96C904.608 145.413 905.208 145.64 905.968 145.64ZM917.04 147.2C915.88 147.2 914.967 146.907 914.3 146.32C913.633 145.72 913.3 144.913 913.3 143.9C913.3 142.873 913.633 142.067 914.3 141.48C914.967 140.893 915.867 140.6 917 140.6H920.4V139.5C920.4 138.82 920.193 138.3 919.78 137.94C919.38 137.567 918.807 137.38 918.06 137.38C917.407 137.38 916.86 137.52 916.42 137.8C915.98 138.067 915.727 138.433 915.66 138.9H913.86C913.98 137.953 914.427 137.2 915.2 136.64C915.973 136.08 916.94 135.8 918.1 135.8C919.367 135.8 920.367 136.127 921.1 136.78C921.833 137.433 922.2 138.32 922.2 139.44V147H920.44V144.9H920.14L920.44 144.6C920.44 145.4 920.127 146.033 919.5 146.5C918.887 146.967 918.067 147.2 917.04 147.2ZM917.48 145.78C918.333 145.78 919.033 145.567 919.58 145.14C920.127 144.713 920.4 144.167 920.4 143.5V141.94H917.04C916.44 141.94 915.967 142.107 915.62 142.44C915.273 142.773 915.1 143.227 915.1 143.8C915.1 144.413 915.307 144.9 915.72 145.26C916.147 145.607 916.733 145.78 917.48 145.78ZM931.192 147C930.246 147 929.506 146.747 928.972 146.24C928.452 145.733 928.192 145.02 928.192 144.1V137.64H925.092V136H928.192V132.9H929.992V136H934.392V137.64H929.992V144.1C929.992 144.94 930.392 145.36 931.192 145.36H934.192V147H931.192ZM941.984 147.2C941.118 147.2 940.358 147.027 939.704 146.68C939.064 146.333 938.564 145.847 938.204 145.22C937.858 144.58 937.684 143.84 937.684 143V140C937.684 139.147 937.858 138.407 938.204 137.78C938.564 137.153 939.064 136.667 939.704 136.32C940.358 135.973 941.118 135.8 941.984 135.8C942.851 135.8 943.604 135.973 944.244 136.32C944.898 136.667 945.398 137.153 945.744 137.78C946.104 138.407 946.284 139.147 946.284 140V141.94H939.444V143C939.444 143.867 939.664 144.533 940.104 145C940.544 145.453 941.171 145.68 941.984 145.68C942.678 145.68 943.238 145.56 943.664 145.32C944.091 145.067 944.351 144.693 944.444 144.2H946.244C946.124 145.12 945.671 145.853 944.884 146.4C944.111 146.933 943.144 147.2 941.984 147.2ZM944.524 140.74V140C944.524 139.133 944.304 138.467 943.864 138C943.438 137.533 942.811 137.3 941.984 137.3C941.171 137.3 940.544 137.533 940.104 138C939.664 138.467 939.444 139.133 939.444 140V140.58H944.664L944.524 140.74Z" fill="black"/>
<defs>
<filter id="filter0_d_128_657" x="231.72" y="228.155" width="82.54" height="83.58" filterUnits="userSpaceOnUse" color-interpolation-filters="sRGB">
<feFlood flood-opacity="0" result="BackgroundImageFix"/>
<feColorMatrix in="SourceAlpha" type="matrix" values="0 0 0 0 0 0 0 0 0 0 0 0 0 0 0 0 0 0 127 0" result="hardAlpha"/>
<feOffset/>
<feGaussianBlur stdDeviation="18.5"/>
<feComposite in2="hardAlpha" operator="out"/>
<feColorMatrix type="matrix" values="0 0 0 0 1 0 0 0 0 1 0 0 0 0 1 0 0 0 1 0"/>
<feBlend mode="normal" in2="BackgroundImageFix" result="effect1_dropShadow_128_657"/>
<feBlend mode="normal" in="SourceGraphic" in2="effect1_dropShadow_128_657" result="shape"/>
</filter>
<filter id="filter1_d_128_657" x="627.72" y="228.155" width="82.54" height="83.58" filterUnits="userSpaceOnUse" color-interpolation-filters="sRGB">
<feFlood flood-opacity="0" result="BackgroundImageFix"/>
<feColorMatrix in="SourceAlpha" type="matrix" values="0 0 0 0 0 0 0 0 0 0 0 0 0 0 0 0 0 0 127 0" result="hardAlpha"/>
<feOffset/>
<feGaussianBlur stdDeviation="18.5"/>
<feComposite in2="hardAlpha" operator="out"/>
<feColorMatrix type="matrix" values="0 0 0 0 1 0 0 0 0 1 0 0 0 0 1 0 0 0 1 0"/>
<feBlend mode="normal" in2="BackgroundImageFix" result="effect1_dropShadow_128_657"/>
<feBlend mode="normal" in="SourceGraphic" in2="effect1_dropShadow_128_657" result="shape"/>
</filter>
<filter id="filter2_d_128_657" x="638.064" y="220.705" width="95.7913" height="84.896" filterUnits="userSpaceOnUse" color-interpolation-filters="sRGB">
<feFlood flood-opacity="0" result="BackgroundImageFix"/>
<feColorMatrix in="SourceAlpha" type="matrix" values="0 0 0 0 0 0 0 0 0 0 0 0 0 0 0 0 0 0 127 0" result="hardAlpha"/>
<feOffset/>
<feGaussianBlur stdDeviation="18.5"/>
<feComposite in2="hardAlpha" operator="out"/>
<feColorMatrix type="matrix" values="0 0 0 0 1 0 0 0 0 1 0 0 0 0 1 0 0 0 1 0"/>
<feBlend mode="normal" in2="BackgroundImageFix" result="effect1_dropShadow_128_657"/>
<feBlend mode="normal" in="SourceGraphic" in2="effect1_dropShadow_128_657" result="shape"/>
</filter>
<filter id="filter3_d_128_657" x="1023.72" y="228.155" width="82.54" height="83.58" filterUnits="userSpaceOnUse" color-interpolation-filters="sRGB">
<feFlood flood-opacity="0" result="BackgroundImageFix"/>
<feColorMatrix in="SourceAlpha" type="matrix" values="0 0 0 0 0 0 0 0 0 0 0 0 0 0 0 0 0 0 127 0" result="hardAlpha"/>
<feOffset/>
<feGaussianBlur stdDeviation="18.5"/>
<feComposite in2="hardAlpha" operator="out"/>
<feColorMatrix type="matrix" values="0 0 0 0 1 0 0 0 0 1 0 0 0 0 1 0 0 0 1 0"/>
<feBlend mode="normal" in2="BackgroundImageFix" result="effect1_dropShadow_128_657"/>
<feBlend mode="normal" in="SourceGraphic" in2="effect1_dropShadow_128_657" result="shape"/>
</filter>
<filter id="filter4_d_128_657" x="1034.06" y="220.465" width="96.2712" height="89.792" filterUnits="userSpaceOnUse" color-interpolation-filters="sRGB">
<feFlood flood-opacity="0" result="BackgroundImageFix"/>
<feColorMatrix in="SourceAlpha" type="matrix" values="0 0 0 0 0 0 0 0 0 0 0 0 0 0 0 0 0 0 127 0" result="hardAlpha"/>
<feOffset/>
<feGaussianBlur stdDeviation="18.5"/>
<feComposite in2="hardAlpha" operator="out"/>
<feColorMatrix type="matrix" values="0 0 0 0 1 0 0 0 0 1 0 0 0 0 1 0 0 0 1 0"/>
<feBlend mode="normal" in2="BackgroundImageFix" result="effect1_dropShadow_128_657"/>
<feBlend mode="normal" in="SourceGraphic" in2="effect1_dropShadow_128_657" result="shape"/>
</filter>
<filter id="filter5_d_128_657" x="429.72" y="228.155" width="82.54" height="83.58" filterUnits="userSpaceOnUse" color-interpolation-filters="sRGB">
<feFlood flood-opacity="0" result="BackgroundImageFix"/>
<feColorMatrix in="SourceAlpha" type="matrix" values="0 0 0 0 0 0 0 0 0 0 0 0 0 0 0 0 0 0 127 0" result="hardAlpha"/>
<feOffset/>
<feGaussianBlur stdDeviation="18.5"/>
<feComposite in2="hardAlpha" operator="out"/>
<feColorMatrix type="matrix" values="0 0 0 0 1 0 0 0 0 1 0 0 0 0 1 0 0 0 1 0"/>
<feBlend mode="normal" in2="BackgroundImageFix" result="effect1_dropShadow_128_657"/>
<feBlend mode="normal" in="SourceGraphic" in2="effect1_dropShadow_128_657" result="shape"/>
</filter>
<filter id="filter6_d_128_657" x="440.064" y="220.729" width="95.3352" height="84.8719" filterUnits="userSpaceOnUse" color-interpolation-filters="sRGB">
<feFlood flood-opacity="0" result="BackgroundImageFix"/>
<feColorMatrix in="SourceAlpha" type="matrix" values="0 0 0 0 0 0 0 0 0 0 0 0 0 0 0 0 0 0 127 0" result="hardAlpha"/>
<feOffset/>
<feGaussianBlur stdDeviation="18.5"/>
<feComposite in2="hardAlpha" operator="out"/>
<feColorMatrix type="matrix" values="0 0 0 0 1 0 0 0 0 1 0 0 0 0 1 0 0 0 1 0"/>
<feBlend mode="normal" in2="BackgroundImageFix" result="effect1_dropShadow_128_657"/>
<feBlend mode="normal" in="SourceGraphic" in2="effect1_dropShadow_128_657" result="shape"/>
</filter>
<filter id="filter7_d_128_657" x="825.72" y="228.155" width="82.54" height="83.58" filterUnits="userSpaceOnUse" color-interpolation-filters="sRGB">
<feFlood flood-opacity="0" result="BackgroundImageFix"/>
<feColorMatrix in="SourceAlpha" type="matrix" values="0 0 0 0 0 0 0 0 0 0 0 0 0 0 0 0 0 0 127 0" result="hardAlpha"/>
<feOffset/>
<feGaussianBlur stdDeviation="18.5"/>
<feComposite in2="hardAlpha" operator="out"/>
<feColorMatrix type="matrix" values="0 0 0 0 1 0 0 0 0 1 0 0 0 0 1 0 0 0 1 0"/>
<feBlend mode="normal" in2="BackgroundImageFix" result="effect1_dropShadow_128_657"/>
<feBlend mode="normal" in="SourceGraphic" in2="effect1_dropShadow_128_657" result="shape"/>
</filter>
<filter id="filter8_d_128_657" x="836.064" y="220.705" width="95.9834" height="90.152" filterUnits="userSpaceOnUse" color-interpolation-filters="sRGB">
<feFlood flood-opacity="0" result="BackgroundImageFix"/>
<feColorMatrix in="SourceAlpha" type="matrix" values="0 0 0 0 0 0 0 0 0 0 0 0 0 0 0 0 0 0 127 0" result="hardAlpha"/>
<feOffset/>
<feGaussianBlur stdDeviation="18.5"/>
<feComposite in2="hardAlpha" operator="out"/>
<feColorMatrix type="matrix" values="0 0 0 0 1 0 0 0 0 1 0 0 0 0 1 0 0 0 1 0"/>
<feBlend mode="normal" in2="BackgroundImageFix" result="effect1_dropShadow_128_657"/>
<feBlend mode="normal" in="SourceGraphic" in2="effect1_dropShadow_128_657" result="shape"/>
</filter>
</defs>
</svg>
