<svg width="1187" height="212" viewBox="0 0 1187 212" fill="none" xmlns="http://www.w3.org/2000/svg">
<rect width="1187" height="212" fill="white"/>
<rect x="433.5" y="22.5" width="722" height="168" rx="84" stroke="#F3C653" stroke-width="5"/>
<rect x="33.5" y="22.5" width="707" height="168" rx="84" stroke="#F3C653" stroke-width="5"/>
<rect x="413" y="23" width="339" height="170" rx="50" fill="#F9C233"/>
<g filter="url(#filter0_d_252_1819)">
<path d="M522.88 89.912H534.72L534.176 86.296H523.424L522.88 89.912ZM528.736 79.864L532.096 87.64L532.032 88.792L534.912 95H540.096L528.736 71.288L517.376 95H522.528L525.472 88.6L525.376 87.576L528.736 79.864ZM553.246 70.04V95H557.406V70.04H553.246ZM541.15 87.64C541.15 89.2613 541.48 90.648 542.142 91.8C542.803 92.952 543.678 93.8267 544.766 94.424C545.854 95.0213 547.006 95.32 548.222 95.32C549.459 95.32 550.547 95.0107 551.486 94.392C552.446 93.7733 553.192 92.888 553.726 91.736C554.28 90.584 554.558 89.2187 554.558 87.64C554.558 86.04 554.28 84.6747 553.726 83.544C553.192 82.392 552.446 81.5067 551.486 80.888C550.547 80.2693 549.459 79.96 548.222 79.96C547.006 79.96 545.854 80.2587 544.766 80.856C543.678 81.4533 542.803 82.328 542.142 83.48C541.48 84.6107 541.15 85.9973 541.15 87.64ZM545.438 87.64C545.438 86.7653 545.619 86.008 545.982 85.368C546.344 84.728 546.835 84.2373 547.454 83.896C548.072 83.5547 548.734 83.384 549.438 83.384C550.056 83.384 550.654 83.5547 551.23 83.896C551.827 84.216 552.307 84.696 552.67 85.336C553.054 85.976 553.246 86.744 553.246 87.64C553.246 88.536 553.054 89.304 552.67 89.944C552.307 90.584 551.827 91.0747 551.23 91.416C550.654 91.736 550.056 91.896 549.438 91.896C548.734 91.896 548.072 91.7253 547.454 91.384C546.835 91.0427 546.344 90.552 545.982 89.912C545.619 89.272 545.438 88.5147 545.438 87.64ZM564.336 90.424C564.336 89.9973 564.432 89.6453 564.624 89.368C564.816 89.0693 565.114 88.8453 565.52 88.696C565.925 88.5253 566.448 88.44 567.088 88.44C567.877 88.44 568.624 88.5467 569.328 88.76C570.053 88.9733 570.704 89.2933 571.28 89.72V87.8C571.066 87.544 570.714 87.2773 570.224 87C569.733 86.7227 569.125 86.488 568.4 86.296C567.696 86.104 566.874 86.008 565.936 86.008C564.101 86.008 562.682 86.424 561.68 87.256C560.677 88.088 560.176 89.2187 560.176 90.648C560.176 91.6507 560.41 92.504 560.88 93.208C561.37 93.8907 562.01 94.4133 562.8 94.776C563.589 95.1387 564.442 95.32 565.36 95.32C566.256 95.32 567.109 95.16 567.92 94.84C568.752 94.52 569.424 94.04 569.936 93.4C570.469 92.76 570.736 91.9707 570.736 91.032L570.224 89.112C570.224 89.816 570.064 90.424 569.744 90.936C569.424 91.4267 569.008 91.8107 568.496 92.088C567.984 92.344 567.408 92.472 566.768 92.472C566.32 92.472 565.904 92.3973 565.52 92.248C565.157 92.0773 564.869 91.8427 564.656 91.544C564.442 91.224 564.336 90.8507 564.336 90.424ZM562.736 84.44C562.949 84.2907 563.28 84.1093 563.728 83.896C564.176 83.6827 564.709 83.5013 565.328 83.352C565.946 83.2027 566.597 83.128 567.28 83.128C567.728 83.128 568.133 83.1707 568.496 83.256C568.858 83.3413 569.168 83.48 569.424 83.672C569.701 83.864 569.904 84.1093 570.032 84.408C570.16 84.6853 570.224 85.0267 570.224 85.432V95H574.224V84.568C574.224 83.5653 573.946 82.7227 573.392 82.04C572.837 81.336 572.069 80.8027 571.088 80.44C570.106 80.0773 568.986 79.896 567.728 79.896C566.362 79.896 565.125 80.088 564.016 80.472C562.906 80.8347 561.968 81.2187 561.2 81.624L562.736 84.44ZM582.143 102.04V80.28H577.983V102.04H582.143ZM594.239 87.64C594.239 85.9547 593.909 84.536 593.247 83.384C592.586 82.2107 591.711 81.3253 590.623 80.728C589.557 80.1307 588.405 79.832 587.167 79.832C585.909 79.832 584.81 80.152 583.871 80.792C582.954 81.432 582.239 82.3387 581.727 83.512C581.237 84.664 580.991 86.04 580.991 87.64C580.991 89.2187 581.237 90.5947 581.727 91.768C582.239 92.9413 582.954 93.848 583.871 94.488C584.81 95.128 585.909 95.448 587.167 95.448C588.405 95.448 589.557 95.1493 590.623 94.552C591.711 93.9547 592.586 93.0693 593.247 91.896C593.909 90.7227 594.239 89.304 594.239 87.64ZM589.951 87.64C589.951 88.5147 589.77 89.2613 589.407 89.88C589.045 90.4987 588.554 90.968 587.935 91.288C587.338 91.608 586.677 91.768 585.951 91.768C585.333 91.768 584.725 91.6187 584.127 91.32C583.551 91 583.071 90.5307 582.687 89.912C582.325 89.2933 582.143 88.536 582.143 87.64C582.143 86.744 582.325 85.9867 582.687 85.368C583.071 84.7493 583.551 84.2907 584.127 83.992C584.725 83.672 585.333 83.512 585.951 83.512C586.677 83.512 587.338 83.672 587.935 83.992C588.554 84.312 589.045 84.7813 589.407 85.4C589.77 86.0187 589.951 86.7653 589.951 87.64ZM595.441 80.28V83.768H604.529V80.28H595.441ZM597.969 75.16V95H601.969V75.16H597.969ZM606.544 74.584C606.544 75.2453 606.789 75.8 607.28 76.248C607.77 76.696 608.357 76.92 609.04 76.92C609.722 76.92 610.298 76.696 610.768 76.248C611.258 75.8 611.504 75.2453 611.504 74.584C611.504 73.9013 611.258 73.3467 610.768 72.92C610.298 72.472 609.722 72.248 609.04 72.248C608.357 72.248 607.77 72.472 607.28 72.92C606.789 73.3467 606.544 73.9013 606.544 74.584ZM606.992 80.28V95H611.024V80.28H606.992ZM613.311 80.28L621.375 96.536L629.439 80.28H624.991L621.375 89.144L617.759 80.28H613.311ZM637.898 95.32C639.669 95.32 641.184 94.9787 642.442 94.296C643.722 93.592 644.746 92.5467 645.514 91.16L641.898 90.04C641.472 90.744 640.928 91.2773 640.266 91.64C639.626 91.9813 638.848 92.152 637.93 92.152C637.12 92.152 636.426 91.9707 635.85 91.608C635.274 91.2453 634.837 90.7227 634.538 90.04C634.261 89.3573 634.122 88.5253 634.122 87.544C634.144 86.52 634.293 85.6667 634.57 84.984C634.869 84.28 635.285 83.7573 635.818 83.416C636.373 83.0533 637.056 82.872 637.866 82.872C638.528 82.872 639.104 83.0213 639.594 83.32C640.085 83.6187 640.458 84.024 640.714 84.536C640.992 85.048 641.13 85.6667 641.13 86.392C641.13 86.5413 641.088 86.7333 641.002 86.968C640.938 87.1813 640.864 87.352 640.778 87.48L641.898 86.008H632.33V88.568H645.514C645.536 88.44 645.546 88.2693 645.546 88.056C645.568 87.8427 645.578 87.64 645.578 87.448C645.578 85.8693 645.28 84.5253 644.682 83.416C644.085 82.2853 643.21 81.432 642.058 80.856C640.928 80.2587 639.552 79.96 637.93 79.96C636.309 79.96 634.901 80.28 633.706 80.92C632.512 81.5387 631.584 82.424 630.922 83.576C630.282 84.7067 629.962 86.0613 629.962 87.64C629.962 89.1973 630.282 90.552 630.922 91.704C631.584 92.8347 632.512 93.72 633.706 94.36C634.901 95 636.298 95.32 637.898 95.32ZM567.438 128.424L573.934 138.92L580.43 128.424L581.87 141H586.638L583.31 117.48L573.934 131.944L564.558 117.48L561.23 141H565.998L567.438 128.424ZM590.229 118.6V141H603.733V137H594.805V118.6H590.229Z" fill="black"/>
</g>
<g filter="url(#filter1_d_252_1819)">
<path d="M183.066 87.7109H179.022C178.948 87.1877 178.797 86.723 178.569 86.3168C178.342 85.9044 178.049 85.5535 177.692 85.2642C177.335 84.9749 176.923 84.7533 176.455 84.5994C175.993 84.4455 175.492 84.3686 174.95 84.3686C173.971 84.3686 173.119 84.6117 172.392 85.098C171.666 85.5781 171.103 86.2798 170.703 87.2031C170.303 88.1203 170.103 89.2344 170.103 90.5455C170.103 91.8935 170.303 93.026 170.703 93.9432C171.109 94.8603 171.675 95.5528 172.402 96.0206C173.128 96.4884 173.968 96.7223 174.922 96.7223C175.458 96.7223 175.953 96.6515 176.409 96.5099C176.87 96.3684 177.28 96.1622 177.637 95.8913C177.994 95.6143 178.289 95.2789 178.523 94.8849C178.763 94.491 178.929 94.0417 179.022 93.5369L183.066 93.5554C182.961 94.4233 182.699 95.2604 182.281 96.0668C181.868 96.867 181.311 97.584 180.61 98.218C179.914 98.8459 179.083 99.3445 178.117 99.7138C177.157 100.077 176.07 100.259 174.858 100.259C173.171 100.259 171.663 99.8769 170.333 99.1136C169.01 98.3504 167.964 97.2455 167.194 95.799C166.431 94.3525 166.049 92.6013 166.049 90.5455C166.049 88.4834 166.437 86.7292 167.213 85.2827C167.988 83.8362 169.041 82.7344 170.37 81.9773C171.7 81.214 173.196 80.8324 174.858 80.8324C175.953 80.8324 176.969 80.9863 177.904 81.294C178.846 81.6018 179.68 82.0511 180.407 82.642C181.133 83.2268 181.724 83.9439 182.179 84.7933C182.641 85.6428 182.936 86.6153 183.066 87.7109ZM192.266 100.277C190.832 100.277 189.592 99.9723 188.545 99.3629C187.505 98.7474 186.702 97.8918 186.136 96.7962C185.569 95.6944 185.286 94.4171 185.286 92.9645C185.286 91.4995 185.569 90.2192 186.136 89.1236C186.702 88.0218 187.505 87.1662 188.545 86.5568C189.592 85.9413 190.832 85.6335 192.266 85.6335C193.701 85.6335 194.938 85.9413 195.978 86.5568C197.024 87.1662 197.831 88.0218 198.397 89.1236C198.963 90.2192 199.246 91.4995 199.246 92.9645C199.246 94.4171 198.963 95.6944 198.397 96.7962C197.831 97.8918 197.024 98.7474 195.978 99.3629C194.938 99.9723 193.701 100.277 192.266 100.277ZM192.285 97.2301C192.937 97.2301 193.482 97.0455 193.919 96.6761C194.356 96.3007 194.685 95.7898 194.907 95.1435C195.135 94.4972 195.249 93.7616 195.249 92.9368C195.249 92.112 195.135 91.3764 194.907 90.7301C194.685 90.0838 194.356 89.5729 193.919 89.1974C193.482 88.822 192.937 88.6342 192.285 88.6342C191.626 88.6342 191.072 88.822 190.623 89.1974C190.18 89.5729 189.844 90.0838 189.616 90.7301C189.395 91.3764 189.284 92.112 189.284 92.9368C189.284 93.7616 189.395 94.4972 189.616 95.1435C189.844 95.7898 190.18 96.3007 190.623 96.6761C191.072 97.0455 191.626 97.2301 192.285 97.2301ZM205.737 91.8011V100H201.804V85.8182H205.553V88.3203H205.719C206.033 87.4955 206.559 86.843 207.298 86.3629C208.036 85.8767 208.932 85.6335 209.984 85.6335C210.969 85.6335 211.828 85.849 212.56 86.2798C213.293 86.7107 213.862 87.3262 214.268 88.1264C214.675 88.9205 214.878 89.8684 214.878 90.9702V100H210.945V91.6719C210.951 90.804 210.729 90.1269 210.28 89.6406C209.83 89.1482 209.212 88.902 208.424 88.902C207.895 88.902 207.427 89.0159 207.021 89.2436C206.621 89.4714 206.307 89.8037 206.079 90.2408C205.857 90.6716 205.743 91.1918 205.737 91.8011ZM225.521 85.8182V88.7727H216.981V85.8182H225.521ZM218.92 82.4205H222.853V95.642C222.853 96.0052 222.908 96.2884 223.019 96.4915C223.13 96.6884 223.284 96.8269 223.481 96.907C223.684 96.987 223.918 97.027 224.182 97.027C224.367 97.027 224.552 97.0116 224.736 96.9808C224.921 96.9439 225.063 96.9162 225.161 96.8977L225.78 99.8246C225.583 99.8861 225.306 99.9569 224.949 100.037C224.592 100.123 224.158 100.175 223.647 100.194C222.699 100.231 221.868 100.105 221.154 99.8153C220.446 99.526 219.895 99.0767 219.501 98.4673C219.107 97.858 218.913 97.0885 218.92 96.1591V82.4205ZM228.083 100V85.8182H232.017V100H228.083ZM230.059 83.9901C229.474 83.9901 228.973 83.7962 228.554 83.4084C228.142 83.0144 227.936 82.5436 227.936 81.9957C227.936 81.4541 228.142 80.9893 228.554 80.6016C228.973 80.2076 229.474 80.0107 230.059 80.0107C230.644 80.0107 231.142 80.2076 231.555 80.6016C231.973 80.9893 232.183 81.4541 232.183 81.9957C232.183 82.5436 231.973 83.0144 231.555 83.4084C231.142 83.7962 230.644 83.9901 230.059 83.9901ZM239.1 91.8011V100H235.167V85.8182H238.916V88.3203H239.082C239.396 87.4955 239.922 86.843 240.661 86.3629C241.4 85.8767 242.295 85.6335 243.348 85.6335C244.333 85.6335 245.191 85.849 245.924 86.2798C246.656 86.7107 247.225 87.3262 247.632 88.1264C248.038 88.9205 248.241 89.8684 248.241 90.9702V100H244.308V91.6719C244.314 90.804 244.092 90.1269 243.643 89.6406C243.194 89.1482 242.575 88.902 241.787 88.902C241.258 88.902 240.79 89.0159 240.384 89.2436C239.984 89.4714 239.67 89.8037 239.442 90.2408C239.221 90.6716 239.107 91.1918 239.1 91.8011ZM260.436 93.9616V85.8182H264.369V100H260.593V97.424H260.445C260.125 98.255 259.592 98.9228 258.847 99.4276C258.109 99.9323 257.207 100.185 256.142 100.185C255.194 100.185 254.36 99.9692 253.64 99.5384C252.92 99.1075 252.357 98.495 251.95 97.701C251.55 96.907 251.347 95.956 251.341 94.848V85.8182H255.274V94.1463C255.28 94.9834 255.505 95.6451 255.948 96.1314C256.392 96.6177 256.985 96.8608 257.73 96.8608C258.204 96.8608 258.647 96.7531 259.06 96.5376C259.472 96.3161 259.805 95.9898 260.057 95.5589C260.316 95.1281 260.442 94.5956 260.436 93.9616ZM273.923 100.277C272.488 100.277 271.248 99.9723 270.202 99.3629C269.161 98.7474 268.358 97.8918 267.792 96.7962C267.226 95.6944 266.942 94.4171 266.942 92.9645C266.942 91.4995 267.226 90.2192 267.792 89.1236C268.358 88.0218 269.161 87.1662 270.202 86.5568C271.248 85.9413 272.488 85.6335 273.923 85.6335C275.357 85.6335 276.594 85.9413 277.634 86.5568C278.681 87.1662 279.487 88.0218 280.053 89.1236C280.62 90.2192 280.903 91.4995 280.903 92.9645C280.903 94.4171 280.62 95.6944 280.053 96.7962C279.487 97.8918 278.681 98.7474 277.634 99.3629C276.594 99.9723 275.357 100.277 273.923 100.277ZM273.941 97.2301C274.594 97.2301 275.138 97.0455 275.575 96.6761C276.012 96.3007 276.342 95.7898 276.563 95.1435C276.791 94.4972 276.905 93.7616 276.905 92.9368C276.905 92.112 276.791 91.3764 276.563 90.7301C276.342 90.0838 276.012 89.5729 275.575 89.1974C275.138 88.822 274.594 88.6342 273.941 88.6342C273.282 88.6342 272.728 88.822 272.279 89.1974C271.836 89.5729 271.5 90.0838 271.273 90.7301C271.051 91.3764 270.94 92.112 270.94 92.9368C270.94 93.7616 271.051 94.4972 271.273 95.1435C271.5 95.7898 271.836 96.3007 272.279 96.6761C272.728 97.0455 273.282 97.2301 273.941 97.2301ZM292.555 93.9616V85.8182H296.488V100H292.712V97.424H292.564C292.244 98.255 291.711 98.9228 290.967 99.4276C290.228 99.9323 289.326 100.185 288.261 100.185C287.313 100.185 286.479 99.9692 285.759 99.5384C285.039 99.1075 284.476 98.495 284.07 97.701C283.67 96.907 283.466 95.956 283.46 94.848V85.8182H287.393V94.1463C287.4 94.9834 287.624 95.6451 288.067 96.1314C288.511 96.6177 289.105 96.8608 289.849 96.8608C290.323 96.8608 290.767 96.7531 291.179 96.5376C291.591 96.3161 291.924 95.9898 292.176 95.5589C292.435 95.1281 292.561 94.5956 292.555 93.9616ZM311.434 89.8622L307.833 90.0838C307.771 89.776 307.639 89.4991 307.436 89.2528C307.233 89.0005 306.965 88.8004 306.633 88.6527C306.306 88.4988 305.916 88.4219 305.46 88.4219C304.851 88.4219 304.337 88.5511 303.918 88.8097C303.5 89.062 303.29 89.4006 303.29 89.8253C303.29 90.1638 303.426 90.45 303.697 90.6839C303.967 90.9179 304.432 91.1056 305.091 91.2472L307.657 91.7642C309.036 92.0473 310.064 92.5028 310.741 93.1307C311.418 93.7585 311.757 94.5833 311.757 95.6051C311.757 96.5346 311.483 97.3501 310.935 98.0518C310.394 98.7536 309.649 99.3014 308.701 99.6953C307.759 100.083 306.673 100.277 305.442 100.277C303.564 100.277 302.068 99.8861 300.954 99.1044C299.846 98.3165 299.197 97.2455 299.006 95.8913L302.875 95.6882C302.992 96.2607 303.275 96.6977 303.724 96.9993C304.174 97.2947 304.749 97.4425 305.451 97.4425C306.14 97.4425 306.694 97.3101 307.113 97.0455C307.537 96.7746 307.753 96.4268 307.759 96.0021C307.753 95.6451 307.602 95.3527 307.307 95.125C307.011 94.8911 306.556 94.7126 305.94 94.5895L303.484 94.1001C302.099 93.8232 301.068 93.343 300.391 92.6598C299.72 91.9766 299.385 91.1056 299.385 90.0469C299.385 89.1359 299.631 88.3511 300.123 87.6925C300.622 87.0339 301.321 86.526 302.219 86.169C303.124 85.812 304.183 85.6335 305.395 85.6335C307.187 85.6335 308.596 86.0121 309.624 86.7692C310.658 87.5263 311.261 88.5573 311.434 89.8622ZM318.167 81.0909V100H314.234V81.0909H318.167ZM323.746 105.318C323.247 105.318 322.78 105.278 322.343 105.198C321.912 105.124 321.555 105.029 321.271 104.912L322.158 101.976C322.619 102.117 323.035 102.194 323.404 102.207C323.78 102.219 324.103 102.133 324.374 101.948C324.651 101.763 324.875 101.45 325.048 101.006L325.279 100.406L320.191 85.8182H324.328L327.264 96.233H327.411L330.375 85.8182H334.539L329.027 101.533C328.762 102.296 328.402 102.961 327.947 103.527C327.498 104.099 326.928 104.54 326.239 104.847C325.549 105.161 324.718 105.318 323.746 105.318ZM126.8 131V116.818H130.613V119.293H130.761C131.02 118.412 131.453 117.748 132.063 117.298C132.672 116.843 133.374 116.615 134.168 116.615C134.365 116.615 134.577 116.627 134.805 116.652C135.033 116.677 135.233 116.71 135.405 116.754V120.244C135.221 120.188 134.965 120.139 134.639 120.096C134.313 120.053 134.014 120.031 133.743 120.031C133.165 120.031 132.648 120.157 132.192 120.41C131.743 120.656 131.386 121.001 131.121 121.444C130.863 121.887 130.733 122.398 130.733 122.977V131H126.8ZM143.242 131.277C141.783 131.277 140.527 130.982 139.475 130.391C138.428 129.794 137.622 128.95 137.056 127.861C136.489 126.765 136.206 125.469 136.206 123.974C136.206 122.515 136.489 121.235 137.056 120.133C137.622 119.031 138.419 118.172 139.447 117.557C140.481 116.941 141.694 116.634 143.085 116.634C144.02 116.634 144.891 116.784 145.698 117.086C146.51 117.381 147.218 117.828 147.821 118.425C148.431 119.022 148.905 119.773 149.243 120.678C149.582 121.576 149.751 122.629 149.751 123.835V124.915H137.776V122.478H146.048C146.048 121.912 145.925 121.41 145.679 120.973C145.433 120.536 145.091 120.194 144.654 119.948C144.223 119.696 143.722 119.57 143.149 119.57C142.552 119.57 142.023 119.708 141.561 119.985C141.106 120.256 140.749 120.622 140.49 121.084C140.232 121.539 140.099 122.047 140.093 122.607V124.925C140.093 125.626 140.222 126.233 140.481 126.744C140.746 127.254 141.118 127.648 141.598 127.925C142.078 128.202 142.648 128.341 143.306 128.341C143.743 128.341 144.143 128.279 144.507 128.156C144.87 128.033 145.181 127.848 145.439 127.602C145.698 127.356 145.895 127.054 146.03 126.697L149.668 126.938C149.483 127.812 149.105 128.575 148.532 129.227C147.966 129.874 147.233 130.378 146.335 130.741C145.442 131.098 144.411 131.277 143.242 131.277ZM159.861 116.818V119.773H151.32V116.818H159.861ZM153.259 113.42H157.193V126.642C157.193 127.005 157.248 127.288 157.359 127.491C157.47 127.688 157.624 127.827 157.82 127.907C158.024 127.987 158.258 128.027 158.522 128.027C158.707 128.027 158.892 128.012 159.076 127.981C159.261 127.944 159.402 127.916 159.501 127.898L160.119 130.825C159.923 130.886 159.646 130.957 159.289 131.037C158.932 131.123 158.498 131.175 157.987 131.194C157.039 131.231 156.208 131.105 155.494 130.815C154.786 130.526 154.235 130.077 153.841 129.467C153.447 128.858 153.253 128.089 153.259 127.159V113.42ZM162.423 131V116.818H166.236V119.293H166.384C166.643 118.412 167.077 117.748 167.686 117.298C168.295 116.843 168.997 116.615 169.791 116.615C169.988 116.615 170.2 116.627 170.428 116.652C170.656 116.677 170.856 116.71 171.028 116.754V120.244C170.844 120.188 170.588 120.139 170.262 120.096C169.936 120.053 169.637 120.031 169.366 120.031C168.788 120.031 168.271 120.157 167.815 120.41C167.366 120.656 167.009 121.001 166.744 121.444C166.486 121.887 166.356 122.398 166.356 122.977V131H162.423ZM176.7 131.268C175.795 131.268 174.988 131.111 174.281 130.797C173.573 130.477 173.013 130.006 172.6 129.384C172.194 128.756 171.991 127.975 171.991 127.039C171.991 126.251 172.135 125.589 172.425 125.054C172.714 124.518 173.108 124.088 173.607 123.761C174.105 123.435 174.671 123.189 175.305 123.023C175.946 122.857 176.616 122.74 177.318 122.672C178.143 122.586 178.808 122.506 179.312 122.432C179.817 122.352 180.183 122.235 180.411 122.081C180.639 121.927 180.753 121.699 180.753 121.398V121.342C180.753 120.758 180.568 120.305 180.199 119.985C179.836 119.665 179.319 119.505 178.648 119.505C177.94 119.505 177.377 119.662 176.958 119.976C176.54 120.284 176.263 120.671 176.127 121.139L172.489 120.844C172.674 119.982 173.037 119.237 173.579 118.609C174.121 117.975 174.819 117.489 175.675 117.151C176.536 116.806 177.534 116.634 178.666 116.634C179.454 116.634 180.208 116.726 180.928 116.911C181.655 117.095 182.298 117.381 182.858 117.769C183.424 118.157 183.871 118.656 184.197 119.265C184.523 119.868 184.686 120.591 184.686 121.435V131H180.956V129.033H180.845C180.617 129.477 180.313 129.867 179.931 130.206C179.549 130.538 179.091 130.8 178.555 130.991C178.02 131.175 177.401 131.268 176.7 131.268ZM177.826 128.553C178.405 128.553 178.915 128.439 179.359 128.212C179.802 127.978 180.15 127.664 180.402 127.27C180.654 126.876 180.781 126.43 180.781 125.931V124.426C180.657 124.506 180.488 124.58 180.273 124.648C180.063 124.709 179.826 124.768 179.562 124.823C179.297 124.872 179.032 124.919 178.768 124.962C178.503 124.999 178.263 125.032 178.048 125.063C177.586 125.131 177.183 125.239 176.838 125.386C176.493 125.534 176.226 125.734 176.035 125.987C175.844 126.233 175.749 126.54 175.749 126.91C175.749 127.445 175.942 127.855 176.33 128.138C176.724 128.415 177.223 128.553 177.826 128.553ZM187.738 131V116.818H191.671V131H187.738ZM189.713 114.99C189.129 114.99 188.627 114.796 188.208 114.408C187.796 114.014 187.59 113.544 187.59 112.996C187.59 112.454 187.796 111.989 188.208 111.602C188.627 111.208 189.129 111.011 189.713 111.011C190.298 111.011 190.797 111.208 191.209 111.602C191.628 111.989 191.837 112.454 191.837 112.996C191.837 113.544 191.628 114.014 191.209 114.408C190.797 114.796 190.298 114.99 189.713 114.99ZM198.755 122.801V131H194.822V116.818H198.57V119.32H198.736C199.05 118.496 199.577 117.843 200.315 117.363C201.054 116.877 201.949 116.634 203.002 116.634C203.987 116.634 204.845 116.849 205.578 117.28C206.31 117.711 206.88 118.326 207.286 119.126C207.692 119.92 207.895 120.868 207.895 121.97V131H203.962V122.672C203.968 121.804 203.747 121.127 203.297 120.641C202.848 120.148 202.229 119.902 201.442 119.902C200.912 119.902 200.444 120.016 200.038 120.244C199.638 120.471 199.324 120.804 199.096 121.241C198.875 121.672 198.761 122.192 198.755 122.801ZM217.458 131.277C216 131.277 214.744 130.982 213.691 130.391C212.645 129.794 211.839 128.95 211.272 127.861C210.706 126.765 210.423 125.469 210.423 123.974C210.423 122.515 210.706 121.235 211.272 120.133C211.839 119.031 212.636 118.172 213.664 117.557C214.698 116.941 215.91 116.634 217.301 116.634C218.237 116.634 219.108 116.784 219.914 117.086C220.727 117.381 221.435 117.828 222.038 118.425C222.647 119.022 223.121 119.773 223.46 120.678C223.798 121.576 223.968 122.629 223.968 123.835V124.915H211.993V122.478H220.265C220.265 121.912 220.142 121.41 219.896 120.973C219.65 120.536 219.308 120.194 218.871 119.948C218.44 119.696 217.939 119.57 217.366 119.57C216.769 119.57 216.24 119.708 215.778 119.985C215.323 120.256 214.966 120.622 214.707 121.084C214.449 121.539 214.316 122.047 214.31 122.607V124.925C214.31 125.626 214.439 126.233 214.698 126.744C214.962 127.254 215.335 127.648 215.815 127.925C216.295 128.202 216.864 128.341 217.523 128.341C217.96 128.341 218.36 128.279 218.723 128.156C219.087 128.033 219.397 127.848 219.656 127.602C219.914 127.356 220.111 127.054 220.247 126.697L223.885 126.938C223.7 127.812 223.321 128.575 222.749 129.227C222.183 129.874 221.45 130.378 220.551 130.741C219.659 131.098 218.628 131.277 217.458 131.277ZM231.76 131.231C230.683 131.231 229.708 130.954 228.833 130.4C227.966 129.84 227.276 129.018 226.765 127.935C226.261 126.845 226.008 125.509 226.008 123.928C226.008 122.303 226.27 120.951 226.793 119.874C227.316 118.791 228.012 117.982 228.88 117.446C229.754 116.904 230.711 116.634 231.751 116.634C232.545 116.634 233.207 116.769 233.736 117.04C234.272 117.304 234.703 117.637 235.029 118.037C235.361 118.431 235.614 118.819 235.786 119.2H235.906V112.091H239.83V131H235.952V128.729H235.786C235.601 129.123 235.34 129.513 235.001 129.901C234.669 130.283 234.235 130.6 233.699 130.852C233.17 131.105 232.524 131.231 231.76 131.231ZM233.007 128.101C233.641 128.101 234.176 127.929 234.613 127.584C235.056 127.233 235.395 126.744 235.629 126.116C235.869 125.488 235.989 124.752 235.989 123.909C235.989 123.066 235.872 122.333 235.638 121.712C235.404 121.09 235.066 120.61 234.623 120.271C234.179 119.933 233.641 119.763 233.007 119.763C232.36 119.763 231.816 119.939 231.373 120.29C230.929 120.641 230.594 121.127 230.366 121.749C230.138 122.37 230.025 123.09 230.025 123.909C230.025 124.734 230.138 125.463 230.366 126.097C230.6 126.725 230.935 127.218 231.373 127.575C231.816 127.925 232.36 128.101 233.007 128.101ZM249.155 112.091H254.086L259.293 124.795H259.515L264.722 112.091H269.652V131H265.775V118.692H265.618L260.724 130.908H258.083L253.19 118.646H253.033V131H249.155V112.091ZM279.28 131.277C277.846 131.277 276.606 130.972 275.559 130.363C274.519 129.747 273.716 128.892 273.149 127.796C272.583 126.694 272.3 125.417 272.3 123.964C272.3 122.5 272.583 121.219 273.149 120.124C273.716 119.022 274.519 118.166 275.559 117.557C276.606 116.941 277.846 116.634 279.28 116.634C280.714 116.634 281.951 116.941 282.992 117.557C284.038 118.166 284.844 119.022 285.411 120.124C285.977 121.219 286.26 122.5 286.26 123.964C286.26 125.417 285.977 126.694 285.411 127.796C284.844 128.892 284.038 129.747 282.992 130.363C281.951 130.972 280.714 131.277 279.28 131.277ZM279.298 128.23C279.951 128.23 280.496 128.045 280.933 127.676C281.37 127.301 281.699 126.79 281.921 126.143C282.148 125.497 282.262 124.762 282.262 123.937C282.262 123.112 282.148 122.376 281.921 121.73C281.699 121.084 281.37 120.573 280.933 120.197C280.496 119.822 279.951 119.634 279.298 119.634C278.64 119.634 278.086 119.822 277.637 120.197C277.193 120.573 276.858 121.084 276.63 121.73C276.409 122.376 276.298 123.112 276.298 123.937C276.298 124.762 276.409 125.497 276.63 126.143C276.858 126.79 277.193 127.301 277.637 127.676C278.086 128.045 278.64 128.23 279.298 128.23ZM294.044 131.231C292.966 131.231 291.991 130.954 291.117 130.4C290.249 129.84 289.559 129.018 289.048 127.935C288.544 126.845 288.291 125.509 288.291 123.928C288.291 122.303 288.553 120.951 289.076 119.874C289.599 118.791 290.295 117.982 291.163 117.446C292.037 116.904 292.994 116.634 294.034 116.634C294.828 116.634 295.49 116.769 296.019 117.04C296.555 117.304 296.986 117.637 297.312 118.037C297.644 118.431 297.897 118.819 298.069 119.2H298.189V112.091H302.113V131H298.235V128.729H298.069C297.884 129.123 297.623 129.513 297.284 129.901C296.952 130.283 296.518 130.6 295.982 130.852C295.453 131.105 294.807 131.231 294.044 131.231ZM295.29 128.101C295.924 128.101 296.459 127.929 296.896 127.584C297.34 127.233 297.678 126.744 297.912 126.116C298.152 125.488 298.272 124.752 298.272 123.909C298.272 123.066 298.155 122.333 297.921 121.712C297.687 121.09 297.349 120.61 296.906 120.271C296.463 119.933 295.924 119.763 295.29 119.763C294.644 119.763 294.099 119.939 293.656 120.29C293.213 120.641 292.877 121.127 292.649 121.749C292.422 122.37 292.308 123.09 292.308 123.909C292.308 124.734 292.422 125.463 292.649 126.097C292.883 126.725 293.219 127.218 293.656 127.575C294.099 127.925 294.644 128.101 295.29 128.101ZM311.81 131.277C310.351 131.277 309.096 130.982 308.043 130.391C306.997 129.794 306.19 128.95 305.624 127.861C305.058 126.765 304.775 125.469 304.775 123.974C304.775 122.515 305.058 121.235 305.624 120.133C306.19 119.031 306.987 118.172 308.015 117.557C309.049 116.941 310.262 116.634 311.653 116.634C312.589 116.634 313.46 116.784 314.266 117.086C315.078 117.381 315.786 117.828 316.39 118.425C316.999 119.022 317.473 119.773 317.811 120.678C318.15 121.576 318.319 122.629 318.319 123.835V124.915H306.344V122.478H314.617C314.617 121.912 314.494 121.41 314.248 120.973C314.001 120.536 313.66 120.194 313.223 119.948C312.792 119.696 312.29 119.57 311.718 119.57C311.121 119.57 310.591 119.708 310.13 119.985C309.674 120.256 309.317 120.622 309.059 121.084C308.8 121.539 308.668 122.047 308.662 122.607V124.925C308.662 125.626 308.791 126.233 309.049 126.744C309.314 127.254 309.686 127.648 310.167 127.925C310.647 128.202 311.216 128.341 311.875 128.341C312.312 128.341 312.712 128.279 313.075 128.156C313.438 128.033 313.749 127.848 314.007 127.602C314.266 127.356 314.463 127.054 314.598 126.697L318.236 126.938C318.051 127.812 317.673 128.575 317.1 129.227C316.534 129.874 315.802 130.378 314.903 130.741C314.011 131.098 312.98 131.277 311.81 131.277ZM324.819 112.091V131H320.886V112.091H324.819ZM339.77 120.862L336.169 121.084C336.107 120.776 335.975 120.499 335.772 120.253C335.569 120 335.301 119.8 334.969 119.653C334.642 119.499 334.251 119.422 333.796 119.422C333.187 119.422 332.673 119.551 332.254 119.81C331.836 120.062 331.626 120.401 331.626 120.825C331.626 121.164 331.762 121.45 332.032 121.684C332.303 121.918 332.768 122.106 333.427 122.247L335.993 122.764C337.372 123.047 338.4 123.503 339.077 124.131C339.754 124.759 340.093 125.583 340.093 126.605C340.093 127.535 339.819 128.35 339.271 129.052C338.729 129.754 337.985 130.301 337.037 130.695C336.095 131.083 335.009 131.277 333.778 131.277C331.9 131.277 330.404 130.886 329.29 130.104C328.182 129.317 327.533 128.246 327.342 126.891L331.211 126.688C331.328 127.261 331.611 127.698 332.06 127.999C332.51 128.295 333.085 128.442 333.787 128.442C334.476 128.442 335.03 128.31 335.449 128.045C335.873 127.775 336.089 127.427 336.095 127.002C336.089 126.645 335.938 126.353 335.643 126.125C335.347 125.891 334.892 125.713 334.276 125.589L331.82 125.1C330.435 124.823 329.404 124.343 328.727 123.66C328.056 122.977 327.721 122.106 327.721 121.047C327.721 120.136 327.967 119.351 328.459 118.692C328.958 118.034 329.657 117.526 330.555 117.169C331.46 116.812 332.519 116.634 333.731 116.634C335.523 116.634 336.932 117.012 337.96 117.769C338.994 118.526 339.597 119.557 339.77 120.862Z" fill="black"/>
</g>
<g filter="url(#filter2_d_252_1819)">
<path d="M805.643 100V81.0909H813.214C814.606 81.0909 815.766 81.2971 816.695 81.7095C817.625 82.1219 818.323 82.6944 818.791 83.4268C819.259 84.1532 819.493 84.9903 819.493 85.9382C819.493 86.6768 819.345 87.3262 819.05 87.8864C818.754 88.4403 818.348 88.8958 817.831 89.2528C817.32 89.6037 816.735 89.853 816.077 90.0007V90.1854C816.797 90.2161 817.471 90.4193 818.099 90.7947C818.733 91.1702 819.247 91.6965 819.641 92.3736C820.035 93.0445 820.232 93.8447 820.232 94.7741C820.232 95.7775 819.982 96.6731 819.484 97.4609C818.991 98.2427 818.262 98.8613 817.295 99.3168C816.329 99.7723 815.138 100 813.722 100H805.643ZM809.641 96.7315H812.901C814.015 96.7315 814.827 96.5192 815.338 96.0945C815.849 95.6636 816.104 95.0911 816.104 94.3771C816.104 93.8539 815.978 93.3923 815.726 92.9922C815.473 92.5921 815.113 92.2782 814.646 92.0504C814.184 91.8227 813.633 91.7088 812.993 91.7088H809.641V96.7315ZM809.641 89.0036H812.605C813.153 89.0036 813.639 88.9081 814.064 88.7173C814.495 88.5204 814.833 88.2434 815.08 87.8864C815.332 87.5294 815.458 87.1016 815.458 86.603C815.458 85.9197 815.215 85.3688 814.729 84.9503C814.249 84.5317 813.565 84.3224 812.679 84.3224H809.641V89.0036ZM826.803 100.268C825.898 100.268 825.092 100.111 824.384 99.7969C823.676 99.4768 823.116 99.0059 822.704 98.3842C822.297 97.7564 822.094 96.9747 822.094 96.0391C822.094 95.2512 822.239 94.5895 822.528 94.054C822.818 93.5185 823.211 93.0876 823.71 92.7614C824.209 92.4351 824.775 92.1889 825.409 92.0227C826.049 91.8565 826.72 91.7396 827.422 91.6719C828.247 91.5857 828.911 91.5057 829.416 91.4318C829.921 91.3518 830.287 91.2348 830.515 91.081C830.742 90.9271 830.856 90.6993 830.856 90.3977V90.3423C830.856 89.7576 830.672 89.3052 830.302 88.9851C829.939 88.665 829.422 88.505 828.751 88.505C828.043 88.505 827.48 88.6619 827.062 88.9759C826.643 89.2836 826.366 89.6714 826.231 90.1392L822.593 89.8438C822.778 88.982 823.141 88.2372 823.682 87.6094C824.224 86.9754 824.923 86.4891 825.778 86.1506C826.64 85.8059 827.637 85.6335 828.77 85.6335C829.558 85.6335 830.312 85.7259 831.032 85.9105C831.758 86.0952 832.401 86.3814 832.961 86.7692C833.528 87.157 833.974 87.6555 834.3 88.2649C834.626 88.8681 834.79 89.5914 834.79 90.4347V100H831.059V98.0334H830.949C830.721 98.4766 830.416 98.8674 830.035 99.206C829.653 99.5384 829.194 99.8 828.659 99.9908C828.123 100.175 827.505 100.268 826.803 100.268ZM827.93 97.5533C828.508 97.5533 829.019 97.4394 829.462 97.2116C829.905 96.9777 830.253 96.6638 830.506 96.2699C830.758 95.8759 830.884 95.4297 830.884 94.9311V93.4261C830.761 93.5062 830.592 93.58 830.376 93.6477C830.167 93.7093 829.93 93.7678 829.665 93.8232C829.401 93.8724 829.136 93.9186 828.871 93.9616C828.607 93.9986 828.367 94.0324 828.151 94.0632C827.689 94.1309 827.286 94.2386 826.942 94.3864C826.597 94.5341 826.329 94.7341 826.138 94.9865C825.948 95.2327 825.852 95.5405 825.852 95.9098C825.852 96.4453 826.046 96.8546 826.434 97.1378C826.828 97.4148 827.326 97.5533 827.93 97.5533ZM844.249 100.277C842.796 100.277 841.547 99.9692 840.5 99.3537C839.46 98.732 838.66 97.8703 838.1 96.7685C837.546 95.6667 837.269 94.3987 837.269 92.9645C837.269 91.5118 837.549 90.2377 838.109 89.142C838.675 88.0402 839.478 87.1816 840.519 86.5661C841.559 85.9444 842.796 85.6335 844.23 85.6335C845.468 85.6335 846.551 85.8582 847.48 86.3075C848.41 86.7569 849.145 87.3878 849.687 88.2003C850.229 89.0128 850.527 89.9669 850.583 91.0625H846.871C846.766 90.3546 846.489 89.7853 846.04 89.3544C845.597 88.9174 845.015 88.6989 844.295 88.6989C843.686 88.6989 843.153 88.8651 842.698 89.1974C842.248 89.5237 841.897 90.0007 841.645 90.6286C841.393 91.2564 841.267 92.0166 841.267 92.9091C841.267 93.8139 841.39 94.5833 841.636 95.2173C841.888 95.8513 842.242 96.3345 842.698 96.6669C843.153 96.9993 843.686 97.1655 844.295 97.1655C844.744 97.1655 845.147 97.0732 845.504 96.8885C845.868 96.7038 846.166 96.4361 846.4 96.0852C846.64 95.7282 846.797 95.3004 846.871 94.8018H850.583C850.521 95.8852 850.226 96.8393 849.696 97.6641C849.173 98.4827 848.45 99.1229 847.526 99.5845C846.603 100.046 845.511 100.277 844.249 100.277ZM856.665 95.919L856.674 91.201H857.246L861.789 85.8182H866.304L860.201 92.946H859.268L856.665 95.919ZM853.101 100V81.0909H857.034V100H853.101ZM861.964 100L857.791 93.8232L860.413 91.044L866.572 100H861.964ZM875.777 85.8182V88.7727H867.237V85.8182H875.777ZM869.175 82.4205H873.109V95.642C873.109 96.0052 873.164 96.2884 873.275 96.4915C873.386 96.6884 873.54 96.8269 873.737 96.907C873.94 96.987 874.174 97.027 874.438 97.027C874.623 97.027 874.808 97.0116 874.992 96.9808C875.177 96.9439 875.318 96.9162 875.417 96.8977L876.036 99.8246C875.839 99.8861 875.562 99.9569 875.205 100.037C874.848 100.123 874.414 100.175 873.903 100.194C872.955 100.231 872.124 100.105 871.41 99.8153C870.702 99.526 870.151 99.0767 869.757 98.4673C869.363 97.858 869.169 97.0885 869.175 96.1591V82.4205ZM884.65 100.277C883.191 100.277 881.935 99.9815 880.883 99.3906C879.836 98.7936 879.03 97.9503 878.464 96.8608C877.897 95.7652 877.614 94.4695 877.614 92.9737C877.614 91.5149 877.897 90.2346 878.464 89.1328C879.03 88.031 879.827 87.1723 880.855 86.5568C881.889 85.9413 883.102 85.6335 884.493 85.6335C885.429 85.6335 886.299 85.7843 887.106 86.0859C887.918 86.3814 888.626 86.8277 889.229 87.4247C889.839 88.0218 890.313 88.7727 890.651 89.6776C890.99 90.5762 891.159 91.6288 891.159 92.8352V93.9155H879.184V91.478H887.457C887.457 90.9117 887.334 90.41 887.087 89.973C886.841 89.536 886.5 89.1944 886.062 88.9482C885.632 88.6958 885.13 88.5696 884.558 88.5696C883.96 88.5696 883.431 88.7081 882.969 88.9851C882.514 89.2559 882.157 89.6222 881.898 90.0838C881.64 90.5393 881.508 91.0471 881.501 91.6072V93.9247C881.501 94.6264 881.631 95.2327 881.889 95.7436C882.154 96.2545 882.526 96.6484 883.006 96.9254C883.487 97.2024 884.056 97.3409 884.714 97.3409C885.152 97.3409 885.552 97.2794 885.915 97.1562C886.278 97.0331 886.589 96.8485 886.847 96.6023C887.106 96.3561 887.303 96.0545 887.438 95.6974L891.076 95.9375C890.891 96.8116 890.513 97.5748 889.94 98.2273C889.374 98.8736 888.642 99.3783 887.743 99.7415C886.85 100.098 885.819 100.277 884.65 100.277ZM905.526 89.8622L901.925 90.0838C901.863 89.776 901.731 89.4991 901.528 89.2528C901.325 89.0005 901.057 88.8004 900.724 88.6527C900.398 88.4988 900.007 88.4219 899.552 88.4219C898.942 88.4219 898.429 88.5511 898.01 88.8097C897.591 89.062 897.382 89.4006 897.382 89.8253C897.382 90.1638 897.518 90.45 897.788 90.6839C898.059 90.9179 898.524 91.1056 899.183 91.2472L901.749 91.7642C903.128 92.0473 904.156 92.5028 904.833 93.1307C905.51 93.7585 905.849 94.5833 905.849 95.6051C905.849 96.5346 905.575 97.3501 905.027 98.0518C904.485 98.7536 903.741 99.3014 902.793 99.6953C901.851 100.083 900.764 100.277 899.533 100.277C897.656 100.277 896.16 99.8861 895.046 99.1044C893.938 98.3165 893.289 97.2455 893.098 95.8913L896.967 95.6882C897.084 96.2607 897.367 96.6977 897.816 96.9993C898.265 97.2947 898.841 97.4425 899.543 97.4425C900.232 97.4425 900.786 97.3101 901.205 97.0455C901.629 96.7746 901.845 96.4268 901.851 96.0021C901.845 95.6451 901.694 95.3527 901.398 95.125C901.103 94.8911 900.647 94.7126 900.032 94.5895L897.576 94.1001C896.191 93.8232 895.16 93.343 894.483 92.6598C893.812 91.9766 893.477 91.1056 893.477 90.0469C893.477 89.1359 893.723 88.3511 894.215 87.6925C894.714 87.0339 895.412 86.526 896.311 86.169C897.216 85.812 898.275 85.6335 899.487 85.6335C901.278 85.6335 902.688 86.0121 903.716 86.7692C904.75 87.5263 905.353 88.5573 905.526 89.8622ZM915.869 85.8182V88.7727H907.328V85.8182H915.869ZM909.267 82.4205H913.2V95.642C913.2 96.0052 913.256 96.2884 913.367 96.4915C913.477 96.6884 913.631 96.8269 913.828 96.907C914.031 96.987 914.265 97.027 914.53 97.027C914.715 97.027 914.899 97.0116 915.084 96.9808C915.269 96.9439 915.41 96.9162 915.509 96.8977L916.127 99.8246C915.93 99.8861 915.653 99.9569 915.296 100.037C914.939 100.123 914.505 100.175 913.994 100.194C913.047 100.231 912.216 100.105 911.502 99.8153C910.794 99.526 910.243 99.0767 909.849 98.4673C909.455 97.858 909.261 97.0885 909.267 96.1591V82.4205ZM924.742 100.277C923.283 100.277 922.027 99.9815 920.975 99.3906C919.928 98.7936 919.122 97.9503 918.556 96.8608C917.989 95.7652 917.706 94.4695 917.706 92.9737C917.706 91.5149 917.989 90.2346 918.556 89.1328C919.122 88.031 919.919 87.1723 920.947 86.5568C921.981 85.9413 923.194 85.6335 924.585 85.6335C925.52 85.6335 926.391 85.7843 927.198 86.0859C928.01 86.3814 928.718 86.8277 929.321 87.4247C929.931 88.0218 930.405 88.7727 930.743 89.6776C931.082 90.5762 931.251 91.6288 931.251 92.8352V93.9155H919.276V91.478H927.548C927.548 90.9117 927.425 90.41 927.179 89.973C926.933 89.536 926.591 89.1944 926.154 88.9482C925.723 88.6958 925.222 88.5696 924.649 88.5696C924.052 88.5696 923.523 88.7081 923.061 88.9851C922.606 89.2559 922.249 89.6222 921.99 90.0838C921.732 90.5393 921.599 91.0471 921.593 91.6072V93.9247C921.593 94.6264 921.722 95.2327 921.981 95.7436C922.246 96.2545 922.618 96.6484 923.098 96.9254C923.578 97.2024 924.148 97.3409 924.806 97.3409C925.243 97.3409 925.643 97.2794 926.007 97.1562C926.37 97.0331 926.681 96.8485 926.939 96.6023C927.198 96.3561 927.395 96.0545 927.53 95.6974L931.168 95.9375C930.983 96.8116 930.605 97.5748 930.032 98.2273C929.466 98.8736 928.733 99.3783 927.835 99.7415C926.942 100.098 925.911 100.277 924.742 100.277ZM939.044 100.231C937.966 100.231 936.991 99.9538 936.117 99.3999C935.249 98.8397 934.559 98.018 934.048 96.9347C933.544 95.8452 933.291 94.5095 933.291 92.9276C933.291 91.3026 933.553 89.9515 934.076 88.8743C934.599 87.791 935.295 86.9815 936.163 86.446C937.037 85.9044 937.994 85.6335 939.034 85.6335C939.828 85.6335 940.49 85.7689 941.019 86.0398C941.555 86.3045 941.986 86.6368 942.312 87.0369C942.644 87.4309 942.897 87.8187 943.069 88.2003H943.189V81.0909H947.113V100H943.235V97.7287H943.069C942.884 98.1226 942.623 98.5135 942.284 98.9013C941.952 99.2829 941.518 99.5999 940.982 99.8523C940.453 100.105 939.807 100.231 939.044 100.231ZM940.29 97.1009C940.924 97.1009 941.459 96.9285 941.896 96.5838C942.34 96.233 942.678 95.7436 942.912 95.1158C943.152 94.4879 943.272 93.7524 943.272 92.9091C943.272 92.0658 943.155 91.3333 942.921 90.7116C942.687 90.09 942.349 89.6098 941.906 89.2713C941.463 88.9328 940.924 88.7635 940.29 88.7635C939.644 88.7635 939.099 88.9389 938.656 89.2898C938.213 89.6406 937.877 90.1269 937.649 90.7486C937.422 91.3703 937.308 92.0904 937.308 92.9091C937.308 93.7339 937.422 94.4633 937.649 95.0973C937.883 95.7251 938.219 96.2176 938.656 96.5746C939.099 96.9254 939.644 97.1009 940.29 97.1009ZM962.551 100.295C961.27 100.295 960.147 99.9908 959.181 99.3814C958.22 98.772 957.469 97.9195 956.928 96.8239C956.392 95.7282 956.124 94.4479 956.124 92.983C956.124 91.5057 956.392 90.2161 956.928 89.1143C957.469 88.0125 958.22 87.157 959.181 86.5476C960.147 85.9382 961.27 85.6335 962.551 85.6335C963.831 85.6335 964.951 85.9382 965.911 86.5476C966.878 87.157 967.629 88.0125 968.164 89.1143C968.706 90.2161 968.977 91.5057 968.977 92.983C968.977 94.4479 968.706 95.7282 968.164 96.8239C967.629 97.9195 966.878 98.772 965.911 99.3814C964.951 99.9908 963.831 100.295 962.551 100.295ZM962.551 98.3381C963.523 98.3381 964.323 98.0888 964.951 97.5902C965.579 97.0916 966.044 96.4361 966.345 95.6236C966.647 94.8111 966.798 93.9309 966.798 92.983C966.798 92.035 966.647 91.1518 966.345 90.3331C966.044 89.5144 965.579 88.8527 964.951 88.348C964.323 87.8433 963.523 87.5909 962.551 87.5909C961.578 87.5909 960.778 87.8433 960.15 88.348C959.522 88.8527 959.057 89.5144 958.756 90.3331C958.454 91.1518 958.303 92.035 958.303 92.983C958.303 93.9309 958.454 94.8111 958.756 95.6236C959.057 96.4361 959.522 97.0916 960.15 97.5902C960.778 98.0888 961.578 98.3381 962.551 98.3381ZM974.482 91.4688V100H972.303V85.8182H974.408V88.0341H974.593C974.925 87.3139 975.43 86.7353 976.107 86.2983C976.784 85.8551 977.658 85.6335 978.729 85.6335C979.689 85.6335 980.529 85.8305 981.25 86.2244C981.97 86.6122 982.53 87.2031 982.93 87.9972C983.33 88.785 983.53 89.7822 983.53 90.9886V100H981.351V91.1364C981.351 90.0223 981.062 89.1544 980.483 88.5327C979.905 87.9048 979.111 87.5909 978.101 87.5909C977.406 87.5909 976.784 87.7417 976.236 88.0433C975.694 88.3449 975.267 88.785 974.953 89.3636C974.639 89.9422 974.482 90.6439 974.482 91.4688ZM998.998 100.332C998.099 100.332 997.283 100.163 996.551 99.8246C995.818 99.4799 995.237 98.9844 994.806 98.3381C994.375 97.6856 994.16 96.8977 994.16 95.9744C994.16 95.1619 994.32 94.5033 994.64 93.9986C994.96 93.4877 995.388 93.0876 995.923 92.7983C996.459 92.509 997.05 92.2936 997.696 92.152C998.348 92.0043 999.004 91.8873 999.662 91.8011C1000.52 91.6903 1001.22 91.6072 1001.76 91.5518C1002.3 91.4903 1002.69 91.3887 1002.94 91.2472C1003.19 91.1056 1003.32 90.8594 1003.32 90.5085V90.4347C1003.32 89.5237 1003.07 88.8158 1002.57 88.3111C1002.08 87.8063 1001.33 87.554 1000.33 87.554C999.287 87.554 998.471 87.7817 997.881 88.2372C997.29 88.6927 996.874 89.179 996.634 89.696L994.566 88.9574C994.935 88.0956 995.428 87.4247 996.043 86.9446C996.665 86.4583 997.342 86.1198 998.074 85.929C998.813 85.732 999.539 85.6335 1000.25 85.6335C1000.71 85.6335 1001.23 85.6889 1001.82 85.7997C1002.42 85.9044 1003 86.1229 1003.55 86.4553C1004.11 86.7876 1004.57 87.2893 1004.94 87.9602C1005.31 88.6312 1005.5 89.5298 1005.5 90.6562V100H1003.32V98.0795H1003.21C1003.06 98.3873 1002.81 98.7166 1002.47 99.0675C1002.12 99.4183 1001.67 99.7169 1001.09 99.9631C1000.52 100.209 999.823 100.332 998.998 100.332ZM999.33 98.375C1000.19 98.375 1000.92 98.2057 1001.51 97.8672C1002.11 97.5286 1002.56 97.0916 1002.86 96.5561C1003.16 96.0206 1003.32 95.4574 1003.32 94.8665V92.8722C1003.23 92.983 1003.02 93.0845 1002.71 93.1768C1002.4 93.263 1002.04 93.34 1001.64 93.4077C1001.24 93.4692 1000.85 93.5246 1000.47 93.5739C1000.09 93.617 999.786 93.6539 999.552 93.6847C998.985 93.7585 998.456 93.8786 997.964 94.0447C997.477 94.2048 997.083 94.4479 996.782 94.7741C996.486 95.0942 996.339 95.5312 996.339 96.0852C996.339 96.8423 996.619 97.4148 997.179 97.8026C997.745 98.1842 998.462 98.375 999.33 98.375ZM815.901 117.529C815.827 116.784 815.51 116.206 814.95 115.793C814.39 115.381 813.63 115.175 812.67 115.175C812.017 115.175 811.466 115.267 811.017 115.452C810.568 115.63 810.223 115.879 809.983 116.2C809.749 116.52 809.632 116.883 809.632 117.289C809.62 117.628 809.691 117.923 809.844 118.175C810.004 118.428 810.223 118.646 810.5 118.831C810.777 119.009 811.097 119.166 811.46 119.302C811.823 119.431 812.211 119.542 812.624 119.634L814.322 120.04C815.147 120.225 815.904 120.471 816.594 120.779C817.283 121.087 817.88 121.465 818.385 121.915C818.89 122.364 819.281 122.893 819.558 123.503C819.841 124.112 819.985 124.811 819.991 125.599C819.985 126.756 819.69 127.759 819.105 128.609C818.527 129.452 817.689 130.107 816.594 130.575C815.504 131.037 814.19 131.268 812.651 131.268C811.125 131.268 809.795 131.034 808.663 130.566C807.536 130.098 806.656 129.406 806.022 128.489C805.394 127.565 805.065 126.424 805.034 125.063H808.903C808.946 125.697 809.127 126.227 809.447 126.651C809.774 127.07 810.208 127.387 810.749 127.602C811.297 127.812 811.916 127.916 812.605 127.916C813.282 127.916 813.87 127.818 814.369 127.621C814.873 127.424 815.264 127.15 815.541 126.799C815.818 126.448 815.957 126.045 815.957 125.589C815.957 125.165 815.83 124.808 815.578 124.518C815.332 124.229 814.969 123.983 814.489 123.78C814.015 123.577 813.433 123.392 812.744 123.226L810.685 122.709C809.09 122.321 807.832 121.715 806.908 120.89C805.985 120.065 805.527 118.954 805.533 117.557C805.527 116.412 805.831 115.412 806.447 114.556C807.068 113.701 807.921 113.033 809.004 112.553C810.088 112.072 811.319 111.832 812.697 111.832C814.101 111.832 815.326 112.072 816.372 112.553C817.425 113.033 818.243 113.701 818.828 114.556C819.413 115.412 819.714 116.403 819.733 117.529H815.901ZM822.607 131V116.818H826.54V131H822.607ZM824.583 114.99C823.998 114.99 823.496 114.796 823.078 114.408C822.665 114.014 822.459 113.544 822.459 112.996C822.459 112.454 822.665 111.989 823.078 111.602C823.496 111.208 823.998 111.011 824.583 111.011C825.167 111.011 825.666 111.208 826.078 111.602C826.497 111.989 826.706 112.454 826.706 112.996C826.706 113.544 826.497 114.014 826.078 114.408C825.666 114.796 825.167 114.99 824.583 114.99ZM829.691 131V116.818H833.439V119.32H833.605C833.901 118.489 834.393 117.834 835.083 117.354C835.772 116.874 836.597 116.634 837.557 116.634C838.53 116.634 839.358 116.877 840.041 117.363C840.724 117.843 841.18 118.496 841.407 119.32H841.555C841.844 118.508 842.368 117.858 843.125 117.372C843.888 116.88 844.79 116.634 845.83 116.634C847.153 116.634 848.227 117.055 849.052 117.898C849.883 118.736 850.299 119.924 850.299 121.462V131H846.375V122.238C846.375 121.45 846.165 120.859 845.747 120.465C845.328 120.071 844.805 119.874 844.177 119.874C843.463 119.874 842.906 120.102 842.506 120.558C842.106 121.007 841.906 121.601 841.906 122.339V131H838.093V122.155C838.093 121.459 837.893 120.905 837.493 120.493C837.099 120.08 836.578 119.874 835.932 119.874C835.495 119.874 835.101 119.985 834.75 120.207C834.406 120.422 834.132 120.727 833.929 121.121C833.725 121.509 833.624 121.964 833.624 122.487V131H829.691ZM862.5 124.962V116.818H866.433V131H862.657V128.424H862.509C862.189 129.255 861.657 129.923 860.912 130.428C860.173 130.932 859.272 131.185 858.207 131.185C857.259 131.185 856.425 130.969 855.705 130.538C854.984 130.107 854.421 129.495 854.015 128.701C853.615 127.907 853.412 126.956 853.406 125.848V116.818H857.339V125.146C857.345 125.983 857.57 126.645 858.013 127.131C858.456 127.618 859.05 127.861 859.795 127.861C860.269 127.861 860.712 127.753 861.124 127.538C861.537 127.316 861.869 126.99 862.121 126.559C862.38 126.128 862.506 125.596 862.5 124.962ZM873.513 112.091V131H869.579V112.091H873.513ZM880.707 131.268C879.803 131.268 878.996 131.111 878.288 130.797C877.58 130.477 877.02 130.006 876.608 129.384C876.202 128.756 875.999 127.975 875.999 127.039C875.999 126.251 876.143 125.589 876.433 125.054C876.722 124.518 877.116 124.088 877.614 123.761C878.113 123.435 878.679 123.189 879.313 123.023C879.953 122.857 880.624 122.74 881.326 122.672C882.151 122.586 882.816 122.506 883.32 122.432C883.825 122.352 884.191 122.235 884.419 122.081C884.647 121.927 884.761 121.699 884.761 121.398V121.342C884.761 120.758 884.576 120.305 884.207 119.985C883.844 119.665 883.326 119.505 882.656 119.505C881.948 119.505 881.384 119.662 880.966 119.976C880.547 120.284 880.27 120.671 880.135 121.139L876.497 120.844C876.682 119.982 877.045 119.237 877.587 118.609C878.128 117.975 878.827 117.489 879.683 117.151C880.544 116.806 881.541 116.634 882.674 116.634C883.462 116.634 884.216 116.726 884.936 116.911C885.662 117.095 886.306 117.381 886.866 117.769C887.432 118.157 887.878 118.656 888.205 119.265C888.531 119.868 888.694 120.591 888.694 121.435V131H884.964V129.033H884.853C884.625 129.477 884.321 129.867 883.939 130.206C883.557 130.538 883.099 130.8 882.563 130.991C882.028 131.175 881.409 131.268 880.707 131.268ZM881.834 128.553C882.412 128.553 882.923 128.439 883.366 128.212C883.81 127.978 884.157 127.664 884.41 127.27C884.662 126.876 884.788 126.43 884.788 125.931V124.426C884.665 124.506 884.496 124.58 884.281 124.648C884.071 124.709 883.834 124.768 883.57 124.823C883.305 124.872 883.04 124.919 882.776 124.962C882.511 124.999 882.271 125.032 882.055 125.063C881.594 125.131 881.191 125.239 880.846 125.386C880.501 125.534 880.233 125.734 880.043 125.987C879.852 126.233 879.756 126.54 879.756 126.91C879.756 127.445 879.95 127.855 880.338 128.138C880.732 128.415 881.231 128.553 881.834 128.553ZM899.289 116.818V119.773H890.748V116.818H899.289ZM892.687 113.42H896.62V126.642C896.62 127.005 896.676 127.288 896.787 127.491C896.897 127.688 897.051 127.827 897.248 127.907C897.451 127.987 897.685 128.027 897.95 128.027C898.135 128.027 898.319 128.012 898.504 127.981C898.689 127.944 898.83 127.916 898.929 127.898L899.547 130.825C899.35 130.886 899.073 130.957 898.716 131.037C898.359 131.123 897.925 131.175 897.414 131.194C896.467 131.231 895.636 131.105 894.922 130.815C894.214 130.526 893.663 130.077 893.269 129.467C892.875 128.858 892.681 128.089 892.687 127.159V113.42ZM901.851 131V116.818H905.784V131H901.851ZM903.827 114.99C903.242 114.99 902.74 114.796 902.322 114.408C901.909 114.014 901.703 113.544 901.703 112.996C901.703 112.454 901.909 111.989 902.322 111.602C902.74 111.208 903.242 111.011 903.827 111.011C904.411 111.011 904.91 111.208 905.322 111.602C905.741 111.989 905.95 112.454 905.95 112.996C905.95 113.544 905.741 114.014 905.322 114.408C904.91 114.796 904.411 114.99 903.827 114.99ZM915.343 131.277C913.908 131.277 912.668 130.972 911.622 130.363C910.581 129.747 909.778 128.892 909.212 127.796C908.646 126.694 908.362 125.417 908.362 123.964C908.362 122.5 908.646 121.219 909.212 120.124C909.778 119.022 910.581 118.166 911.622 117.557C912.668 116.941 913.908 116.634 915.343 116.634C916.777 116.634 918.014 116.941 919.054 117.557C920.101 118.166 920.907 119.022 921.473 120.124C922.039 121.219 922.323 122.5 922.323 123.964C922.323 125.417 922.039 126.694 921.473 127.796C920.907 128.892 920.101 129.747 919.054 130.363C918.014 130.972 916.777 131.277 915.343 131.277ZM915.361 128.23C916.013 128.23 916.558 128.045 916.995 127.676C917.432 127.301 917.762 126.79 917.983 126.143C918.211 125.497 918.325 124.762 918.325 123.937C918.325 123.112 918.211 122.376 917.983 121.73C917.762 121.084 917.432 120.573 916.995 120.197C916.558 119.822 916.013 119.634 915.361 119.634C914.702 119.634 914.148 119.822 913.699 120.197C913.256 120.573 912.92 121.084 912.693 121.73C912.471 122.376 912.36 123.112 912.36 123.937C912.36 124.762 912.471 125.497 912.693 126.143C912.92 126.79 913.256 127.301 913.699 127.676C914.148 128.045 914.702 128.23 915.361 128.23ZM928.813 122.801V131H924.88V116.818H928.629V119.32H928.795C929.109 118.496 929.635 117.843 930.374 117.363C931.112 116.877 932.008 116.634 933.061 116.634C934.045 116.634 934.904 116.849 935.637 117.28C936.369 117.711 936.938 118.326 937.345 119.126C937.751 119.92 937.954 120.868 937.954 121.97V131H934.021V122.672C934.027 121.804 933.805 121.127 933.356 120.641C932.907 120.148 932.288 119.902 931.5 119.902C930.971 119.902 930.503 120.016 930.097 120.244C929.697 120.471 929.383 120.804 929.155 121.241C928.933 121.672 928.82 122.192 928.813 122.801Z" fill="black"/>
</g>
<defs>
<filter id="filter0_d_252_1819" x="480.376" y="33.04" width="202.203" height="144.96" filterUnits="userSpaceOnUse" color-interpolation-filters="sRGB">
<feFlood flood-opacity="0" result="BackgroundImageFix"/>
<feColorMatrix in="SourceAlpha" type="matrix" values="0 0 0 0 0 0 0 0 0 0 0 0 0 0 0 0 0 0 127 0" result="hardAlpha"/>
<feOffset/>
<feGaussianBlur stdDeviation="18.5"/>
<feComposite in2="hardAlpha" operator="out"/>
<feColorMatrix type="matrix" values="0 0 0 0 1 0 0 0 0 1 0 0 0 0 1 0 0 0 1 0"/>
<feBlend mode="normal" in2="BackgroundImageFix" result="effect1_dropShadow_252_1819"/>
<feBlend mode="normal" in="SourceGraphic" in2="effect1_dropShadow_252_1819" result="shape"/>
</filter>
<filter id="filter1_d_252_1819" x="89.8" y="43.0107" width="287.293" height="125.266" filterUnits="userSpaceOnUse" color-interpolation-filters="sRGB">
<feFlood flood-opacity="0" result="BackgroundImageFix"/>
<feColorMatrix in="SourceAlpha" type="matrix" values="0 0 0 0 0 0 0 0 0 0 0 0 0 0 0 0 0 0 127 0" result="hardAlpha"/>
<feOffset/>
<feGaussianBlur stdDeviation="18.5"/>
<feComposite in2="hardAlpha" operator="out"/>
<feColorMatrix type="matrix" values="0 0 0 0 1 0 0 0 0 1 0 0 0 0 1 0 0 0 1 0"/>
<feBlend mode="normal" in2="BackgroundImageFix" result="effect1_dropShadow_252_1819"/>
<feBlend mode="normal" in="SourceGraphic" in2="effect1_dropShadow_252_1819" result="shape"/>
</filter>
<filter id="filter2_d_252_1819" x="768.034" y="44.0908" width="274.464" height="124.186" filterUnits="userSpaceOnUse" color-interpolation-filters="sRGB">
<feFlood flood-opacity="0" result="BackgroundImageFix"/>
<feColorMatrix in="SourceAlpha" type="matrix" values="0 0 0 0 0 0 0 0 0 0 0 0 0 0 0 0 0 0 127 0" result="hardAlpha"/>
<feOffset/>
<feGaussianBlur stdDeviation="18.5"/>
<feComposite in2="hardAlpha" operator="out"/>
<feColorMatrix type="matrix" values="0 0 0 0 1 0 0 0 0 1 0 0 0 0 1 0 0 0 1 0"/>
<feBlend mode="normal" in2="BackgroundImageFix" result="effect1_dropShadow_252_1819"/>
<feBlend mode="normal" in="SourceGraphic" in2="effect1_dropShadow_252_1819" result="shape"/>
</filter>
</defs>
</svg>
