<svg width="1131" height="434" viewBox="0 0 1131 434" fill="none" xmlns="http://www.w3.org/2000/svg">
<path fill-rule="evenodd" clip-rule="evenodd" d="M568.098 376.285C566.493 375.351 564.507 375.351 562.902 376.285C535.894 392 504.498 401 471 401C369.932 401 288 319.068 288 218C288 116.932 369.932 35 471 35C504.498 35 535.894 44.0005 562.902 59.7151C564.507 60.6493 566.493 60.6493 568.098 59.7151C595.106 44.0005 626.502 35 660 35C761.068 35 843 116.932 843 218C843 319.068 761.068 401 660 401C626.502 401 595.106 392 568.098 376.285Z" fill="white"/>
<circle cx="471" cy="218" r="179" fill="white" stroke="#F9C233" stroke-width="8"/>
<g filter="url(#filter0_d_116_219)">
<path d="M337.426 199.711H333.382C333.308 199.188 333.157 198.723 332.93 198.317C332.702 197.904 332.409 197.554 332.052 197.264C331.695 196.975 331.283 196.753 330.815 196.599C330.354 196.446 329.852 196.369 329.31 196.369C328.332 196.369 327.479 196.612 326.753 197.098C326.026 197.578 325.463 198.28 325.063 199.203C324.663 200.12 324.463 201.234 324.463 202.545C324.463 203.893 324.663 205.026 325.063 205.943C325.469 206.86 326.036 207.553 326.762 208.021C327.488 208.488 328.329 208.722 329.283 208.722C329.818 208.722 330.314 208.652 330.769 208.51C331.231 208.368 331.64 208.162 331.997 207.891C332.354 207.614 332.65 207.279 332.883 206.885C333.123 206.491 333.29 206.042 333.382 205.537L337.426 205.555C337.321 206.423 337.06 207.26 336.641 208.067C336.229 208.867 335.672 209.584 334.97 210.218C334.275 210.846 333.444 211.344 332.477 211.714C331.517 212.077 330.431 212.259 329.218 212.259C327.531 212.259 326.023 211.877 324.694 211.114C323.37 210.35 322.324 209.246 321.555 207.799C320.791 206.353 320.41 204.601 320.41 202.545C320.41 200.483 320.797 198.729 321.573 197.283C322.349 195.836 323.401 194.734 324.731 193.977C326.06 193.214 327.556 192.832 329.218 192.832C330.314 192.832 331.329 192.986 332.265 193.294C333.207 193.602 334.041 194.051 334.767 194.642C335.493 195.227 336.084 195.944 336.54 196.793C337.001 197.643 337.297 198.615 337.426 199.711ZM346.627 212.277C345.193 212.277 343.952 211.972 342.906 211.363C341.866 210.747 341.062 209.892 340.496 208.796C339.93 207.694 339.647 206.417 339.647 204.964C339.647 203.5 339.93 202.219 340.496 201.124C341.062 200.022 341.866 199.166 342.906 198.557C343.952 197.941 345.193 197.634 346.627 197.634C348.061 197.634 349.298 197.941 350.338 198.557C351.385 199.166 352.191 200.022 352.757 201.124C353.324 202.219 353.607 203.5 353.607 204.964C353.607 206.417 353.324 207.694 352.757 208.796C352.191 209.892 351.385 210.747 350.338 211.363C349.298 211.972 348.061 212.277 346.627 212.277ZM346.645 209.23C347.298 209.23 347.842 209.045 348.279 208.676C348.716 208.301 349.046 207.79 349.267 207.143C349.495 206.497 349.609 205.762 349.609 204.937C349.609 204.112 349.495 203.376 349.267 202.73C349.046 202.084 348.716 201.573 348.279 201.197C347.842 200.822 347.298 200.634 346.645 200.634C345.987 200.634 345.433 200.822 344.983 201.197C344.54 201.573 344.205 202.084 343.977 202.73C343.755 203.376 343.644 204.112 343.644 204.937C343.644 205.762 343.755 206.497 343.977 207.143C344.205 207.79 344.54 208.301 344.983 208.676C345.433 209.045 345.987 209.23 346.645 209.23ZM356.164 212V197.818H359.913V200.32H360.079C360.375 199.489 360.867 198.834 361.556 198.354C362.246 197.874 363.071 197.634 364.031 197.634C365.003 197.634 365.831 197.877 366.514 198.363C367.198 198.843 367.653 199.496 367.881 200.32H368.029C368.318 199.508 368.841 198.858 369.598 198.372C370.362 197.88 371.263 197.634 372.304 197.634C373.627 197.634 374.701 198.055 375.526 198.898C376.357 199.736 376.772 200.924 376.772 202.462V212H372.848V203.238C372.848 202.45 372.639 201.859 372.22 201.465C371.802 201.071 371.279 200.874 370.651 200.874C369.937 200.874 369.38 201.102 368.98 201.558C368.58 202.007 368.38 202.601 368.38 203.339V212H364.566V203.155C364.566 202.459 364.366 201.905 363.966 201.493C363.572 201.08 363.052 200.874 362.406 200.874C361.969 200.874 361.575 200.985 361.224 201.207C360.879 201.422 360.605 201.727 360.402 202.121C360.199 202.509 360.098 202.964 360.098 203.487V212H356.164ZM379.879 217.318V197.818H383.757V200.2H383.932C384.105 199.819 384.354 199.431 384.68 199.037C385.013 198.637 385.444 198.304 385.973 198.04C386.508 197.769 387.173 197.634 387.967 197.634C389.001 197.634 389.955 197.904 390.829 198.446C391.704 198.982 392.402 199.791 392.925 200.874C393.449 201.951 393.71 203.303 393.71 204.928C393.71 206.509 393.455 207.845 392.944 208.935C392.439 210.018 391.75 210.84 390.876 211.4C390.008 211.954 389.035 212.231 387.958 212.231C387.195 212.231 386.545 212.105 386.01 211.852C385.48 211.6 385.047 211.283 384.708 210.901C384.369 210.513 384.111 210.123 383.932 209.729H383.812V217.318H379.879ZM383.729 204.909C383.729 205.752 383.846 206.488 384.08 207.116C384.314 207.744 384.653 208.233 385.096 208.584C385.539 208.929 386.078 209.101 386.712 209.101C387.352 209.101 387.893 208.925 388.337 208.575C388.78 208.218 389.115 207.725 389.343 207.097C389.577 206.463 389.694 205.734 389.694 204.909C389.694 204.09 389.58 203.37 389.352 202.749C389.124 202.127 388.789 201.641 388.346 201.29C387.903 200.939 387.358 200.763 386.712 200.763C386.071 200.763 385.53 200.933 385.087 201.271C384.65 201.61 384.314 202.09 384.08 202.712C383.846 203.333 383.729 204.066 383.729 204.909ZM402.74 212.277C401.306 212.277 400.065 211.972 399.019 211.363C397.979 210.747 397.176 209.892 396.609 208.796C396.043 207.694 395.76 206.417 395.76 204.964C395.76 203.5 396.043 202.219 396.609 201.124C397.176 200.022 397.979 199.166 399.019 198.557C400.065 197.941 401.306 197.634 402.74 197.634C404.174 197.634 405.411 197.941 406.452 198.557C407.498 199.166 408.304 200.022 408.871 201.124C409.437 202.219 409.72 203.5 409.72 204.964C409.72 206.417 409.437 207.694 408.871 208.796C408.304 209.892 407.498 210.747 406.452 211.363C405.411 211.972 404.174 212.277 402.74 212.277ZM402.758 209.23C403.411 209.23 403.956 209.045 404.393 208.676C404.83 208.301 405.159 207.79 405.381 207.143C405.608 206.497 405.722 205.762 405.722 204.937C405.722 204.112 405.608 203.376 405.381 202.73C405.159 202.084 404.83 201.573 404.393 201.197C403.956 200.822 403.411 200.634 402.758 200.634C402.1 200.634 401.546 200.822 401.097 201.197C400.653 201.573 400.318 202.084 400.09 202.73C399.869 203.376 399.758 204.112 399.758 204.937C399.758 205.762 399.869 206.497 400.09 207.143C400.318 207.79 400.653 208.301 401.097 208.676C401.546 209.045 402.1 209.23 402.758 209.23ZM424.077 201.862L420.476 202.084C420.415 201.776 420.283 201.499 420.079 201.253C419.876 201 419.609 200.8 419.276 200.653C418.95 200.499 418.559 200.422 418.104 200.422C417.494 200.422 416.98 200.551 416.562 200.81C416.143 201.062 415.934 201.401 415.934 201.825C415.934 202.164 416.069 202.45 416.34 202.684C416.611 202.918 417.076 203.106 417.734 203.247L420.301 203.764C421.68 204.047 422.708 204.503 423.385 205.131C424.062 205.759 424.4 206.583 424.4 207.605C424.4 208.535 424.127 209.35 423.579 210.052C423.037 210.754 422.292 211.301 421.344 211.695C420.403 212.083 419.316 212.277 418.085 212.277C416.208 212.277 414.712 211.886 413.598 211.104C412.49 210.317 411.841 209.246 411.65 207.891L415.518 207.688C415.635 208.261 415.918 208.698 416.368 208.999C416.817 209.295 417.393 209.442 418.094 209.442C418.784 209.442 419.338 209.31 419.756 209.045C420.181 208.775 420.396 208.427 420.403 208.002C420.396 207.645 420.246 207.353 419.95 207.125C419.655 206.891 419.199 206.713 418.584 206.589L416.128 206.1C414.743 205.823 413.712 205.343 413.035 204.66C412.364 203.977 412.028 203.106 412.028 202.047C412.028 201.136 412.275 200.351 412.767 199.692C413.266 199.034 413.964 198.526 414.863 198.169C415.768 197.812 416.826 197.634 418.039 197.634C419.83 197.634 421.24 198.012 422.268 198.769C423.302 199.526 423.905 200.557 424.077 201.862ZM426.877 212V197.818H430.81V212H426.877ZM428.853 195.99C428.268 195.99 427.767 195.796 427.348 195.408C426.936 195.014 426.729 194.544 426.729 193.996C426.729 193.454 426.936 192.989 427.348 192.602C427.767 192.208 428.268 192.011 428.853 192.011C429.438 192.011 429.936 192.208 430.349 192.602C430.767 192.989 430.977 193.454 430.977 193.996C430.977 194.544 430.767 195.014 430.349 195.408C429.936 195.796 429.438 195.99 428.853 195.99ZM441.505 197.818V200.773H432.964V197.818H441.505ZM434.903 194.42H438.836V207.642C438.836 208.005 438.892 208.288 439.002 208.491C439.113 208.688 439.267 208.827 439.464 208.907C439.667 208.987 439.901 209.027 440.166 209.027C440.35 209.027 440.535 209.012 440.72 208.981C440.904 208.944 441.046 208.916 441.144 208.898L441.763 211.825C441.566 211.886 441.289 211.957 440.932 212.037C440.575 212.123 440.141 212.175 439.63 212.194C438.682 212.231 437.851 212.105 437.137 211.815C436.429 211.526 435.879 211.077 435.485 210.467C435.091 209.858 434.897 209.089 434.903 208.159V194.42ZM450.377 212.277C448.919 212.277 447.663 211.982 446.61 211.391C445.564 210.794 444.758 209.95 444.191 208.861C443.625 207.765 443.342 206.469 443.342 204.974C443.342 203.515 443.625 202.235 444.191 201.133C444.758 200.031 445.555 199.172 446.583 198.557C447.617 197.941 448.829 197.634 450.22 197.634C451.156 197.634 452.027 197.784 452.833 198.086C453.646 198.381 454.354 198.828 454.957 199.425C455.566 200.022 456.04 200.773 456.379 201.678C456.717 202.576 456.887 203.629 456.887 204.835V205.915H444.911V203.478H453.184C453.184 202.912 453.061 202.41 452.815 201.973C452.569 201.536 452.227 201.194 451.79 200.948C451.359 200.696 450.858 200.57 450.285 200.57C449.688 200.57 449.159 200.708 448.697 200.985C448.242 201.256 447.884 201.622 447.626 202.084C447.367 202.539 447.235 203.047 447.229 203.607V205.925C447.229 206.626 447.358 207.233 447.617 207.744C447.881 208.254 448.254 208.648 448.734 208.925C449.214 209.202 449.783 209.341 450.442 209.341C450.879 209.341 451.279 209.279 451.642 209.156C452.005 209.033 452.316 208.848 452.575 208.602C452.833 208.356 453.03 208.054 453.166 207.697L456.804 207.938C456.619 208.812 456.24 209.575 455.668 210.227C455.102 210.874 454.369 211.378 453.47 211.741C452.578 212.098 451.547 212.277 450.377 212.277ZM346.399 224.091H351.33L356.537 236.795H356.759L361.966 224.091H366.896V243H363.019V230.692H362.862L357.968 242.908H355.328L350.434 230.646H350.277V243H346.399V224.091ZM376.524 243.277C375.09 243.277 373.85 242.972 372.803 242.363C371.763 241.747 370.96 240.892 370.393 239.796C369.827 238.694 369.544 237.417 369.544 235.964C369.544 234.5 369.827 233.219 370.393 232.124C370.96 231.022 371.763 230.166 372.803 229.557C373.85 228.941 375.09 228.634 376.524 228.634C377.958 228.634 379.196 228.941 380.236 229.557C381.282 230.166 382.089 231.022 382.655 232.124C383.221 233.219 383.504 234.5 383.504 235.964C383.504 237.417 383.221 238.694 382.655 239.796C382.089 240.892 381.282 241.747 380.236 242.363C379.196 242.972 377.958 243.277 376.524 243.277ZM376.543 240.23C377.195 240.23 377.74 240.045 378.177 239.676C378.614 239.301 378.943 238.79 379.165 238.143C379.393 237.497 379.506 236.762 379.506 235.937C379.506 235.112 379.393 234.376 379.165 233.73C378.943 233.084 378.614 232.573 378.177 232.197C377.74 231.822 377.195 231.634 376.543 231.634C375.884 231.634 375.33 231.822 374.881 232.197C374.438 232.573 374.102 233.084 373.874 233.73C373.653 234.376 373.542 235.112 373.542 235.937C373.542 236.762 373.653 237.497 373.874 238.143C374.102 238.79 374.438 239.301 374.881 239.676C375.33 240.045 375.884 240.23 376.543 240.23ZM391.288 243.231C390.21 243.231 389.235 242.954 388.361 242.4C387.493 241.84 386.804 241.018 386.293 239.935C385.788 238.845 385.536 237.509 385.536 235.928C385.536 234.303 385.797 232.951 386.32 231.874C386.844 230.791 387.539 229.982 388.407 229.446C389.281 228.904 390.238 228.634 391.278 228.634C392.072 228.634 392.734 228.769 393.263 229.04C393.799 229.304 394.23 229.637 394.556 230.037C394.888 230.431 395.141 230.819 395.313 231.2H395.433V224.091H399.357V243H395.479V240.729H395.313C395.129 241.123 394.867 241.513 394.528 241.901C394.196 242.283 393.762 242.6 393.227 242.852C392.697 243.105 392.051 243.231 391.288 243.231ZM392.534 240.101C393.168 240.101 393.704 239.929 394.141 239.584C394.584 239.233 394.922 238.744 395.156 238.116C395.396 237.488 395.516 236.752 395.516 235.909C395.516 235.066 395.399 234.333 395.165 233.712C394.932 233.09 394.593 232.61 394.15 232.271C393.707 231.933 393.168 231.763 392.534 231.763C391.888 231.763 391.343 231.939 390.9 232.29C390.457 232.641 390.121 233.127 389.893 233.749C389.666 234.37 389.552 235.09 389.552 235.909C389.552 236.734 389.666 237.463 389.893 238.097C390.127 238.725 390.463 239.218 390.9 239.575C391.343 239.925 391.888 240.101 392.534 240.101ZM409.054 243.277C407.595 243.277 406.34 242.982 405.287 242.391C404.241 241.794 403.434 240.95 402.868 239.861C402.302 238.765 402.019 237.469 402.019 235.974C402.019 234.515 402.302 233.235 402.868 232.133C403.434 231.031 404.231 230.172 405.259 229.557C406.294 228.941 407.506 228.634 408.897 228.634C409.833 228.634 410.704 228.784 411.51 229.086C412.323 229.381 413.03 229.828 413.634 230.425C414.243 231.022 414.717 231.773 415.056 232.678C415.394 233.576 415.563 234.629 415.563 235.835V236.915H403.588V234.478H411.861C411.861 233.912 411.738 233.41 411.492 232.973C411.245 232.536 410.904 232.194 410.467 231.948C410.036 231.696 409.534 231.57 408.962 231.57C408.365 231.57 407.835 231.708 407.374 231.985C406.918 232.256 406.561 232.622 406.303 233.084C406.044 233.539 405.912 234.047 405.906 234.607V236.925C405.906 237.626 406.035 238.233 406.294 238.744C406.558 239.254 406.931 239.648 407.411 239.925C407.891 240.202 408.46 240.341 409.119 240.341C409.556 240.341 409.956 240.279 410.319 240.156C410.682 240.033 410.993 239.848 411.252 239.602C411.51 239.356 411.707 239.054 411.843 238.697L415.48 238.938C415.296 239.812 414.917 240.575 414.345 241.227C413.778 241.874 413.046 242.378 412.147 242.741C411.255 243.098 410.224 243.277 409.054 243.277ZM422.063 224.091V243H418.13V224.091H422.063ZM437.014 232.862L433.413 233.084C433.351 232.776 433.219 232.499 433.016 232.253C432.813 232 432.545 231.8 432.213 231.653C431.886 231.499 431.496 231.422 431.04 231.422C430.431 231.422 429.917 231.551 429.498 231.81C429.08 232.062 428.87 232.401 428.87 232.825C428.87 233.164 429.006 233.45 429.277 233.684C429.547 233.918 430.012 234.106 430.671 234.247L433.238 234.764C434.616 235.047 435.644 235.503 436.321 236.131C436.998 236.759 437.337 237.583 437.337 238.605C437.337 239.535 437.063 240.35 436.515 241.052C435.974 241.754 435.229 242.301 434.281 242.695C433.339 243.083 432.253 243.277 431.022 243.277C429.144 243.277 427.649 242.886 426.534 242.104C425.426 241.317 424.777 240.246 424.586 238.891L428.455 238.688C428.572 239.261 428.855 239.698 429.304 239.999C429.754 240.295 430.329 240.442 431.031 240.442C431.72 240.442 432.274 240.31 432.693 240.045C433.118 239.775 433.333 239.427 433.339 239.002C433.333 238.645 433.182 238.353 432.887 238.125C432.591 237.891 432.136 237.713 431.52 237.589L429.064 237.1C427.679 236.823 426.648 236.343 425.971 235.66C425.3 234.977 424.965 234.106 424.965 233.047C424.965 232.136 425.211 231.351 425.703 230.692C426.202 230.034 426.901 229.526 427.799 229.169C428.704 228.812 429.763 228.634 430.975 228.634C432.767 228.634 434.176 229.012 435.204 229.769C436.238 230.526 436.842 231.557 437.014 232.862Z" fill="black"/>
</g>
<circle cx="660" cy="218" r="179" fill="white" stroke="#F9C233" stroke-width="8"/>
<path fill-rule="evenodd" clip-rule="evenodd" d="M565.5 374.744C618.54 342.698 654 284.49 654 218C654 151.51 618.54 93.3021 565.5 61.2559C512.46 93.3021 477 151.51 477 218C477 284.49 512.46 342.698 565.5 374.744Z" fill="#F9C233"/>
<circle cx="659" cy="218" r="183" fill="#D9D9D9" fill-opacity="0.1"/>
<g filter="url(#filter1_d_116_219)">
<path d="M677.925 170.711V168.727H689.745V170.711H684.979V184H682.683V170.711H677.925ZM692.178 184V172.545H694.407V184H692.178ZM693.304 170.778C692.916 170.778 692.583 170.649 692.304 170.39C692.031 170.127 691.894 169.814 691.894 169.451C691.894 169.083 692.031 168.77 692.304 168.511C692.583 168.248 692.916 168.116 693.304 168.116C693.691 168.116 694.022 168.248 694.296 168.511C694.574 168.77 694.713 169.083 694.713 169.451C694.713 169.814 694.574 170.127 694.296 170.39C694.022 170.649 693.691 170.778 693.304 170.778ZM697.407 184V172.545H699.547V174.41H699.689C699.928 173.778 700.318 173.286 700.86 172.933C701.402 172.575 702.051 172.396 702.806 172.396C703.572 172.396 704.213 172.575 704.73 172.933C705.252 173.291 705.638 173.783 705.886 174.41H706.006C706.279 173.798 706.714 173.311 707.311 172.948C707.907 172.58 708.618 172.396 709.443 172.396C710.482 172.396 711.33 172.722 711.986 173.373C712.648 174.025 712.978 175.006 712.978 176.319V184H710.748V176.528C710.748 175.752 710.537 175.19 710.115 174.842C709.692 174.494 709.187 174.32 708.601 174.32C707.875 174.32 707.311 174.544 706.908 174.991C706.505 175.434 706.304 176.003 706.304 176.699V184H704.081V176.386C704.081 175.765 703.888 175.265 703.5 174.887C703.112 174.509 702.607 174.32 701.986 174.32C701.563 174.32 701.173 174.432 700.815 174.656C700.462 174.875 700.176 175.18 699.958 175.573C699.744 175.966 699.637 176.421 699.637 176.938V184H697.407ZM720.903 184.231C719.775 184.231 718.803 183.99 717.988 183.508C717.177 183.021 716.551 182.337 716.108 181.457C715.671 180.572 715.452 179.536 715.452 178.347C715.452 177.174 715.671 176.14 716.108 175.245C716.551 174.35 717.167 173.652 717.958 173.15C718.753 172.647 719.683 172.396 720.747 172.396C721.393 172.396 722.02 172.503 722.626 172.717C723.233 172.931 723.777 173.266 724.259 173.724C724.742 174.181 725.122 174.775 725.4 175.506C725.679 176.232 725.818 177.114 725.818 178.153V178.944H716.712V177.273H723.633C723.633 176.687 723.514 176.167 723.275 175.715C723.036 175.257 722.701 174.897 722.268 174.634C721.841 174.37 721.339 174.238 720.762 174.238C720.135 174.238 719.589 174.392 719.121 174.701C718.659 175.004 718.301 175.402 718.047 175.894C717.799 176.381 717.674 176.911 717.674 177.482V178.787C717.674 179.553 717.809 180.204 718.077 180.741C718.351 181.278 718.731 181.688 719.218 181.972C719.705 182.25 720.275 182.389 720.926 182.389C721.348 182.389 721.734 182.33 722.082 182.21C722.43 182.086 722.731 181.902 722.984 181.658C723.238 181.415 723.432 181.114 723.566 180.756L725.676 181.136C725.507 181.758 725.204 182.302 724.766 182.77C724.334 183.232 723.79 183.592 723.133 183.851C722.482 184.104 721.739 184.231 720.903 184.231ZM742.358 172.739C742.279 172.033 741.951 171.487 741.374 171.099C740.797 170.706 740.071 170.51 739.196 170.51C738.57 170.51 738.028 170.609 737.571 170.808C737.113 171.002 736.758 171.27 736.504 171.613C736.256 171.951 736.131 172.337 736.131 172.769C736.131 173.132 736.216 173.445 736.385 173.709C736.559 173.972 736.785 174.194 737.064 174.373C737.347 174.547 737.65 174.693 737.973 174.812C738.297 174.927 738.607 175.021 738.906 175.096L740.397 175.484C740.884 175.603 741.384 175.765 741.896 175.968C742.408 176.172 742.883 176.441 743.32 176.774C743.758 177.107 744.111 177.52 744.379 178.012C744.653 178.504 744.79 179.093 744.79 179.779C744.79 180.644 744.566 181.412 744.118 182.083C743.676 182.755 743.032 183.284 742.187 183.672C741.347 184.06 740.33 184.254 739.137 184.254C737.993 184.254 737.004 184.072 736.169 183.709C735.334 183.346 734.68 182.832 734.207 182.165C733.735 181.494 733.474 180.699 733.424 179.779H735.736C735.781 180.331 735.96 180.791 736.273 181.159C736.591 181.522 736.997 181.793 737.489 181.972C737.986 182.146 738.53 182.233 739.122 182.233C739.773 182.233 740.352 182.131 740.859 181.927C741.372 181.718 741.774 181.43 742.068 181.062C742.361 180.689 742.508 180.254 742.508 179.757C742.508 179.304 742.378 178.934 742.12 178.646C741.866 178.357 741.521 178.119 741.083 177.93C740.651 177.741 740.161 177.574 739.614 177.43L737.809 176.938C736.586 176.605 735.617 176.115 734.901 175.469C734.19 174.822 733.835 173.967 733.835 172.903C733.835 172.023 734.073 171.255 734.551 170.599C735.028 169.943 735.674 169.433 736.489 169.07C737.305 168.702 738.225 168.518 739.249 168.518C740.283 168.518 741.195 168.7 741.986 169.063C742.781 169.426 743.407 169.925 743.865 170.562C744.322 171.193 744.561 171.919 744.581 172.739H742.358ZM752.301 184.231C751.172 184.231 750.2 183.99 749.385 183.508C748.575 183.021 747.948 182.337 747.506 181.457C747.068 180.572 746.85 179.536 746.85 178.347C746.85 177.174 747.068 176.14 747.506 175.245C747.948 174.35 748.565 173.652 749.355 173.15C750.151 172.647 751.08 172.396 752.144 172.396C752.791 172.396 753.417 172.503 754.024 172.717C754.63 172.931 755.175 173.266 755.657 173.724C756.139 174.181 756.519 174.775 756.798 175.506C757.076 176.232 757.215 177.114 757.215 178.153V178.944H748.11V177.273H755.03C755.03 176.687 754.911 176.167 754.672 175.715C754.434 175.257 754.098 174.897 753.666 174.634C753.238 174.37 752.736 174.238 752.159 174.238C751.533 174.238 750.986 174.392 750.519 174.701C750.056 175.004 749.698 175.402 749.445 175.894C749.196 176.381 749.072 176.911 749.072 177.482V178.787C749.072 179.553 749.206 180.204 749.475 180.741C749.748 181.278 750.128 181.688 750.616 181.972C751.103 182.25 751.672 182.389 752.323 182.389C752.746 182.389 753.131 182.33 753.479 182.21C753.827 182.086 754.128 181.902 754.382 181.658C754.635 181.415 754.829 181.114 754.963 180.756L757.074 181.136C756.905 181.758 756.601 182.302 756.164 182.77C755.731 183.232 755.187 183.592 754.531 183.851C753.879 184.104 753.136 184.231 752.301 184.231ZM759.689 184V172.545H761.845V174.365H761.964C762.173 173.749 762.541 173.264 763.068 172.911C763.6 172.553 764.201 172.374 764.872 172.374C765.011 172.374 765.176 172.379 765.364 172.389C765.558 172.399 765.71 172.411 765.819 172.426V174.559C765.73 174.534 765.571 174.507 765.342 174.477C765.113 174.442 764.885 174.425 764.656 174.425C764.129 174.425 763.659 174.537 763.247 174.76C762.839 174.979 762.516 175.285 762.277 175.678C762.038 176.065 761.919 176.508 761.919 177.005V184H759.689ZM767.749 184V172.545H769.979V184H767.749ZM768.875 170.778C768.487 170.778 768.154 170.649 767.876 170.39C767.602 170.127 767.466 169.814 767.466 169.451C767.466 169.083 767.602 168.77 767.876 168.511C768.154 168.248 768.487 168.116 768.875 168.116C769.263 168.116 769.593 168.248 769.867 168.511C770.145 168.77 770.284 169.083 770.284 169.451C770.284 169.814 770.145 170.127 769.867 170.39C769.593 170.649 769.263 170.778 768.875 170.778ZM777.915 184.231C776.787 184.231 775.815 183.99 774.999 183.508C774.189 183.021 773.563 182.337 773.12 181.457C772.683 180.572 772.464 179.536 772.464 178.347C772.464 177.174 772.683 176.14 773.12 175.245C773.563 174.35 774.179 173.652 774.97 173.15C775.765 172.647 776.695 172.396 777.759 172.396C778.405 172.396 779.031 172.503 779.638 172.717C780.244 172.931 780.789 173.266 781.271 173.724C781.753 174.181 782.134 174.775 782.412 175.506C782.69 176.232 782.83 177.114 782.83 178.153V178.944H773.724V177.273H780.645C780.645 176.687 780.525 176.167 780.287 175.715C780.048 175.257 779.712 174.897 779.28 174.634C778.852 174.37 778.35 174.238 777.774 174.238C777.147 174.238 776.6 174.392 776.133 174.701C775.671 175.004 775.313 175.402 775.059 175.894C774.81 176.381 774.686 176.911 774.686 177.482V178.787C774.686 179.553 774.82 180.204 775.089 180.741C775.362 181.278 775.743 181.688 776.23 181.972C776.717 182.25 777.286 182.389 777.938 182.389C778.36 182.389 778.745 182.33 779.093 182.21C779.441 182.086 779.742 181.902 779.996 181.658C780.249 181.415 780.443 181.114 780.578 180.756L782.688 181.136C782.519 181.758 782.216 182.302 781.778 182.77C781.346 183.232 780.801 183.592 780.145 183.851C779.494 184.104 778.75 184.231 777.915 184.231ZM793.887 175.342L791.866 175.7C791.782 175.441 791.647 175.195 791.463 174.962C791.284 174.728 791.041 174.537 790.733 174.387C790.424 174.238 790.039 174.164 789.577 174.164C788.945 174.164 788.418 174.305 787.996 174.589C787.573 174.867 787.362 175.228 787.362 175.67C787.362 176.053 787.504 176.361 787.787 176.595C788.07 176.828 788.528 177.02 789.159 177.169L790.979 177.587C792.033 177.83 792.818 178.206 793.335 178.713C793.852 179.22 794.111 179.879 794.111 180.689C794.111 181.375 793.912 181.987 793.514 182.523C793.121 183.055 792.572 183.473 791.866 183.776C791.165 184.08 790.352 184.231 789.428 184.231C788.145 184.231 787.098 183.958 786.288 183.411C785.478 182.859 784.98 182.076 784.797 181.062L786.952 180.734C787.086 181.295 787.362 181.721 787.779 182.009C788.197 182.292 788.741 182.434 789.413 182.434C790.143 182.434 790.728 182.282 791.165 181.979C791.603 181.671 791.821 181.295 791.821 180.853C791.821 180.495 791.687 180.194 791.419 179.951C791.155 179.707 790.75 179.523 790.203 179.399L788.264 178.974C787.195 178.73 786.405 178.342 785.893 177.81C785.386 177.278 785.132 176.605 785.132 175.789C785.132 175.113 785.321 174.522 785.699 174.015C786.077 173.507 786.599 173.112 787.265 172.829C787.931 172.54 788.694 172.396 789.554 172.396C790.792 172.396 791.767 172.665 792.478 173.202C793.189 173.734 793.658 174.447 793.887 175.342ZM695.327 202.711H691.283C691.21 202.188 691.059 201.723 690.831 201.317C690.603 200.904 690.311 200.554 689.954 200.264C689.597 199.975 689.184 199.753 688.717 199.599C688.255 199.446 687.753 199.369 687.212 199.369C686.233 199.369 685.38 199.612 684.654 200.098C683.928 200.578 683.365 201.28 682.964 202.203C682.564 203.12 682.364 204.234 682.364 205.545C682.364 206.893 682.564 208.026 682.964 208.943C683.371 209.86 683.937 210.553 684.663 211.021C685.39 211.488 686.23 211.722 687.184 211.722C687.719 211.722 688.215 211.652 688.67 211.51C689.132 211.368 689.541 211.162 689.898 210.891C690.255 210.614 690.551 210.279 690.785 209.885C691.025 209.491 691.191 209.042 691.283 208.537L695.327 208.555C695.223 209.423 694.961 210.26 694.543 211.067C694.13 211.867 693.573 212.584 692.871 213.218C692.176 213.846 691.345 214.344 690.379 214.714C689.418 215.077 688.332 215.259 687.119 215.259C685.433 215.259 683.925 214.877 682.595 214.114C681.272 213.35 680.225 212.246 679.456 210.799C678.693 209.353 678.311 207.601 678.311 205.545C678.311 203.483 678.699 201.729 679.474 200.283C680.25 198.836 681.303 197.734 682.632 196.977C683.962 196.214 685.457 195.832 687.119 195.832C688.215 195.832 689.231 195.986 690.166 196.294C691.108 196.602 691.942 197.051 692.668 197.642C693.395 198.227 693.986 198.944 694.441 199.793C694.903 200.643 695.198 201.615 695.327 202.711ZM698.12 215V200.818H701.934V203.293H702.081C702.34 202.412 702.774 201.748 703.383 201.298C703.993 200.843 704.694 200.615 705.488 200.615C705.685 200.615 705.898 200.627 706.125 200.652C706.353 200.677 706.553 200.71 706.725 200.754V204.244C706.541 204.188 706.285 204.139 705.959 204.096C705.633 204.053 705.334 204.031 705.064 204.031C704.485 204.031 703.968 204.157 703.512 204.41C703.063 204.656 702.706 205.001 702.441 205.444C702.183 205.887 702.054 206.398 702.054 206.977V215H698.12ZM714.507 215.277C713.072 215.277 711.832 214.972 710.786 214.363C709.745 213.747 708.942 212.892 708.376 211.796C707.81 210.694 707.526 209.417 707.526 207.964C707.526 206.5 707.81 205.219 708.376 204.124C708.942 203.022 709.745 202.166 710.786 201.557C711.832 200.941 713.072 200.634 714.507 200.634C715.941 200.634 717.178 200.941 718.218 201.557C719.265 202.166 720.071 203.022 720.637 204.124C721.204 205.219 721.487 206.5 721.487 207.964C721.487 209.417 721.204 210.694 720.637 211.796C720.071 212.892 719.265 213.747 718.218 214.363C717.178 214.972 715.941 215.277 714.507 215.277ZM714.525 212.23C715.177 212.23 715.722 212.045 716.159 211.676C716.596 211.301 716.926 210.79 717.147 210.143C717.375 209.497 717.489 208.762 717.489 207.937C717.489 207.112 717.375 206.376 717.147 205.73C716.926 205.084 716.596 204.573 716.159 204.197C715.722 203.822 715.177 203.634 714.525 203.634C713.866 203.634 713.312 203.822 712.863 204.197C712.42 204.573 712.084 205.084 711.857 205.73C711.635 206.376 711.524 207.112 711.524 207.937C711.524 208.762 711.635 209.497 711.857 210.143C712.084 210.79 712.42 211.301 712.863 211.676C713.312 212.045 713.866 212.23 714.525 212.23ZM735.844 204.862L732.243 205.084C732.182 204.776 732.049 204.499 731.846 204.253C731.643 204 731.375 203.8 731.043 203.653C730.717 203.499 730.326 203.422 729.87 203.422C729.261 203.422 728.747 203.551 728.328 203.81C727.91 204.062 727.7 204.401 727.7 204.825C727.7 205.164 727.836 205.45 728.107 205.684C728.378 205.918 728.842 206.106 729.501 206.247L732.068 206.764C733.446 207.047 734.474 207.503 735.151 208.131C735.829 208.759 736.167 209.583 736.167 210.605C736.167 211.535 735.893 212.35 735.345 213.052C734.804 213.754 734.059 214.301 733.111 214.695C732.169 215.083 731.083 215.277 729.852 215.277C727.974 215.277 726.479 214.886 725.365 214.104C724.257 213.317 723.607 212.246 723.416 210.891L727.285 210.688C727.402 211.261 727.685 211.698 728.134 211.999C728.584 212.295 729.159 212.442 729.861 212.442C730.55 212.442 731.104 212.31 731.523 212.045C731.948 211.775 732.163 211.427 732.169 211.002C732.163 210.645 732.012 210.353 731.717 210.125C731.421 209.891 730.966 209.713 730.35 209.589L727.894 209.1C726.509 208.823 725.478 208.343 724.801 207.66C724.13 206.977 723.795 206.106 723.795 205.047C723.795 204.136 724.041 203.351 724.534 202.692C725.032 202.034 725.731 201.526 726.629 201.169C727.534 200.812 728.593 200.634 729.806 200.634C731.597 200.634 733.006 201.012 734.034 201.769C735.068 202.526 735.672 203.557 735.844 204.862ZM750.444 204.862L746.843 205.084C746.781 204.776 746.649 204.499 746.446 204.253C746.243 204 745.975 203.8 745.642 203.653C745.316 203.499 744.925 203.422 744.47 203.422C743.86 203.422 743.346 203.551 742.928 203.81C742.509 204.062 742.3 204.401 742.3 204.825C742.3 205.164 742.435 205.45 742.706 205.684C742.977 205.918 743.442 206.106 744.1 206.247L746.667 206.764C748.046 207.047 749.074 207.503 749.751 208.131C750.428 208.759 750.767 209.583 750.767 210.605C750.767 211.535 750.493 212.35 749.945 213.052C749.403 213.754 748.658 214.301 747.711 214.695C746.769 215.083 745.682 215.277 744.451 215.277C742.574 215.277 741.078 214.886 739.964 214.104C738.856 213.317 738.207 212.246 738.016 210.891L741.885 210.688C742.002 211.261 742.285 211.698 742.734 211.999C743.183 212.295 743.759 212.442 744.461 212.442C745.15 212.442 745.704 212.31 746.123 212.045C746.547 211.775 746.763 211.427 746.769 211.002C746.763 210.645 746.612 210.353 746.316 210.125C746.021 209.891 745.565 209.713 744.95 209.589L742.494 209.1C741.109 208.823 740.078 208.343 739.401 207.66C738.73 206.977 738.395 206.106 738.395 205.047C738.395 204.136 738.641 203.351 739.133 202.692C739.632 202.034 740.33 201.526 741.229 201.169C742.134 200.812 743.193 200.634 744.405 200.634C746.196 200.634 747.606 201.012 748.634 201.769C749.668 202.526 750.271 203.557 750.444 204.862ZM682.06 227.091L686.63 241.457H686.805L691.385 227.091H695.817L689.298 246H684.146L677.619 227.091H682.06ZM700.489 246.268C699.584 246.268 698.777 246.111 698.07 245.797C697.362 245.477 696.802 245.006 696.389 244.384C695.983 243.756 695.78 242.975 695.78 242.039C695.78 241.251 695.924 240.589 696.214 240.054C696.503 239.518 696.897 239.088 697.396 238.761C697.894 238.435 698.46 238.189 699.094 238.023C699.735 237.857 700.406 237.74 701.107 237.672C701.932 237.586 702.597 237.506 703.102 237.432C703.606 237.352 703.973 237.235 704.2 237.081C704.428 236.927 704.542 236.699 704.542 236.398V236.342C704.542 235.758 704.357 235.305 703.988 234.985C703.625 234.665 703.108 234.505 702.437 234.505C701.729 234.505 701.166 234.662 700.747 234.976C700.329 235.284 700.052 235.671 699.916 236.139L696.278 235.844C696.463 234.982 696.826 234.237 697.368 233.609C697.91 232.975 698.608 232.489 699.464 232.151C700.326 231.806 701.323 231.634 702.455 231.634C703.243 231.634 703.997 231.726 704.717 231.911C705.444 232.095 706.087 232.381 706.647 232.769C707.213 233.157 707.66 233.656 707.986 234.265C708.312 234.868 708.475 235.591 708.475 236.435V246H704.745V244.033H704.634C704.406 244.477 704.102 244.867 703.72 245.206C703.339 245.538 702.88 245.8 702.344 245.991C701.809 246.175 701.19 246.268 700.489 246.268ZM701.615 243.553C702.194 243.553 702.705 243.439 703.148 243.212C703.591 242.978 703.939 242.664 704.191 242.27C704.443 241.876 704.57 241.43 704.57 240.931V239.426C704.446 239.506 704.277 239.58 704.062 239.648C703.853 239.709 703.616 239.768 703.351 239.823C703.086 239.872 702.821 239.919 702.557 239.962C702.292 239.999 702.052 240.032 701.837 240.063C701.375 240.131 700.972 240.239 700.627 240.386C700.282 240.534 700.015 240.734 699.824 240.987C699.633 241.233 699.538 241.54 699.538 241.91C699.538 242.445 699.732 242.855 700.119 243.138C700.513 243.415 701.012 243.553 701.615 243.553ZM715.46 227.091V246H711.527V227.091H715.46ZM718.611 246V231.818H722.544V246H718.611ZM720.586 229.99C720.002 229.99 719.5 229.796 719.081 229.408C718.669 229.014 718.463 228.544 718.463 227.996C718.463 227.454 718.669 226.989 719.081 226.602C719.5 226.208 720.002 226.011 720.586 226.011C721.171 226.011 721.67 226.208 722.082 226.602C722.501 226.989 722.71 227.454 722.71 227.996C722.71 228.544 722.501 229.014 722.082 229.408C721.67 229.796 721.171 229.99 720.586 229.99ZM730.92 246.231C729.843 246.231 728.868 245.954 727.994 245.4C727.126 244.84 726.436 244.018 725.925 242.935C725.421 241.845 725.168 240.509 725.168 238.928C725.168 237.303 725.43 235.951 725.953 234.874C726.476 233.791 727.172 232.982 728.04 232.446C728.914 231.904 729.871 231.634 730.911 231.634C731.705 231.634 732.367 231.769 732.896 232.04C733.432 232.304 733.863 232.637 734.189 233.037C734.521 233.431 734.774 233.819 734.946 234.2H735.066V227.091H738.99V246H735.112V243.729H734.946C734.761 244.123 734.5 244.513 734.161 244.901C733.829 245.283 733.395 245.6 732.859 245.852C732.33 246.105 731.684 246.231 730.92 246.231ZM732.167 243.101C732.801 243.101 733.336 242.929 733.773 242.584C734.217 242.233 734.555 241.744 734.789 241.116C735.029 240.488 735.149 239.752 735.149 238.909C735.149 238.066 735.032 237.333 734.798 236.712C734.564 236.09 734.226 235.61 733.783 235.271C733.339 234.933 732.801 234.763 732.167 234.763C731.521 234.763 730.976 234.939 730.533 235.29C730.089 235.641 729.754 236.127 729.526 236.749C729.299 237.37 729.185 238.09 729.185 238.909C729.185 239.734 729.299 240.463 729.526 241.097C729.76 241.725 730.096 242.218 730.533 242.575C730.976 242.925 731.521 243.101 732.167 243.101ZM746.268 246.268C745.363 246.268 744.557 246.111 743.849 245.797C743.141 245.477 742.581 245.006 742.169 244.384C741.762 243.756 741.559 242.975 741.559 242.039C741.559 241.251 741.704 240.589 741.993 240.054C742.282 239.518 742.676 239.088 743.175 238.761C743.673 238.435 744.24 238.189 744.874 238.023C745.514 237.857 746.185 237.74 746.887 237.672C747.711 237.586 748.376 237.506 748.881 237.432C749.386 237.352 749.752 237.235 749.98 237.081C750.207 236.927 750.321 236.699 750.321 236.398V236.342C750.321 235.758 750.137 235.305 749.767 234.985C749.404 234.665 748.887 234.505 748.216 234.505C747.508 234.505 746.945 234.662 746.526 234.976C746.108 235.284 745.831 235.671 745.695 236.139L742.058 235.844C742.242 234.982 742.606 234.237 743.147 233.609C743.689 232.975 744.387 232.489 745.243 232.151C746.105 231.806 747.102 231.634 748.235 231.634C749.022 231.634 749.776 231.726 750.497 231.911C751.223 232.095 751.866 232.381 752.426 232.769C752.993 233.157 753.439 233.656 753.765 234.265C754.091 234.868 754.254 235.591 754.254 236.435V246H750.524V244.033H750.414C750.186 244.477 749.881 244.867 749.499 245.206C749.118 245.538 748.659 245.8 748.124 245.991C747.588 246.175 746.97 246.268 746.268 246.268ZM747.394 243.553C747.973 243.553 748.484 243.439 748.927 243.212C749.37 242.978 749.718 242.664 749.97 242.27C750.223 241.876 750.349 241.43 750.349 240.931V239.426C750.226 239.506 750.057 239.58 749.841 239.648C749.632 239.709 749.395 239.768 749.13 239.823C748.865 239.872 748.601 239.919 748.336 239.962C748.071 239.999 747.831 240.032 747.616 240.063C747.154 240.131 746.751 240.239 746.406 240.386C746.062 240.534 745.794 240.734 745.603 240.987C745.412 241.233 745.317 241.54 745.317 241.91C745.317 242.445 745.511 242.855 745.899 243.138C746.293 243.415 746.791 243.553 747.394 243.553ZM764.849 231.818V234.773H756.309V231.818H764.849ZM758.248 228.42H762.181V241.642C762.181 242.005 762.236 242.288 762.347 242.491C762.458 242.688 762.612 242.827 762.809 242.907C763.012 242.987 763.246 243.027 763.51 243.027C763.695 243.027 763.88 243.012 764.064 242.981C764.249 242.944 764.391 242.916 764.489 242.898L765.108 245.825C764.911 245.886 764.634 245.957 764.277 246.037C763.92 246.123 763.486 246.175 762.975 246.194C762.027 246.231 761.196 246.105 760.482 245.815C759.774 245.526 759.223 245.077 758.829 244.467C758.435 243.858 758.242 243.089 758.248 242.159V228.42ZM767.411 246V231.818H771.345V246H767.411ZM769.387 229.99C768.802 229.99 768.301 229.796 767.882 229.408C767.47 229.014 767.264 228.544 767.264 227.996C767.264 227.454 767.47 226.989 767.882 226.602C768.301 226.208 768.802 226.011 769.387 226.011C769.972 226.011 770.471 226.208 770.883 226.602C771.302 226.989 771.511 227.454 771.511 227.996C771.511 228.544 771.302 229.014 770.883 229.408C770.471 229.796 769.972 229.99 769.387 229.99ZM780.903 246.277C779.469 246.277 778.229 245.972 777.182 245.363C776.142 244.747 775.339 243.892 774.772 242.796C774.206 241.694 773.923 240.417 773.923 238.964C773.923 237.5 774.206 236.219 774.772 235.124C775.339 234.022 776.142 233.166 777.182 232.557C778.229 231.941 779.469 231.634 780.903 231.634C782.337 231.634 783.574 231.941 784.615 232.557C785.661 233.166 786.467 234.022 787.034 235.124C787.6 236.219 787.883 237.5 787.883 238.964C787.883 240.417 787.6 241.694 787.034 242.796C786.467 243.892 785.661 244.747 784.615 245.363C783.574 245.972 782.337 246.277 780.903 246.277ZM780.922 243.23C781.574 243.23 782.119 243.045 782.556 242.676C782.993 242.301 783.322 241.79 783.544 241.143C783.771 240.497 783.885 239.762 783.885 238.937C783.885 238.112 783.771 237.376 783.544 236.73C783.322 236.084 782.993 235.573 782.556 235.197C782.119 234.822 781.574 234.634 780.922 234.634C780.263 234.634 779.709 234.822 779.26 235.197C778.816 235.573 778.481 236.084 778.253 236.73C778.032 237.376 777.921 238.112 777.921 238.937C777.921 239.762 778.032 240.497 778.253 241.143C778.481 241.79 778.816 242.301 779.26 242.676C779.709 243.045 780.263 243.23 780.922 243.23ZM794.374 237.801V246H790.441V231.818H794.189V234.32H794.355C794.669 233.496 795.196 232.843 795.934 232.363C796.673 231.877 797.569 231.634 798.621 231.634C799.606 231.634 800.465 231.849 801.197 232.28C801.93 232.711 802.499 233.326 802.905 234.126C803.311 234.92 803.515 235.868 803.515 236.97V246H799.581V237.672C799.587 236.804 799.366 236.127 798.917 235.641C798.467 235.148 797.849 234.902 797.061 234.902C796.531 234.902 796.064 235.016 795.657 235.244C795.257 235.471 794.943 235.804 794.716 236.241C794.494 236.672 794.38 237.192 794.374 237.801Z" fill="black"/>
</g>
<g filter="url(#filter2_d_116_219)">
<path d="M509.74 207.25H525.39V201H509.74V207.25ZM509.74 221.05H524.89V215.1H509.74V221.05ZM505.14 201V236H512.04V201H505.14ZM537.496 218.5C537.496 216.267 537.963 214.283 538.896 212.55C539.83 210.817 541.113 209.45 542.746 208.45C544.38 207.45 546.28 206.95 548.446 206.95C550.646 206.95 552.563 207.45 554.196 208.45C555.83 209.45 557.096 210.817 557.996 212.55C558.896 214.283 559.346 216.267 559.346 218.5C559.346 220.733 558.88 222.717 557.946 224.45C557.046 226.183 555.78 227.55 554.146 228.55C552.513 229.55 550.613 230.05 548.446 230.05C546.28 230.05 544.38 229.55 542.746 228.55C541.113 227.55 539.83 226.183 538.896 224.45C537.963 222.717 537.496 220.733 537.496 218.5ZM529.946 218.5C529.946 221.133 530.396 223.583 531.296 225.85C532.196 228.083 533.48 230.033 535.146 231.7C536.813 233.367 538.763 234.667 540.996 235.6C543.263 236.5 545.746 236.95 548.446 236.95C551.146 236.95 553.613 236.5 555.846 235.6C558.113 234.667 560.063 233.367 561.696 231.7C563.363 230.033 564.646 228.083 565.546 225.85C566.48 223.583 566.946 221.133 566.946 218.5C566.946 215.833 566.48 213.4 565.546 211.2C564.646 208.967 563.346 207.033 561.646 205.4C559.98 203.767 558.03 202.517 555.796 201.65C553.563 200.75 551.113 200.3 548.446 200.3C545.813 200.3 543.363 200.75 541.096 201.65C538.863 202.517 536.913 203.767 535.246 205.4C533.58 207.033 532.28 208.967 531.346 211.2C530.413 213.4 529.946 215.833 529.946 218.5ZM572.474 201V236H593.574V229.75H579.624V201H572.474ZM597.669 201V236H604.969V201H597.669ZM609.569 236C613.236 236 616.436 235.283 619.169 233.85C621.936 232.417 624.086 230.4 625.619 227.8C627.152 225.167 627.919 222.067 627.919 218.5C627.919 214.933 627.152 211.85 625.619 209.25C624.086 206.617 621.936 204.583 619.169 203.15C616.436 201.717 613.236 201 609.569 201H602.269V207.5H609.319C610.852 207.5 612.302 207.717 613.669 208.15C615.036 208.55 616.236 209.2 617.269 210.1C618.302 211 619.102 212.15 619.669 213.55C620.269 214.917 620.569 216.567 620.569 218.5C620.569 220.433 620.269 222.1 619.669 223.5C619.102 224.867 618.302 226 617.269 226.9C616.236 227.8 615.036 228.467 613.669 228.9C612.302 229.3 610.852 229.5 609.319 229.5H602.269V236H609.569Z" fill="black"/>
</g>
<rect x="8.5" y="105.5" width="257" height="223" rx="4.5" stroke="#B3B3B3"/>
<rect x="20" y="133" width="88" height="75" rx="3" fill="white" fill-opacity="0.5"/>
<path d="M36.0263 164.364H37.7081L41.6626 174.023H41.799L45.7536 164.364H47.4354V176H46.1172V167.159H46.0036L42.3672 176H41.0945L37.4581 167.159H37.3445V176H36.0263V164.364ZM53.6243 176.182C52.8364 176.182 52.1451 175.994 51.5504 175.619C50.9595 175.244 50.4974 174.72 50.1641 174.045C49.8345 173.371 49.6697 172.583 49.6697 171.682C49.6697 170.773 49.8345 169.979 50.1641 169.301C50.4974 168.623 50.9595 168.097 51.5504 167.722C52.1451 167.347 52.8364 167.159 53.6243 167.159C54.4122 167.159 55.1016 167.347 55.6925 167.722C56.2872 168.097 56.7493 168.623 57.0788 169.301C57.4122 169.979 57.5788 170.773 57.5788 171.682C57.5788 172.583 57.4122 173.371 57.0788 174.045C56.7493 174.72 56.2872 175.244 55.6925 175.619C55.1016 175.994 54.4122 176.182 53.6243 176.182ZM53.6243 174.977C54.2228 174.977 54.7152 174.824 55.1016 174.517C55.4879 174.21 55.7739 173.807 55.9595 173.307C56.1451 172.807 56.2379 172.265 56.2379 171.682C56.2379 171.098 56.1451 170.555 55.9595 170.051C55.7739 169.547 55.4879 169.14 55.1016 168.83C54.7152 168.519 54.2228 168.364 53.6243 168.364C53.0258 168.364 52.5334 168.519 52.147 168.83C51.7607 169.14 51.4747 169.547 51.2891 170.051C51.1035 170.555 51.0107 171.098 51.0107 171.682C51.0107 172.265 51.1035 172.807 51.2891 173.307C51.4747 173.807 51.7607 174.21 52.147 174.517C52.5334 174.824 53.0258 174.977 53.6243 174.977ZM62.9212 176.182C62.1939 176.182 61.5518 175.998 60.995 175.631C60.4382 175.259 60.0026 174.737 59.6882 174.062C59.3738 173.384 59.2166 172.583 59.2166 171.659C59.2166 170.742 59.3738 169.947 59.6882 169.273C60.0026 168.598 60.4401 168.078 61.0007 167.71C61.5613 167.343 62.209 167.159 62.9439 167.159C63.5121 167.159 63.9609 167.254 64.2905 167.443C64.6238 167.629 64.8776 167.841 65.0518 168.08C65.2299 168.314 65.3681 168.508 65.4666 168.659H65.5803V164.364H66.9212V176H65.6257V174.659H65.4666C65.3681 174.818 65.228 175.019 65.0462 175.261C64.8643 175.5 64.6049 175.714 64.2678 175.903C63.9306 176.089 63.4818 176.182 62.9212 176.182ZM63.103 174.977C63.6409 174.977 64.0954 174.837 64.4666 174.557C64.8378 174.273 65.12 173.881 65.3132 173.381C65.5064 172.877 65.603 172.295 65.603 171.636C65.603 170.985 65.5083 170.415 65.3189 169.926C65.1295 169.434 64.8492 169.051 64.478 168.778C64.1068 168.502 63.6484 168.364 63.103 168.364C62.5348 168.364 62.0613 168.509 61.6825 168.801C61.3075 169.089 61.0253 169.481 60.8359 169.977C60.6503 170.47 60.5575 171.023 60.5575 171.636C60.5575 172.258 60.6522 172.822 60.8416 173.33C61.0348 173.833 61.3189 174.235 61.6939 174.534C62.0727 174.83 62.5424 174.977 63.103 174.977ZM73.2223 176.182C72.3814 176.182 71.656 175.996 71.0462 175.625C70.4401 175.25 69.9723 174.727 69.6428 174.057C69.317 173.383 69.1541 172.598 69.1541 171.705C69.1541 170.811 69.317 170.023 69.6428 169.341C69.9723 168.655 70.4306 168.121 71.0178 167.739C71.6087 167.352 72.2981 167.159 73.0859 167.159C73.5405 167.159 73.9893 167.235 74.4325 167.386C74.8757 167.538 75.2791 167.784 75.6428 168.125C76.0064 168.462 76.2962 168.909 76.5121 169.466C76.728 170.023 76.8359 170.708 76.8359 171.523V172.091H70.1087V170.932H75.4723C75.4723 170.439 75.3738 170 75.1768 169.614C74.9837 169.227 74.7071 168.922 74.3473 168.699C73.9912 168.475 73.5708 168.364 73.0859 168.364C72.5518 168.364 72.0897 168.496 71.6996 168.761C71.3132 169.023 71.0159 169.364 70.8075 169.784C70.5992 170.205 70.495 170.655 70.495 171.136V171.909C70.495 172.568 70.6087 173.127 70.8359 173.585C71.067 174.04 71.3871 174.386 71.7962 174.625C72.2053 174.86 72.6806 174.977 73.2223 174.977C73.5746 174.977 73.8928 174.928 74.1768 174.83C74.4647 174.727 74.7128 174.576 74.9212 174.375C75.1295 174.17 75.2905 173.917 75.4041 173.614L76.6996 173.977C76.5632 174.417 76.334 174.803 76.0121 175.136C75.6901 175.466 75.2924 175.723 74.8189 175.909C74.3454 176.091 73.8132 176.182 73.2223 176.182ZM80.2166 164.364V176H78.8757V164.364H80.2166ZM91.2408 164.364V176H89.8317V165.841H89.7635L86.9226 167.727V166.295L89.8317 164.364H91.2408Z" fill="black"/>
<rect x="20.5" y="133.5" width="87" height="74" rx="2.5" stroke="black" stroke-opacity="0.15"/>
<rect x="20" y="228" width="88" height="72" rx="3" fill="white" fill-opacity="0.5"/>
<path d="M34.9013 258.364H36.5831L40.5376 268.023H40.674L44.6286 258.364H46.3104V270H44.9922V261.159H44.8786L41.2422 270H39.9695L36.3331 261.159H36.2195V270H34.9013V258.364ZM52.4993 270.182C51.7114 270.182 51.0201 269.994 50.4254 269.619C49.8345 269.244 49.3724 268.72 49.0391 268.045C48.7095 267.371 48.5447 266.583 48.5447 265.682C48.5447 264.773 48.7095 263.979 49.0391 263.301C49.3724 262.623 49.8345 262.097 50.4254 261.722C51.0201 261.347 51.7114 261.159 52.4993 261.159C53.2872 261.159 53.9766 261.347 54.5675 261.722C55.1622 262.097 55.6243 262.623 55.9538 263.301C56.2872 263.979 56.4538 264.773 56.4538 265.682C56.4538 266.583 56.2872 267.371 55.9538 268.045C55.6243 268.72 55.1622 269.244 54.5675 269.619C53.9766 269.994 53.2872 270.182 52.4993 270.182ZM52.4993 268.977C53.0978 268.977 53.5902 268.824 53.9766 268.517C54.3629 268.21 54.6489 267.807 54.8345 267.307C55.0201 266.807 55.1129 266.265 55.1129 265.682C55.1129 265.098 55.0201 264.555 54.8345 264.051C54.6489 263.547 54.3629 263.14 53.9766 262.83C53.5902 262.519 53.0978 262.364 52.4993 262.364C51.9008 262.364 51.4084 262.519 51.022 262.83C50.6357 263.14 50.3497 263.547 50.1641 264.051C49.9785 264.555 49.8857 265.098 49.8857 265.682C49.8857 266.265 49.9785 266.807 50.1641 267.307C50.3497 267.807 50.6357 268.21 51.022 268.517C51.4084 268.824 51.9008 268.977 52.4993 268.977ZM61.7962 270.182C61.0689 270.182 60.4268 269.998 59.87 269.631C59.3132 269.259 58.8776 268.737 58.5632 268.062C58.2488 267.384 58.0916 266.583 58.0916 265.659C58.0916 264.742 58.2488 263.947 58.5632 263.273C58.8776 262.598 59.3151 262.078 59.8757 261.71C60.4363 261.343 61.084 261.159 61.8189 261.159C62.3871 261.159 62.8359 261.254 63.1655 261.443C63.4988 261.629 63.7526 261.841 63.9268 262.08C64.1049 262.314 64.2431 262.508 64.3416 262.659H64.4553V258.364H65.7962V270H64.5007V268.659H64.3416C64.2431 268.818 64.103 269.019 63.9212 269.261C63.7393 269.5 63.4799 269.714 63.1428 269.903C62.8056 270.089 62.3568 270.182 61.7962 270.182ZM61.978 268.977C62.5159 268.977 62.9704 268.837 63.3416 268.557C63.7128 268.273 63.995 267.881 64.1882 267.381C64.3814 266.877 64.478 266.295 64.478 265.636C64.478 264.985 64.3833 264.415 64.1939 263.926C64.0045 263.434 63.7242 263.051 63.353 262.778C62.9818 262.502 62.5234 262.364 61.978 262.364C61.4098 262.364 60.9363 262.509 60.5575 262.801C60.1825 263.089 59.9003 263.481 59.7109 263.977C59.5253 264.47 59.4325 265.023 59.4325 265.636C59.4325 266.258 59.5272 266.822 59.7166 267.33C59.9098 267.833 60.1939 268.235 60.5689 268.534C60.9477 268.83 61.4174 268.977 61.978 268.977ZM72.0973 270.182C71.2564 270.182 70.531 269.996 69.9212 269.625C69.3151 269.25 68.8473 268.727 68.5178 268.057C68.192 267.383 68.0291 266.598 68.0291 265.705C68.0291 264.811 68.192 264.023 68.5178 263.341C68.8473 262.655 69.3056 262.121 69.8928 261.739C70.4837 261.352 71.1731 261.159 71.9609 261.159C72.4155 261.159 72.8643 261.235 73.3075 261.386C73.7507 261.538 74.1541 261.784 74.5178 262.125C74.8814 262.462 75.1712 262.909 75.3871 263.466C75.603 264.023 75.7109 264.708 75.7109 265.523V266.091H68.9837V264.932H74.3473C74.3473 264.439 74.2488 264 74.0518 263.614C73.8587 263.227 73.5821 262.922 73.2223 262.699C72.8662 262.475 72.4458 262.364 71.9609 262.364C71.4268 262.364 70.9647 262.496 70.5746 262.761C70.1882 263.023 69.8909 263.364 69.6825 263.784C69.4742 264.205 69.37 264.655 69.37 265.136V265.909C69.37 266.568 69.4837 267.127 69.7109 267.585C69.942 268.04 70.2621 268.386 70.6712 268.625C71.0803 268.86 71.5556 268.977 72.0973 268.977C72.4496 268.977 72.7678 268.928 73.0518 268.83C73.3397 268.727 73.5878 268.576 73.7962 268.375C74.0045 268.17 74.1655 267.917 74.2791 267.614L75.5746 267.977C75.4382 268.417 75.209 268.803 74.8871 269.136C74.5651 269.466 74.1674 269.723 73.6939 269.909C73.2204 270.091 72.6882 270.182 72.0973 270.182ZM79.0916 258.364V270H77.7507V258.364H79.0916ZM86.0249 270V268.977L89.8658 264.773C90.3165 264.28 90.6877 263.852 90.9794 263.489C91.2711 263.121 91.487 262.777 91.6271 262.455C91.7711 262.129 91.843 261.788 91.843 261.432C91.843 261.023 91.7446 260.669 91.5476 260.369C91.3544 260.07 91.0893 259.839 90.7521 259.676C90.415 259.513 90.0362 259.432 89.6158 259.432C89.1688 259.432 88.7786 259.525 88.4453 259.71C88.1158 259.892 87.8601 260.148 87.6783 260.477C87.5002 260.807 87.4112 261.193 87.4112 261.636H86.0703C86.0703 260.955 86.2275 260.356 86.5419 259.841C86.8563 259.326 87.2843 258.924 87.826 258.636C88.3714 258.348 88.9832 258.205 89.6612 258.205C90.343 258.205 90.9472 258.348 91.4737 258.636C92.0002 258.924 92.4131 259.312 92.7124 259.801C93.0116 260.29 93.1612 260.833 93.1612 261.432C93.1612 261.86 93.0836 262.278 92.9283 262.688C92.7768 263.093 92.5116 263.545 92.1328 264.045C91.7578 264.542 91.237 265.148 90.5703 265.864L87.9567 268.659V268.75H93.3658V270H86.0249Z" fill="black"/>
<rect x="20.5" y="228.5" width="87" height="71" rx="2.5" stroke="black" stroke-opacity="0.15"/>
<path d="M290 219.5C290.828 219.5 291.5 218.828 291.5 218C291.5 217.172 290.828 216.5 290 216.5V219.5ZM274 218C274 213.582 270.418 210 266 210C261.582 210 258 213.582 258 218C258 222.418 261.582 226 266 226C270.418 226 274 222.418 274 218ZM290 216.5H266V219.5H290V216.5Z" fill="#F9C233"/>
<path d="M107.756 171C105.669 171 104 172.978 104 175.452C104 177.925 105.669 179.903 107.756 179.903C109.843 179.903 111.512 177.925 111.512 175.452C111.512 172.978 109.843 171 107.756 171Z" fill="white"/>
<path d="M158.061 218.061C158.646 217.475 158.646 216.525 158.061 215.939L148.515 206.393C147.929 205.808 146.979 205.808 146.393 206.393C145.808 206.979 145.808 207.929 146.393 208.515L154.879 217L146.393 225.485C145.808 226.071 145.808 227.021 146.393 227.607C146.979 228.192 147.929 228.192 148.515 227.607L158.061 218.061ZM105.5 175.452C105.5 173.558 106.727 172.5 107.756 172.5V169.5C104.612 169.5 102.5 172.399 102.5 175.452H105.5ZM107.756 172.5C108.785 172.5 110.012 173.558 110.012 175.452H113.012C113.012 172.399 110.9 169.5 107.756 169.5V172.5ZM110.012 175.452C110.012 177.345 108.785 178.403 107.756 178.403V181.403C110.9 181.403 113.012 178.504 113.012 175.452H110.012ZM107.756 178.403C106.727 178.403 105.5 177.345 105.5 175.452H102.5C102.5 178.504 104.612 181.403 107.756 181.403V178.403ZM111.512 176.952H112.378V173.952H111.512V176.952ZM130.878 195.452V197H133.878V195.452H130.878ZM152.378 218.5H157V215.5H152.378V218.5ZM130.878 197C130.878 208.874 140.504 218.5 152.378 218.5V215.5C142.161 215.5 133.878 207.217 133.878 197H130.878ZM112.378 176.952C122.595 176.952 130.878 185.234 130.878 195.452H133.878C133.878 183.577 124.252 173.952 112.378 173.952V176.952Z" fill="#9B9B9B"/>
<path d="M107.756 265.922C105.669 265.922 104 267.939 104 270.461C104 272.983 105.669 275 107.756 275C109.843 275 111.512 272.983 111.512 270.461C111.512 267.939 109.843 265.922 107.756 265.922Z" fill="white"/>
<path d="M158.061 218.061C158.646 217.475 158.646 216.525 158.061 215.939L148.515 206.393C147.929 205.808 146.979 205.808 146.393 206.393C145.808 206.979 145.808 207.929 146.393 208.515L154.879 217L146.393 225.485C145.808 226.071 145.808 227.021 146.393 227.607C146.979 228.192 147.929 228.192 148.515 227.607L158.061 218.061ZM105.5 270.461C105.5 268.489 106.751 267.422 107.756 267.422V264.422C104.588 264.422 102.5 267.389 102.5 270.461H105.5ZM107.756 267.422C108.761 267.422 110.012 268.489 110.012 270.461H113.012C113.012 267.389 110.924 264.422 107.756 264.422V267.422ZM110.012 270.461C110.012 272.433 108.761 273.5 107.756 273.5V276.5C110.924 276.5 113.012 273.533 113.012 270.461H110.012ZM107.756 273.5C106.751 273.5 105.5 272.433 105.5 270.461H102.5C102.5 273.533 104.588 276.5 107.756 276.5V273.5ZM111.512 271.961H112.378V268.961H111.512V271.961ZM133.878 250.461V237H130.878V250.461H133.878ZM152.378 218.5H157V215.5H152.378V218.5ZM133.878 237C133.878 226.783 142.161 218.5 152.378 218.5V215.5C140.504 215.5 130.878 225.126 130.878 237H133.878ZM112.378 271.961C124.252 271.961 133.878 262.335 133.878 250.461H130.878C130.878 260.678 122.595 268.961 112.378 268.961V271.961Z" fill="#9B9B9B"/>
<rect x="158" y="176" width="87" height="82" rx="2" fill="white" fill-opacity="0.5"/>
<path d="M166.136 223V211.364H173.158V212.614H167.545V216.545H172.795V217.795H167.545V221.75H173.249V223H166.136ZM176.857 217.75V223H175.516V214.273H176.812V215.636H176.925C177.13 215.193 177.441 214.837 177.857 214.568C178.274 214.295 178.812 214.159 179.471 214.159C180.062 214.159 180.579 214.28 181.022 214.523C181.465 214.761 181.81 215.125 182.056 215.614C182.302 216.098 182.425 216.712 182.425 217.455V223H181.085V217.545C181.085 216.86 180.906 216.326 180.55 215.943C180.194 215.557 179.706 215.364 179.085 215.364C178.656 215.364 178.274 215.456 177.937 215.642C177.603 215.828 177.34 216.098 177.147 216.455C176.954 216.811 176.857 217.242 176.857 217.75ZM191.058 216.227L189.853 216.568C189.777 216.367 189.665 216.172 189.518 215.983C189.374 215.79 189.177 215.631 188.927 215.506C188.677 215.381 188.357 215.318 187.967 215.318C187.433 215.318 186.987 215.441 186.631 215.688C186.279 215.93 186.103 216.239 186.103 216.614C186.103 216.947 186.224 217.21 186.467 217.403C186.709 217.597 187.088 217.758 187.603 217.886L188.898 218.205C189.679 218.394 190.26 218.684 190.643 219.074C191.025 219.46 191.217 219.958 191.217 220.568C191.217 221.068 191.073 221.515 190.785 221.909C190.501 222.303 190.103 222.614 189.592 222.841C189.08 223.068 188.486 223.182 187.808 223.182C186.917 223.182 186.181 222.989 185.597 222.602C185.014 222.216 184.645 221.652 184.489 220.909L185.762 220.591C185.883 221.061 186.112 221.413 186.45 221.648C186.79 221.883 187.236 222 187.785 222C188.41 222 188.906 221.867 189.273 221.602C189.645 221.333 189.83 221.011 189.83 220.636C189.83 220.333 189.724 220.08 189.512 219.875C189.3 219.667 188.974 219.511 188.535 219.409L187.08 219.068C186.281 218.879 185.694 218.585 185.319 218.188C184.948 217.786 184.762 217.284 184.762 216.682C184.762 216.189 184.9 215.754 185.177 215.375C185.457 214.996 185.838 214.699 186.319 214.483C186.804 214.267 187.353 214.159 187.967 214.159C188.83 214.159 189.508 214.348 190.001 214.727C190.497 215.106 190.849 215.606 191.058 216.227ZM196.894 223.182C196.053 223.182 195.328 222.996 194.718 222.625C194.112 222.25 193.644 221.727 193.315 221.057C192.989 220.383 192.826 219.598 192.826 218.705C192.826 217.811 192.989 217.023 193.315 216.341C193.644 215.655 194.103 215.121 194.69 214.739C195.281 214.352 195.97 214.159 196.758 214.159C197.212 214.159 197.661 214.235 198.104 214.386C198.548 214.538 198.951 214.784 199.315 215.125C199.678 215.462 199.968 215.909 200.184 216.466C200.4 217.023 200.508 217.708 200.508 218.523V219.091H193.781V217.932H199.144C199.144 217.439 199.046 217 198.849 216.614C198.656 216.227 198.379 215.922 198.019 215.699C197.663 215.475 197.243 215.364 196.758 215.364C196.224 215.364 195.762 215.496 195.371 215.761C194.985 216.023 194.688 216.364 194.479 216.784C194.271 217.205 194.167 217.655 194.167 218.136V218.909C194.167 219.568 194.281 220.127 194.508 220.585C194.739 221.04 195.059 221.386 195.468 221.625C195.877 221.86 196.353 221.977 196.894 221.977C197.246 221.977 197.565 221.928 197.849 221.83C198.137 221.727 198.385 221.576 198.593 221.375C198.801 221.17 198.962 220.917 199.076 220.614L200.371 220.977C200.235 221.417 200.006 221.803 199.684 222.136C199.362 222.466 198.964 222.723 198.491 222.909C198.017 223.091 197.485 223.182 196.894 223.182ZM202.548 223V214.273H203.843V215.636H203.957C204.138 215.17 204.432 214.809 204.837 214.551C205.243 214.29 205.729 214.159 206.298 214.159C206.873 214.159 207.353 214.29 207.735 214.551C208.121 214.809 208.423 215.17 208.638 215.636H208.729C208.953 215.186 209.288 214.828 209.735 214.562C210.182 214.294 210.718 214.159 211.343 214.159C212.123 214.159 212.762 214.403 213.258 214.892C213.754 215.377 214.002 216.133 214.002 217.159V223H212.661V217.159C212.661 216.515 212.485 216.055 212.133 215.778C211.781 215.502 211.366 215.364 210.888 215.364C210.275 215.364 209.799 215.549 209.462 215.92C209.125 216.288 208.957 216.754 208.957 217.318V223H207.593V217.023C207.593 216.527 207.432 216.127 207.11 215.824C206.788 215.517 206.373 215.364 205.866 215.364C205.517 215.364 205.192 215.456 204.888 215.642C204.589 215.828 204.347 216.085 204.161 216.415C203.979 216.741 203.888 217.117 203.888 217.545V223H202.548ZM216.636 223V211.364H217.977V215.659H218.09C218.189 215.508 218.325 215.314 218.499 215.08C218.677 214.841 218.931 214.629 219.261 214.443C219.594 214.254 220.045 214.159 220.613 214.159C221.348 214.159 221.996 214.343 222.556 214.71C223.117 215.078 223.554 215.598 223.869 216.273C224.183 216.947 224.34 217.742 224.34 218.659C224.34 219.583 224.183 220.384 223.869 221.062C223.554 221.737 223.119 222.259 222.562 222.631C222.005 222.998 221.363 223.182 220.636 223.182C220.075 223.182 219.626 223.089 219.289 222.903C218.952 222.714 218.692 222.5 218.511 222.261C218.329 222.019 218.189 221.818 218.09 221.659H217.931V223H216.636ZM217.954 218.636C217.954 219.295 218.05 219.877 218.244 220.381C218.437 220.881 218.719 221.273 219.09 221.557C219.461 221.837 219.916 221.977 220.454 221.977C221.014 221.977 221.482 221.83 221.857 221.534C222.236 221.235 222.52 220.833 222.71 220.33C222.903 219.822 222.999 219.258 222.999 218.636C222.999 218.023 222.905 217.47 222.715 216.977C222.53 216.481 222.247 216.089 221.869 215.801C221.494 215.509 221.022 215.364 220.454 215.364C219.908 215.364 219.45 215.502 219.079 215.778C218.708 216.051 218.427 216.434 218.238 216.926C218.049 217.415 217.954 217.985 217.954 218.636ZM227.732 211.364V223H226.391V211.364H227.732ZM233.847 223.182C233.006 223.182 232.281 222.996 231.671 222.625C231.065 222.25 230.597 221.727 230.268 221.057C229.942 220.383 229.779 219.598 229.779 218.705C229.779 217.811 229.942 217.023 230.268 216.341C230.597 215.655 231.056 215.121 231.643 214.739C232.234 214.352 232.923 214.159 233.711 214.159C234.165 214.159 234.614 214.235 235.058 214.386C235.501 214.538 235.904 214.784 236.268 215.125C236.631 215.462 236.921 215.909 237.137 216.466C237.353 217.023 237.461 217.708 237.461 218.523V219.091H230.734V217.932H236.097C236.097 217.439 235.999 217 235.802 216.614C235.609 216.227 235.332 215.922 234.972 215.699C234.616 215.475 234.196 215.364 233.711 215.364C233.177 215.364 232.715 215.496 232.325 215.761C231.938 216.023 231.641 216.364 231.433 216.784C231.224 217.205 231.12 217.655 231.12 218.136V218.909C231.12 219.568 231.234 220.127 231.461 220.585C231.692 221.04 232.012 221.386 232.421 221.625C232.83 221.86 233.306 221.977 233.847 221.977C234.2 221.977 234.518 221.928 234.802 221.83C235.09 221.727 235.338 221.576 235.546 221.375C235.754 221.17 235.915 220.917 236.029 220.614L237.325 220.977C237.188 221.417 236.959 221.803 236.637 222.136C236.315 222.466 235.917 222.723 235.444 222.909C234.97 223.091 234.438 223.182 233.847 223.182Z" fill="black"/>
<rect x="158" y="176" width="87" height="82" rx="2" stroke="#F9C233" stroke-width="2"/>
<rect x="865.5" y="106.5" width="244" height="223" rx="4.5" stroke="#B3B3B3"/>
<rect x="883.507" y="130" width="80.1978" height="60" rx="3" fill="white" fill-opacity="0.5"/>
<path d="M898.37 156.392V154.364H907.926V156.392H904.364V166H901.932V156.392H898.37ZM908.549 166V157.273H910.895V158.795H910.986C911.145 158.254 911.412 157.845 911.787 157.568C912.162 157.288 912.594 157.148 913.083 157.148C913.204 157.148 913.335 157.155 913.475 157.17C913.615 157.186 913.738 157.206 913.844 157.233V159.381C913.73 159.347 913.573 159.316 913.372 159.29C913.172 159.263 912.988 159.25 912.821 159.25C912.465 159.25 912.147 159.328 911.867 159.483C911.59 159.634 911.371 159.847 911.208 160.119C911.049 160.392 910.969 160.706 910.969 161.062V166H908.549ZM917.334 166.165C916.777 166.165 916.281 166.068 915.845 165.875C915.41 165.678 915.065 165.388 914.811 165.006C914.561 164.619 914.436 164.138 914.436 163.562C914.436 163.078 914.525 162.67 914.703 162.341C914.881 162.011 915.124 161.746 915.431 161.545C915.738 161.345 916.086 161.193 916.476 161.091C916.87 160.989 917.283 160.917 917.715 160.875C918.222 160.822 918.631 160.773 918.942 160.727C919.253 160.678 919.478 160.606 919.618 160.511C919.758 160.417 919.828 160.277 919.828 160.091V160.057C919.828 159.697 919.715 159.419 919.488 159.222C919.264 159.025 918.946 158.926 918.533 158.926C918.097 158.926 917.751 159.023 917.493 159.216C917.236 159.405 917.065 159.644 916.982 159.932L914.743 159.75C914.857 159.22 915.08 158.761 915.414 158.375C915.747 157.985 916.177 157.686 916.703 157.477C917.234 157.265 917.847 157.159 918.544 157.159C919.029 157.159 919.493 157.216 919.936 157.33C920.383 157.443 920.779 157.619 921.124 157.858C921.472 158.097 921.747 158.403 921.948 158.778C922.149 159.15 922.249 159.595 922.249 160.114V166H919.953V164.79H919.885C919.745 165.062 919.558 165.303 919.323 165.511C919.088 165.716 918.806 165.877 918.476 165.994C918.147 166.108 917.766 166.165 917.334 166.165ZM918.027 164.494C918.383 164.494 918.698 164.424 918.97 164.284C919.243 164.14 919.457 163.947 919.613 163.705C919.768 163.462 919.845 163.187 919.845 162.881V161.955C919.77 162.004 919.666 162.049 919.533 162.091C919.404 162.129 919.258 162.165 919.095 162.199C918.933 162.229 918.77 162.258 918.607 162.284C918.444 162.307 918.296 162.328 918.164 162.347C917.88 162.388 917.631 162.455 917.419 162.545C917.207 162.636 917.042 162.759 916.925 162.915C916.808 163.066 916.749 163.256 916.749 163.483C916.749 163.812 916.868 164.064 917.107 164.239C917.349 164.409 917.656 164.494 918.027 164.494ZM924.127 166V157.273H926.547V166H924.127ZM925.343 156.148C924.983 156.148 924.674 156.028 924.416 155.79C924.163 155.547 924.036 155.258 924.036 154.92C924.036 154.587 924.163 154.301 924.416 154.062C924.674 153.82 924.983 153.699 925.343 153.699C925.702 153.699 926.009 153.82 926.263 154.062C926.521 154.301 926.649 154.587 926.649 154.92C926.649 155.258 926.521 155.547 926.263 155.79C926.009 156.028 925.702 156.148 925.343 156.148ZM930.907 160.955V166H928.486V157.273H930.793V158.812H930.895C931.088 158.305 931.412 157.903 931.867 157.608C932.321 157.309 932.872 157.159 933.52 157.159C934.126 157.159 934.655 157.292 935.105 157.557C935.556 157.822 935.907 158.201 936.157 158.693C936.407 159.182 936.532 159.765 936.532 160.443V166H934.111V160.875C934.115 160.341 933.979 159.924 933.702 159.625C933.425 159.322 933.045 159.17 932.56 159.17C932.234 159.17 931.946 159.241 931.696 159.381C931.45 159.521 931.257 159.725 931.117 159.994C930.98 160.259 930.91 160.58 930.907 160.955ZM947.269 154.364V166H945.86V155.841H945.791L942.951 157.727V156.295L945.86 154.364H947.269Z" fill="black"/>
<rect x="884.007" y="130.5" width="79.1978" height="59" rx="2.5" stroke="black" stroke-opacity="0.15"/>
<rect x="883.507" y="190" width="123.381" height="60" rx="3" fill="white" fill-opacity="0.5"/>
<path d="M918.836 216.392V214.364H928.393V216.392H924.831V226H922.399V216.392H918.836ZM929.015 226V217.273H931.362V218.795H931.453C931.612 218.254 931.879 217.845 932.254 217.568C932.629 217.288 933.061 217.148 933.549 217.148C933.671 217.148 933.801 217.155 933.941 217.17C934.082 217.186 934.205 217.206 934.311 217.233V219.381C934.197 219.347 934.04 219.316 933.839 219.29C933.638 219.263 933.455 219.25 933.288 219.25C932.932 219.25 932.614 219.328 932.334 219.483C932.057 219.634 931.837 219.847 931.674 220.119C931.515 220.392 931.436 220.706 931.436 221.062V226H929.015ZM937.801 226.165C937.244 226.165 936.748 226.068 936.312 225.875C935.877 225.678 935.532 225.388 935.278 225.006C935.028 224.619 934.903 224.138 934.903 223.562C934.903 223.078 934.992 222.67 935.17 222.341C935.348 222.011 935.591 221.746 935.897 221.545C936.204 221.345 936.553 221.193 936.943 221.091C937.337 220.989 937.75 220.917 938.182 220.875C938.689 220.822 939.098 220.773 939.409 220.727C939.719 220.678 939.945 220.606 940.085 220.511C940.225 220.417 940.295 220.277 940.295 220.091V220.057C940.295 219.697 940.182 219.419 939.954 219.222C939.731 219.025 939.413 218.926 939 218.926C938.564 218.926 938.217 219.023 937.96 219.216C937.702 219.405 937.532 219.644 937.449 219.932L935.21 219.75C935.324 219.22 935.547 218.761 935.88 218.375C936.214 217.985 936.644 217.686 937.17 217.477C937.7 217.265 938.314 217.159 939.011 217.159C939.496 217.159 939.96 217.216 940.403 217.33C940.85 217.443 941.246 217.619 941.591 217.858C941.939 218.097 942.214 218.403 942.414 218.778C942.615 219.15 942.716 219.595 942.716 220.114V226H940.42V224.79H940.352C940.212 225.062 940.024 225.303 939.789 225.511C939.555 225.716 939.272 225.877 938.943 225.994C938.613 226.108 938.233 226.165 937.801 226.165ZM938.494 224.494C938.85 224.494 939.164 224.424 939.437 224.284C939.71 224.14 939.924 223.947 940.079 223.705C940.235 223.462 940.312 223.187 940.312 222.881V221.955C940.236 222.004 940.132 222.049 940 222.091C939.871 222.129 939.725 222.165 939.562 222.199C939.399 222.229 939.236 222.258 939.074 222.284C938.911 222.307 938.763 222.328 938.63 222.347C938.346 222.388 938.098 222.455 937.886 222.545C937.674 222.636 937.509 222.759 937.392 222.915C937.274 223.066 937.216 223.256 937.216 223.483C937.216 223.812 937.335 224.064 937.574 224.239C937.816 224.409 938.123 224.494 938.494 224.494ZM944.593 226V217.273H947.014V226H944.593ZM945.809 216.148C945.45 216.148 945.141 216.028 944.883 215.79C944.629 215.547 944.503 215.258 944.503 214.92C944.503 214.587 944.629 214.301 944.883 214.062C945.141 213.82 945.45 213.699 945.809 213.699C946.169 213.699 946.476 213.82 946.73 214.062C946.987 214.301 947.116 214.587 947.116 214.92C947.116 215.258 946.987 215.547 946.73 215.79C946.476 216.028 946.169 216.148 945.809 216.148ZM951.373 220.955V226H948.953V217.273H951.26V218.812H951.362C951.555 218.305 951.879 217.903 952.333 217.608C952.788 217.309 953.339 217.159 953.987 217.159C954.593 217.159 955.121 217.292 955.572 217.557C956.023 217.822 956.373 218.201 956.623 218.693C956.873 219.182 956.998 219.765 956.998 220.443V226H954.578V220.875C954.582 220.341 954.445 219.924 954.169 219.625C953.892 219.322 953.512 219.17 953.027 219.17C952.701 219.17 952.413 219.241 952.163 219.381C951.917 219.521 951.724 219.725 951.583 219.994C951.447 220.259 951.377 220.58 951.373 220.955ZM963.645 226V224.977L967.485 220.773C967.936 220.28 968.307 219.852 968.599 219.489C968.891 219.121 969.107 218.777 969.247 218.455C969.391 218.129 969.463 217.788 969.463 217.432C969.463 217.023 969.364 216.669 969.167 216.369C968.974 216.07 968.709 215.839 968.372 215.676C968.035 215.513 967.656 215.432 967.235 215.432C966.789 215.432 966.398 215.525 966.065 215.71C965.735 215.892 965.48 216.148 965.298 216.477C965.12 216.807 965.031 217.193 965.031 217.636H963.69C963.69 216.955 963.847 216.356 964.162 215.841C964.476 215.326 964.904 214.924 965.446 214.636C965.991 214.348 966.603 214.205 967.281 214.205C967.963 214.205 968.567 214.348 969.093 214.636C969.62 214.924 970.033 215.312 970.332 215.801C970.631 216.29 970.781 216.833 970.781 217.432C970.781 217.86 970.703 218.278 970.548 218.688C970.396 219.093 970.131 219.545 969.753 220.045C969.378 220.542 968.857 221.148 968.19 221.864L965.576 224.659V224.75H970.985V226H963.645Z" fill="black"/>
<rect x="884.007" y="190.5" width="122.381" height="59" rx="2.5" stroke="black" stroke-opacity="0.15"/>
<rect x="883.507" y="250" width="165.683" height="59" rx="3" fill="white" fill-opacity="0.5"/>
<path d="M939.737 275.392V273.364H949.294V275.392H945.732V285H943.3V275.392H939.737ZM949.916 285V276.273H952.263V277.795H952.354C952.513 277.254 952.78 276.845 953.155 276.568C953.53 276.288 953.962 276.148 954.45 276.148C954.572 276.148 954.702 276.155 954.843 276.17C954.983 276.186 955.106 276.206 955.212 276.233V278.381C955.098 278.347 954.941 278.316 954.74 278.29C954.54 278.263 954.356 278.25 954.189 278.25C953.833 278.25 953.515 278.328 953.235 278.483C952.958 278.634 952.738 278.847 952.575 279.119C952.416 279.392 952.337 279.706 952.337 280.062V285H949.916ZM958.702 285.165C958.145 285.165 957.649 285.068 957.213 284.875C956.778 284.678 956.433 284.388 956.179 284.006C955.929 283.619 955.804 283.138 955.804 282.562C955.804 282.078 955.893 281.67 956.071 281.341C956.249 281.011 956.492 280.746 956.799 280.545C957.105 280.345 957.454 280.193 957.844 280.091C958.238 279.989 958.651 279.917 959.083 279.875C959.59 279.822 959.999 279.773 960.31 279.727C960.62 279.678 960.846 279.606 960.986 279.511C961.126 279.417 961.196 279.277 961.196 279.091V279.057C961.196 278.697 961.083 278.419 960.855 278.222C960.632 278.025 960.314 277.926 959.901 277.926C959.465 277.926 959.119 278.023 958.861 278.216C958.603 278.405 958.433 278.644 958.35 278.932L956.111 278.75C956.225 278.22 956.448 277.761 956.781 277.375C957.115 276.985 957.545 276.686 958.071 276.477C958.602 276.265 959.215 276.159 959.912 276.159C960.397 276.159 960.861 276.216 961.304 276.33C961.751 276.443 962.147 276.619 962.492 276.858C962.84 277.097 963.115 277.403 963.316 277.778C963.516 278.15 963.617 278.595 963.617 279.114V285H961.321V283.79H961.253C961.113 284.062 960.925 284.303 960.691 284.511C960.456 284.716 960.174 284.877 959.844 284.994C959.514 285.108 959.134 285.165 958.702 285.165ZM959.395 283.494C959.751 283.494 960.066 283.424 960.338 283.284C960.611 283.14 960.825 282.947 960.98 282.705C961.136 282.462 961.213 282.187 961.213 281.881V280.955C961.138 281.004 961.033 281.049 960.901 281.091C960.772 281.129 960.626 281.165 960.463 281.199C960.3 281.229 960.138 281.258 959.975 281.284C959.812 281.307 959.664 281.328 959.531 281.347C959.247 281.388 958.999 281.455 958.787 281.545C958.575 281.636 958.41 281.759 958.293 281.915C958.175 282.066 958.117 282.256 958.117 282.483C958.117 282.812 958.236 283.064 958.475 283.239C958.717 283.409 959.024 283.494 959.395 283.494ZM965.495 285V276.273H967.915V285H965.495ZM966.71 275.148C966.351 275.148 966.042 275.028 965.784 274.79C965.531 274.547 965.404 274.258 965.404 273.92C965.404 273.587 965.531 273.301 965.784 273.062C966.042 272.82 966.351 272.699 966.71 272.699C967.07 272.699 967.377 272.82 967.631 273.062C967.888 273.301 968.017 273.587 968.017 273.92C968.017 274.258 967.888 274.547 967.631 274.79C967.377 275.028 967.07 275.148 966.71 275.148ZM972.274 279.955V285H969.854V276.273H972.161V277.812H972.263C972.456 277.305 972.78 276.903 973.235 276.608C973.689 276.309 974.24 276.159 974.888 276.159C975.494 276.159 976.022 276.292 976.473 276.557C976.924 276.822 977.274 277.201 977.524 277.693C977.774 278.182 977.899 278.765 977.899 279.443V285H975.479V279.875C975.483 279.341 975.346 278.924 975.07 278.625C974.793 278.322 974.413 278.17 973.928 278.17C973.602 278.17 973.314 278.241 973.064 278.381C972.818 278.521 972.625 278.725 972.485 278.994C972.348 279.259 972.278 279.58 972.274 279.955ZM988.477 285.159C987.727 285.159 987.059 285.03 986.472 284.773C985.888 284.515 985.424 284.157 985.08 283.699C984.739 283.237 984.553 282.701 984.523 282.091H985.955C985.985 282.466 986.114 282.79 986.341 283.062C986.568 283.331 986.866 283.54 987.233 283.688C987.601 283.835 988.008 283.909 988.455 283.909C988.955 283.909 989.398 283.822 989.784 283.648C990.171 283.473 990.474 283.231 990.693 282.92C990.913 282.61 991.023 282.25 991.023 281.841C991.023 281.413 990.917 281.036 990.705 280.71C990.493 280.381 990.182 280.123 989.773 279.938C989.364 279.752 988.864 279.659 988.273 279.659H987.341V278.409H988.273C988.735 278.409 989.14 278.326 989.489 278.159C989.841 277.992 990.116 277.758 990.313 277.455C990.513 277.152 990.614 276.795 990.614 276.386C990.614 275.992 990.527 275.65 990.352 275.358C990.178 275.066 989.932 274.839 989.614 274.676C989.299 274.513 988.928 274.432 988.5 274.432C988.099 274.432 987.72 274.506 987.364 274.653C987.012 274.797 986.724 275.008 986.5 275.284C986.277 275.557 986.156 275.886 986.137 276.273H984.773C984.796 275.663 984.979 275.129 985.324 274.67C985.669 274.208 986.12 273.848 986.676 273.591C987.237 273.333 987.852 273.205 988.523 273.205C989.243 273.205 989.86 273.35 990.375 273.642C990.89 273.93 991.286 274.311 991.563 274.784C991.839 275.258 991.977 275.769 991.977 276.318C991.977 276.973 991.805 277.532 991.46 277.994C991.12 278.456 990.656 278.777 990.068 278.955V279.045C990.803 279.167 991.377 279.479 991.79 279.983C992.203 280.483 992.409 281.102 992.409 281.841C992.409 282.473 992.237 283.042 991.892 283.545C991.551 284.045 991.085 284.439 990.495 284.727C989.904 285.015 989.231 285.159 988.477 285.159Z" fill="black"/>
<rect x="884.007" y="250.5" width="164.683" height="58" rx="2.5" stroke="black" stroke-opacity="0.15"/>
<rect x="964.705" y="131" width="41.1835" height="58" rx="2" fill="white" fill-opacity="0.5"/>
<path d="M969.827 155.614V154.364H978.555V155.614H974.896V166H973.486V155.614H969.827ZM982.941 166.182C982.1 166.182 981.375 165.996 980.765 165.625C980.159 165.25 979.691 164.727 979.361 164.057C979.036 163.383 978.873 162.598 978.873 161.705C978.873 160.811 979.036 160.023 979.361 159.341C979.691 158.655 980.149 158.121 980.736 157.739C981.327 157.352 982.017 157.159 982.805 157.159C983.259 157.159 983.708 157.235 984.151 157.386C984.594 157.538 984.998 157.784 985.361 158.125C985.725 158.462 986.015 158.909 986.231 159.466C986.447 160.023 986.555 160.708 986.555 161.523V162.091H979.827V160.932H985.191C985.191 160.439 985.092 160 984.896 159.614C984.702 159.227 984.426 158.922 984.066 158.699C983.71 158.475 983.289 158.364 982.805 158.364C982.271 158.364 981.808 158.496 981.418 158.761C981.032 159.023 980.735 159.364 980.526 159.784C980.318 160.205 980.214 160.655 980.214 161.136V161.909C980.214 162.568 980.327 163.127 980.555 163.585C980.786 164.04 981.106 164.386 981.515 164.625C981.924 164.86 982.399 164.977 982.941 164.977C983.293 164.977 983.611 164.928 983.896 164.83C984.183 164.727 984.432 164.576 984.64 164.375C984.848 164.17 985.009 163.917 985.123 163.614L986.418 163.977C986.282 164.417 986.053 164.803 985.731 165.136C985.409 165.466 985.011 165.723 984.538 165.909C984.064 166.091 983.532 166.182 982.941 166.182ZM994.776 159.227L993.572 159.568C993.496 159.367 993.384 159.172 993.236 158.983C993.092 158.79 992.896 158.631 992.646 158.506C992.396 158.381 992.075 158.318 991.685 158.318C991.151 158.318 990.706 158.441 990.35 158.688C989.998 158.93 989.822 159.239 989.822 159.614C989.822 159.947 989.943 160.21 990.185 160.403C990.428 160.597 990.807 160.758 991.322 160.886L992.617 161.205C993.397 161.394 993.979 161.684 994.361 162.074C994.744 162.46 994.935 162.958 994.935 163.568C994.935 164.068 994.791 164.515 994.503 164.909C994.219 165.303 993.822 165.614 993.31 165.841C992.799 166.068 992.204 166.182 991.526 166.182C990.636 166.182 989.899 165.989 989.316 165.602C988.733 165.216 988.363 164.652 988.208 163.909L989.481 163.591C989.602 164.061 989.831 164.413 990.168 164.648C990.509 164.883 990.954 165 991.503 165C992.128 165 992.625 164.867 992.992 164.602C993.363 164.333 993.549 164.011 993.549 163.636C993.549 163.333 993.443 163.08 993.231 162.875C993.019 162.667 992.693 162.511 992.253 162.409L990.799 162.068C990 161.879 989.413 161.585 989.038 161.188C988.666 160.786 988.481 160.284 988.481 159.682C988.481 159.189 988.619 158.754 988.896 158.375C989.176 157.996 989.557 157.699 990.038 157.483C990.522 157.267 991.072 157.159 991.685 157.159C992.549 157.159 993.227 157.348 993.719 157.727C994.216 158.106 994.568 158.606 994.776 159.227ZM1000.75 157.273V158.409H996.226V157.273H1000.75ZM997.545 155.182H998.886V163.5C998.886 163.879 998.941 164.163 999.05 164.352C999.164 164.538 999.308 164.663 999.482 164.727C999.66 164.788 999.848 164.818 1000.04 164.818C1000.19 164.818 1000.31 164.811 1000.41 164.795C1000.5 164.777 1000.58 164.761 1000.64 164.75L1000.91 165.955C1000.82 165.989 1000.69 166.023 1000.53 166.057C1000.36 166.095 1000.16 166.114 999.908 166.114C999.53 166.114 999.158 166.032 998.795 165.869C998.435 165.706 998.136 165.458 997.897 165.125C997.662 164.792 997.545 164.371 997.545 163.864V155.182Z" fill="black"/>
<rect x="964.705" y="131" width="41.1835" height="58" rx="2" stroke="#F9C233" stroke-width="2"/>
<rect x="1007.89" y="191" width="40.3022" height="58" rx="2" fill="white" fill-opacity="0.5"/>
<path d="M1012.57 215.614V214.364H1021.3V215.614H1017.64V226H1016.23V215.614H1012.57ZM1025.68 226.182C1024.84 226.182 1024.12 225.996 1023.51 225.625C1022.9 225.25 1022.43 224.727 1022.1 224.057C1021.78 223.383 1021.62 222.598 1021.62 221.705C1021.62 220.811 1021.78 220.023 1022.1 219.341C1022.43 218.655 1022.89 218.121 1023.48 217.739C1024.07 217.352 1024.76 217.159 1025.55 217.159C1026 217.159 1026.45 217.235 1026.89 217.386C1027.34 217.538 1027.74 217.784 1028.1 218.125C1028.47 218.462 1028.76 218.909 1028.97 219.466C1029.19 220.023 1029.3 220.708 1029.3 221.523V222.091H1022.57V220.932H1027.93C1027.93 220.439 1027.84 220 1027.64 219.614C1027.45 219.227 1027.17 218.922 1026.81 218.699C1026.45 218.475 1026.03 218.364 1025.55 218.364C1025.01 218.364 1024.55 218.496 1024.16 218.761C1023.77 219.023 1023.48 219.364 1023.27 219.784C1023.06 220.205 1022.96 220.655 1022.96 221.136V221.909C1022.96 222.568 1023.07 223.127 1023.3 223.585C1023.53 224.04 1023.85 224.386 1024.26 224.625C1024.67 224.86 1025.14 224.977 1025.68 224.977C1026.04 224.977 1026.35 224.928 1026.64 224.83C1026.93 224.727 1027.17 224.576 1027.38 224.375C1027.59 224.17 1027.75 223.917 1027.87 223.614L1029.16 223.977C1029.02 224.417 1028.8 224.803 1028.47 225.136C1028.15 225.466 1027.75 225.723 1027.28 225.909C1026.81 226.091 1026.27 226.182 1025.68 226.182ZM1037.52 219.227L1036.31 219.568C1036.24 219.367 1036.13 219.172 1035.98 218.983C1035.84 218.79 1035.64 218.631 1035.39 218.506C1035.14 218.381 1034.82 218.318 1034.43 218.318C1033.89 218.318 1033.45 218.441 1033.09 218.688C1032.74 218.93 1032.56 219.239 1032.56 219.614C1032.56 219.947 1032.69 220.21 1032.93 220.403C1033.17 220.597 1033.55 220.758 1034.06 220.886L1035.36 221.205C1036.14 221.394 1036.72 221.684 1037.1 222.074C1037.49 222.46 1037.68 222.958 1037.68 223.568C1037.68 224.068 1037.53 224.515 1037.25 224.909C1036.96 225.303 1036.56 225.614 1036.05 225.841C1035.54 226.068 1034.95 226.182 1034.27 226.182C1033.38 226.182 1032.64 225.989 1032.06 225.602C1031.48 225.216 1031.11 224.652 1030.95 223.909L1032.22 223.591C1032.34 224.061 1032.57 224.413 1032.91 224.648C1033.25 224.883 1033.7 225 1034.25 225C1034.87 225 1035.37 224.867 1035.73 224.602C1036.11 224.333 1036.29 224.011 1036.29 223.636C1036.29 223.333 1036.19 223.08 1035.97 222.875C1035.76 222.667 1035.44 222.511 1035 222.409L1033.54 222.068C1032.74 221.879 1032.16 221.585 1031.78 221.188C1031.41 220.786 1031.22 220.284 1031.22 219.682C1031.22 219.189 1031.36 218.754 1031.64 218.375C1031.92 217.996 1032.3 217.699 1032.78 217.483C1033.27 217.267 1033.81 217.159 1034.43 217.159C1035.29 217.159 1035.97 217.348 1036.46 217.727C1036.96 218.106 1037.31 218.606 1037.52 219.227ZM1043.49 217.273V218.409H1038.97V217.273H1043.49ZM1040.29 215.182H1041.63V223.5C1041.63 223.879 1041.68 224.163 1041.79 224.352C1041.91 224.538 1042.05 224.663 1042.22 224.727C1042.4 224.788 1042.59 224.818 1042.79 224.818C1042.94 224.818 1043.06 224.811 1043.15 224.795C1043.25 224.777 1043.32 224.761 1043.38 224.75L1043.65 225.955C1043.56 225.989 1043.43 226.023 1043.27 226.057C1043.11 226.095 1042.9 226.114 1042.65 226.114C1042.27 226.114 1041.9 226.032 1041.54 225.869C1041.18 225.706 1040.88 225.458 1040.64 225.125C1040.4 224.792 1040.29 224.371 1040.29 223.864V215.182Z" fill="black"/>
<rect x="1007.89" y="191" width="40.3022" height="58" rx="2" stroke="#F9C233" stroke-width="2"/>
<rect x="1050.19" y="250" width="40.3022" height="58" rx="2" fill="white" fill-opacity="0.5"/>
<path d="M1054.87 274.614V273.364H1063.6V274.614H1059.94V285H1058.53V274.614H1054.87ZM1067.99 285.182C1067.15 285.182 1066.42 284.996 1065.81 284.625C1065.2 284.25 1064.74 283.727 1064.41 283.057C1064.08 282.383 1063.92 281.598 1063.92 280.705C1063.92 279.811 1064.08 279.023 1064.41 278.341C1064.74 277.655 1065.19 277.121 1065.78 276.739C1066.37 276.352 1067.06 276.159 1067.85 276.159C1068.3 276.159 1068.75 276.235 1069.2 276.386C1069.64 276.538 1070.04 276.784 1070.41 277.125C1070.77 277.462 1071.06 277.909 1071.28 278.466C1071.49 279.023 1071.6 279.708 1071.6 280.523V281.091H1064.87V279.932H1070.24C1070.24 279.439 1070.14 279 1069.94 278.614C1069.75 278.227 1069.47 277.922 1069.11 277.699C1068.75 277.475 1068.33 277.364 1067.85 277.364C1067.32 277.364 1066.85 277.496 1066.46 277.761C1066.08 278.023 1065.78 278.364 1065.57 278.784C1065.36 279.205 1065.26 279.655 1065.26 280.136V280.909C1065.26 281.568 1065.37 282.127 1065.6 282.585C1065.83 283.04 1066.15 283.386 1066.56 283.625C1066.97 283.86 1067.44 283.977 1067.99 283.977C1068.34 283.977 1068.66 283.928 1068.94 283.83C1069.23 283.727 1069.48 283.576 1069.68 283.375C1069.89 283.17 1070.05 282.917 1070.17 282.614L1071.46 282.977C1071.33 283.417 1071.1 283.803 1070.78 284.136C1070.45 284.466 1070.06 284.723 1069.58 284.909C1069.11 285.091 1068.58 285.182 1067.99 285.182ZM1079.82 278.227L1078.62 278.568C1078.54 278.367 1078.43 278.172 1078.28 277.983C1078.14 277.79 1077.94 277.631 1077.69 277.506C1077.44 277.381 1077.12 277.318 1076.73 277.318C1076.2 277.318 1075.75 277.441 1075.4 277.688C1075.04 277.93 1074.87 278.239 1074.87 278.614C1074.87 278.947 1074.99 279.21 1075.23 279.403C1075.47 279.597 1075.85 279.758 1076.37 279.886L1077.66 280.205C1078.44 280.394 1079.02 280.684 1079.41 281.074C1079.79 281.46 1079.98 281.958 1079.98 282.568C1079.98 283.068 1079.84 283.515 1079.55 283.909C1079.26 284.303 1078.87 284.614 1078.36 284.841C1077.84 285.068 1077.25 285.182 1076.57 285.182C1075.68 285.182 1074.94 284.989 1074.36 284.602C1073.78 284.216 1073.41 283.652 1073.25 282.909L1074.53 282.591C1074.65 283.061 1074.88 283.413 1075.21 283.648C1075.55 283.883 1076 284 1076.55 284C1077.17 284 1077.67 283.867 1078.04 283.602C1078.41 283.333 1078.59 283.011 1078.59 282.636C1078.59 282.333 1078.49 282.08 1078.28 281.875C1078.06 281.667 1077.74 281.511 1077.3 281.409L1075.84 281.068C1075.04 280.879 1074.46 280.585 1074.08 280.188C1073.71 279.786 1073.53 279.284 1073.53 278.682C1073.53 278.189 1073.66 277.754 1073.94 277.375C1074.22 276.996 1074.6 276.699 1075.08 276.483C1075.57 276.267 1076.12 276.159 1076.73 276.159C1077.59 276.159 1078.27 276.348 1078.76 276.727C1079.26 277.106 1079.61 277.606 1079.82 278.227ZM1085.79 276.273V277.409H1081.27V276.273H1085.79ZM1082.59 274.182H1083.93V282.5C1083.93 282.879 1083.99 283.163 1084.1 283.352C1084.21 283.538 1084.35 283.663 1084.53 283.727C1084.71 283.788 1084.89 283.818 1085.09 283.818C1085.24 283.818 1085.36 283.811 1085.45 283.795C1085.55 283.777 1085.62 283.761 1085.68 283.75L1085.95 284.955C1085.86 284.989 1085.74 285.023 1085.57 285.057C1085.41 285.095 1085.2 285.114 1084.95 285.114C1084.57 285.114 1084.2 285.032 1083.84 284.869C1083.48 284.706 1083.18 284.458 1082.94 284.125C1082.71 283.792 1082.59 283.371 1082.59 282.864V274.182Z" fill="black"/>
<rect x="1050.19" y="250" width="40.3022" height="58" rx="2" stroke="#F9C233" stroke-width="2"/>
<path d="M838 216.5C837.172 216.5 836.5 217.172 836.5 218C836.5 218.828 837.172 219.5 838 219.5V216.5ZM857 218C857 222.418 860.582 226 865 226C869.418 226 873 222.418 873 218C873 213.582 869.418 210 865 210C860.582 210 857 213.582 857 218ZM838 219.5H865V216.5H838V219.5Z" fill="#F9C233"/>
<defs>
<filter id="filter0_d_116_219" x="283.41" y="155.011" width="210.477" height="125.266" filterUnits="userSpaceOnUse" color-interpolation-filters="sRGB">
<feFlood flood-opacity="0" result="BackgroundImageFix"/>
<feColorMatrix in="SourceAlpha" type="matrix" values="0 0 0 0 0 0 0 0 0 0 0 0 0 0 0 0 0 0 127 0" result="hardAlpha"/>
<feOffset/>
<feGaussianBlur stdDeviation="18.5"/>
<feComposite in2="hardAlpha" operator="out"/>
<feColorMatrix type="matrix" values="0 0 0 0 1 0 0 0 0 1 0 0 0 0 1 0 0 0 1 0"/>
<feBlend mode="normal" in2="BackgroundImageFix" result="effect1_dropShadow_116_219"/>
<feBlend mode="normal" in="SourceGraphic" in2="effect1_dropShadow_116_219" result="shape"/>
</filter>
<filter id="filter1_d_116_219" x="640.619" y="131.116" width="199.896" height="152.161" filterUnits="userSpaceOnUse" color-interpolation-filters="sRGB">
<feFlood flood-opacity="0" result="BackgroundImageFix"/>
<feColorMatrix in="SourceAlpha" type="matrix" values="0 0 0 0 0 0 0 0 0 0 0 0 0 0 0 0 0 0 127 0" result="hardAlpha"/>
<feOffset/>
<feGaussianBlur stdDeviation="18.5"/>
<feComposite in2="hardAlpha" operator="out"/>
<feColorMatrix type="matrix" values="0 0 0 0 1 0 0 0 0 1 0 0 0 0 1 0 0 0 1 0"/>
<feBlend mode="normal" in2="BackgroundImageFix" result="effect1_dropShadow_116_219"/>
<feBlend mode="normal" in="SourceGraphic" in2="effect1_dropShadow_116_219" result="shape"/>
</filter>
<filter id="filter2_d_116_219" x="468.14" y="163.3" width="196.779" height="110.65" filterUnits="userSpaceOnUse" color-interpolation-filters="sRGB">
<feFlood flood-opacity="0" result="BackgroundImageFix"/>
<feColorMatrix in="SourceAlpha" type="matrix" values="0 0 0 0 0 0 0 0 0 0 0 0 0 0 0 0 0 0 127 0" result="hardAlpha"/>
<feOffset/>
<feGaussianBlur stdDeviation="18.5"/>
<feComposite in2="hardAlpha" operator="out"/>
<feColorMatrix type="matrix" values="0 0 0 0 1 0 0 0 0 1 0 0 0 0 1 0 0 0 1 0"/>
<feBlend mode="normal" in2="BackgroundImageFix" result="effect1_dropShadow_116_219"/>
<feBlend mode="normal" in="SourceGraphic" in2="effect1_dropShadow_116_219" result="shape"/>
</filter>
</defs>
</svg>
